<?xml version="1.0" encoding="utf-8"?>
<!-- Generator: Adobe Illustrator 16.0.0, SVG Export Plug-In . SVG Version: 6.00 Build 0)  -->
<!DOCTYPE svg PUBLIC "-//W3C//DTD SVG 1.1//EN" "http://www.w3.org/Graphics/SVG/1.1/DTD/svg11.dtd">
<svg version="1.1" xmlns="http://www.w3.org/2000/svg" xmlns:xlink="http://www.w3.org/1999/xlink" x="0px" y="0px" width="172.5px"
	 height="225.15px" viewBox="0 0 172.5 225.15" enable-background="new 0 0 172.5 225.15" xml:space="preserve">
<g id="Слой_1">
	<g opacity="0.8">
		<g>
			<path fill-rule="evenodd" clip-rule="evenodd" fill="#FFFFFF" d="M67.775,46.701c-0.156,0.211-0.457,0.269-0.692,0.384
				c-0.237,0.115-0.456,0.249-0.691,0.345c-1.472-3.56-2.972-7.091-4.417-10.677c0.432-0.26,0.934-0.449,1.383-0.691
				C64.842,39.595,66.318,43.14,67.775,46.701z"/>
			<path fill-rule="evenodd" clip-rule="evenodd" fill="#FFFFFF" d="M133.608,51.694c-0.54,0.586-1.126,1.126-1.69,1.69
				c-0.556,0.555-1.098,1.133-1.729,1.613c-0.37-0.321-0.768-0.614-1.151-0.921c1.077-1.228,2.314-2.295,3.457-3.457
				C132.875,50.967,133.2,51.373,133.608,51.694z"/>
			<path fill-rule="evenodd" clip-rule="evenodd" fill="#FFFFFF" d="M49.684,58.799c-0.355,0.374-0.772,0.688-1.114,1.076
				c-2.746-2.631-5.486-5.269-8.143-7.989c0.402-0.315,0.723-0.711,1.114-1.037C44.261,53.494,46.96,56.159,49.684,58.799z"/>
			<path fill-rule="evenodd" clip-rule="evenodd" fill="#FFFFFF" d="M63.281,58.916c-0.243,0.073-0.47,0.146-0.729,0.229
				c-0.199,0.065-0.554,0.263-0.73,0.231c-0.277-0.051-0.687-0.918-0.845-1.152c-0.779-1.147-1.736-2.435-2.381-3.495
				c0.489-0.202,0.864-0.52,1.344-0.73C61.075,55.616,62.224,57.218,63.281,58.916z"/>
			<path fill-rule="evenodd" clip-rule="evenodd" fill="#FFFFFF" d="M140.944,60.835c0.026,0,0.052,0,0.078,0
				c-0.012,0.523,0.172,0.891,0.422,1.19c0.067,0.081,0.254,0.129,0.191,0.271c-3.124,1.97-6.199,3.99-9.294,5.99
				c-0.446-0.296-0.638-0.847-1.037-1.189C134.493,64.984,137.748,62.938,140.944,60.835z"/>
			<path fill-rule="evenodd" clip-rule="evenodd" fill="#FFFFFF" d="M130.151,69.708c-0.958,0.578-1.942,1.263-2.919,1.882
				c-0.323,0.205-0.636,0.461-0.96,0.614c-0.444,0.21-0.975,0.306-1.459,0.461c-1.407,0.451-2.798,0.95-4.264,1.382
				c2.843-1.882,5.729-3.721,8.604-5.569c0.025,0,0.052,0,0.077,0C129.527,68.899,129.898,69.244,130.151,69.708z"/>
			<path fill-rule="evenodd" clip-rule="evenodd" fill="#FFFFFF" d="M147.128,72.319c-3.523,1.508-7.097,2.967-10.601,4.494
				c-0.345-0.385-0.561-0.898-0.807-1.381c3.046-1.302,6.191-2.604,9.257-3.919c0.471-0.202,1.004-0.464,1.421-0.576
				C146.688,71.352,146.939,71.804,147.128,72.319z"/>
			<path fill-rule="evenodd" clip-rule="evenodd" fill="#FFFFFF" d="M27.637,71.59c3.733,1.402,7.382,2.886,11.062,4.34
				c-0.209,0.457-0.368,0.963-0.576,1.421c-3.765-1.395-7.389-2.93-11.139-4.34C27.181,72.516,27.367,72.012,27.637,71.59z"/>
			<path fill-rule="evenodd" clip-rule="evenodd" fill="#FFFFFF" d="M42.924,86.455c-0.29,0.516-0.675,0.937-0.999,1.42
				c-1.256-0.267-2.554-0.493-3.841-0.729c0.109-0.505,0.184-1.045,0.308-1.536C39.95,85.844,41.384,86.202,42.924,86.455z"/>
			<path fill-rule="evenodd" clip-rule="evenodd" fill="#FFFFFF" d="M55.522,88.874c-0.106,0.18-0.352,0.213-0.539,0.307
				c-0.354,0.179-0.697,0.373-1.113,0.577c-0.179,0.087-0.389,0.247-0.538,0.269c-0.35,0.052-0.722-0.123-1.076-0.192
				c-0.37-0.072-0.71-0.076-1.075-0.192c0.913-0.331,2.013-0.681,2.958-0.998C54.499,88.523,55.061,88.915,55.522,88.874z"/>
			<path fill-rule="evenodd" clip-rule="evenodd" fill="#FFFFFF" d="M34.206,95.672c-0.045,0.507-0.041,1.061-0.116,1.537
				c-0.725,0.072-1.818,0.028-2.689,0c-0.568-0.019-1.448,0.039-2.458,0.039c-2.029,0-4.075,0-6.261,0
				c0.002-0.561-0.075-1.085,0.038-1.575C26.597,95.695,31.527,95.638,34.206,95.672z"/>
			<path fill-rule="evenodd" clip-rule="evenodd" fill="#FFFFFF" d="M136.912,104.584c0.01,0.46-0.256,0.972-0.308,1.497
				c-1.297-0.175-2.485-0.459-3.726-0.69c0.672-0.359,1.517-0.796,2.228-1.153c0.013-0.007,0.062-0.002,0.077,0
				C135.697,104.318,136.291,104.461,136.912,104.584z"/>
			<path fill-rule="evenodd" clip-rule="evenodd" fill="#FFFFFF" d="M126.195,110.499c-0.776,0.209-1.477,0.496-2.266,0.691
				c-0.59-0.127-1.018-0.416-1.574-0.576c0.563-0.371,1.238-0.632,1.843-0.96c0.373,0.114,0.729,0.244,1.038,0.421
				C125.577,110.195,125.967,110.266,126.195,110.499z"/>
			<path fill-rule="evenodd" clip-rule="evenodd" fill="#FFFFFF" d="M147.857,118.949c-0.271,0.456-0.483,0.976-0.767,1.42
				c-3.599-1.42-7.187-2.851-10.793-4.263c0.236-0.442,0.354-1.003,0.615-1.421C140.606,116.062,144.172,117.565,147.857,118.949z"
				/>
			<path fill-rule="evenodd" clip-rule="evenodd" fill="#FFFFFF" d="M34.666,119.87c-1.973,0.819-3.941,1.642-5.877,2.497
				c-0.296-0.42-0.517-0.917-0.73-1.42c1.721-0.737,3.458-1.459,5.186-2.189C33.763,119.083,34.245,119.446,34.666,119.87z"/>
			<path fill-rule="evenodd" clip-rule="evenodd" fill="#FFFFFF" d="M130.458,122.252c-0.29,0.427-0.61,0.823-0.883,1.267
				c-1.235-0.711-2.39-1.503-3.572-2.267c0.299-0.417,0.574-0.859,0.922-1.229C128.149,120.72,129.272,121.517,130.458,122.252z"/>
			<path fill-rule="evenodd" clip-rule="evenodd" fill="#FFFFFF" d="M51.489,132.084c-0.312,0.302-0.638,0.677-0.959,0.884
				c-0.344,0.222-0.765,0.343-1.153,0.538c-1.067,0.536-2.141,1.107-3.265,1.69c-0.128-0.024,0.089-0.207,0.155-0.27
				c2.072-2.018,4.148-3.997,6.261-6.107c0.307-0.307,0.735-0.659,1.113-1.037c0.368-0.369,0.723-0.881,1.075-1.075
				c0.208-0.114,0.542-0.187,0.807-0.269c0.808-0.251,1.71-0.501,2.458-0.807c0.032-0.007,0.036,0.015,0.039,0.04"/>
			<path fill-rule="evenodd" clip-rule="evenodd" fill="#FFFFFF" d="M133.646,140.957c-0.316,0.401-0.733,0.701-1.075,1.076
				c-0.97-0.772-1.776-1.706-2.65-2.574c-0.915-0.813-1.765-1.692-2.612-2.573c0.546-0.171,1.083-0.351,1.613-0.537
				C130.501,137.88,132.11,139.382,133.646,140.957z"/>
			<g>
				<g>
					<g>
						<path fill-rule="evenodd" clip-rule="evenodd" fill="#FFFFFF" d="M35.739,95.309c0.022-0.293,0.275-0.479,0.422-0.691
							c1.029-1.474,2.081-3.024,3.15-4.495c3.678-5.056,7.304-10.148,11.023-15.21c-1.866-1.478-3.758-2.987-5.646-4.493
							c-1.878-1.499-3.852-2.922-5.454-4.609c12.287-3.922,24.452-7.965,36.719-11.907c0-2.689,0-5.377,0-8.066
							c-0.596-0.3-1.195-0.598-1.729-0.96c-0.024,0.508-0.042,0.837-0.193,1.152c-0.471,0.986-2.085,0.97-2.611,0.153
							c-0.306-0.474-0.307-1.135-0.308-1.92c0-0.218,0.066-0.544,0-0.73c-0.061-0.171-0.192-0.155-0.346-0.269
							c-0.542-0.404-0.869-1.203-1.153-1.921c-0.653-1.659-1.172-3.981-1.267-6.068c-0.141-3.107,0.758-5.706,1.384-8.373
							c0.607-2.594,1.295-5.374,1.881-7.874c0.291-1.24,0.581-2.667,0.922-3.957c0.457-1.73,0.983-3.103,2.765-3.534
							c-0.539-3.628,0.647-6.004,3.304-6.836c1.341-0.421,3.01-0.385,4.801-0.385c3.469,0,6.829,0,10.333,0
							c1.771,0,3.429-0.026,4.762,0.385c1.276,0.393,2.271,1.251,2.842,2.343c0.604,1.152,0.598,2.779,0.422,4.494
							c2.683,0.616,2.857,3.917,3.496,6.606c0.959,4.043,1.967,8.081,2.918,12.176c0.325,1.398,0.607,2.881,0.577,4.455
							c-0.03,1.477-0.291,2.942-0.653,4.379c-0.408,1.621-0.826,3.256-1.921,4.187c-0.184,0.158-0.211,0.026-0.269,0.269
							c-0.029,0.124,0.02,0.249,0,0.499c2.697-0.785,5.486-1.812,8.258-2.649c2.282,1.475,4.353,3.237,6.492,4.917
							c1.067,0.838,2.116,1.693,3.187,2.535c1.062,0.833,2.164,1.625,3.226,2.458c3.204,2.507,6.363,5.05,9.526,7.604
							c0.912,0.736,1.881,1.424,2.843,2.151c0.093,0.069,0.317,0.14,0.308,0.306c-8.744,4.188-17.284,8.579-26.003,12.791
							c0.147,0.352,0.31,0.688,0.539,0.96c4.188-1.34,8.343-2.643,12.597-4.071c0.574-0.193,1.278-0.565,1.805-0.538
							c0.378,0.02,0.714,0.273,1.075,0.576c2.106,1.765,4.374,3.388,6.492,5.071c4.958,3.941,9.83,7.754,14.787,11.638
							c1.854,1.453,3.668,2.925,5.493,4.417c0.588,0.48,1.209,0.922,1.728,1.458c-2.761,1.175-5.369,2.674-8.065,3.957
							c-8.089,3.851-16.024,7.948-24.045,11.907c3.955-1.27,7.874-2.575,11.83-3.841c0.109,0.039-0.052,0.213-0.115,0.306
							c-0.476,0.708-1.046,1.481-1.575,2.229c-4.172,5.886-8.493,11.883-12.752,17.707c0.427,0.428,0.913,0.811,1.382,1.19
							c1.398,1.129,2.874,2.226,4.303,3.38c0.944,0.763,1.925,1.526,2.88,2.266c0.861,0.667,1.673,1.264,2.381,2.113
							c0.077,0.094,0.243,0.196,0.193,0.346c-6.542,2.114-13.06,4.252-19.589,6.375c0,4.667,0,9.2,0,13.79
							c0,2.408,0.118,4.717-0.078,6.799c-0.192,2.04-0.618,3.896-1.267,5.607c-0.618,1.629-1.561,3.068-2.535,4.379
							c-1,1.345-2.22,2.436-3.534,3.341c-1.408,0.969-2.935,1.646-4.878,1.998c-1.895,0.342-4.006,0.307-6.491,0.307
							c-4.341,0-9.138,0-13.789,0c-2.347,0-4.703,0.086-6.799-0.077c-2.202-0.173-3.965-0.555-5.569-1.306
							c-3.137-1.471-5.396-3.858-6.914-6.875c-0.792-1.575-1.387-3.153-1.767-5.108c-0.168-0.861-0.345-1.999-0.345-3.112
							c0-0.505,0-1.096,0-1.729c0-0.482,0.111-1.251-0.039-1.651c-0.047-0.128-0.151-0.205-0.345-0.346
							c-1.914-1.397-3.846-3.057-5.646-4.494c-1.514-1.208-3.044-2.352-4.571-3.534c-2.512-1.943-5.032-4.006-7.566-5.954
							c-1.528-1.173-2.979-2.42-4.494-3.61c-0.509-0.4-1.038-0.751-1.459-1.229c7.995-4.041,15.943-8.128,24.045-12.061
							c0-0.435,0-0.87,0-1.306c-1.207,0.281-2.362,0.734-3.573,1.115c-3.268,1.028-6.543,2.132-9.833,3.264
							c-0.304,0.104-0.707,0.276-0.883,0.269c-0.239-0.01-0.683-0.395-0.999-0.653c-2.127-1.74-4.302-3.382-6.452-5.07
							c-4.979-3.908-9.802-7.725-14.711-11.638c-2.293-1.827-4.657-3.533-6.837-5.492c-0.115-0.104-0.344-0.234-0.346-0.384
							c10.708-5.284,21.347-10.636,32.072-15.902c-2.284,0.622-4.509,1.461-6.798,2.189C40.411,93.922,38.112,94.695,35.739,95.309z
							 M75.492,16.109c-0.086,0.402-0.213,0.795-0.306,1.19c-0.981,4.13-1.906,8.09-2.881,12.214
							c-0.397,1.679-0.925,3.417-0.922,5.147c0.002,0.953,0.208,1.795,0.384,2.689c0.455-1.835,0.8-3.893,1.382-5.608
							c0.603-1.773,1.549-3.044,3.496-3.495c-0.088-1.089,0.138-1.958-0.038-2.842c-0.157-0.787-0.552-1.371-0.614-2.151
							c-0.094-1.17,0.205-1.912,0.498-2.728c-0.195-0.399-0.37-0.515-0.498-0.844c-0.252-0.644-0.238-1.419-0.039-2.036
							c0.086-0.269,0.332-0.521,0.346-0.807c0.012-0.255-0.157-0.666-0.231-0.999c-0.09-0.4-0.163-0.883-0.269-1.075
							C75.637,15.178,75.592,15.647,75.492,16.109z M100.727,16.877c0.501,0.67,0.72,1.868,0.345,2.804
							c-0.14,0.354-0.396,0.571-0.537,0.844c0.35,0.805,0.663,1.757,0.614,2.766c-0.044,0.947-0.648,1.782-0.729,2.842
							c-0.052,0.687,0.038,1.306,0,2.112c2.11,0.545,3.046,1.951,3.649,3.918c0.499,1.628,0.815,3.498,1.269,5.224
							c0.51-2.106,0.303-4.165-0.116-6.068c-1.242-5.641-2.634-10.976-3.956-16.517c-0.002-0.023-0.006-0.046-0.039-0.038
							C101.093,15.501,100.945,16.226,100.727,16.877z M75.108,36.696c-0.318,1.414-0.711,2.788-0.921,4.071
							c0.162,0.107,0.236,0.301,0.461,0.345c-0.02-1.105,0.253-1.842,0.538-2.688c0.664-1.981,1.241-3.884,1.343-6.453
							c-0.001-0.023-0.004-0.046-0.039-0.039C75.722,33.126,75.493,34.986,75.108,36.696z M101.957,38.425
							c0.279,0.806,0.579,1.589,0.575,2.573c0.43-0.116,0.255-0.578,0.192-0.921c-0.219-1.206-0.53-2.429-0.768-3.572
							c-0.335-1.606-0.663-3.323-1.345-4.456c-0.002-0.024-0.006-0.046-0.038-0.039C100.608,34.586,101.304,36.543,101.957,38.425z
							 M101.995,45.415c0.276-0.094,0.535-0.207,0.844-0.269c-0.022-0.079,0.048-0.252-0.038-0.269
							C102.59,45.089,102.12,45.245,101.995,45.415z"/>
					</g>
					<g>
						<path fill-rule="evenodd" clip-rule="evenodd" fill="#FFFFFF" d="M100.393,41.12c0.051-0.818-0.323-1.405-0.576-2.112
							c-0.982-2.738-1.498-5.912-1.498-9.641c0-1.399-0.181-3.036,0.039-4.341c0.103-0.609,0.449-1.156,0.537-1.727
							c0.27-1.731-0.731-2.618-2.15-2.728c-1.355-0.105-2.731,0-4.11,0c-2.669,0-5.577,0-8.219,0c-1.452,0-2.871-0.102-4.11,0
							c-0.653,0.053-1.443,0.373-1.806,0.921c-0.303,0.459-0.43,1.208-0.307,1.882c0.108,0.591,0.39,1.027,0.499,1.574
							c0.137,0.684,0.116,1.543,0.116,2.343c0,2.313-0.088,4.634-0.346,6.683c-0.284,2.258-0.77,3.825-1.421,5.569
							c-0.221,0.597-0.414,1.373-0.307,1.959c0.117,0.644,0.359,0.975,0.605,1.417c0.136,0.243,0.855,1.088,0.984,1.244
							c0.049,3.801,0.022,6.562,0.023,10.475c6.59-2.124,13.269-4.231,19.82-6.376c0.191-0.062,0.444-0.09,0.576-0.268
							c0.067-1.58-0.077-2.143,0.002-3.776C99.416,43.669,100.319,42.292,100.393,41.12z"/>
						<path fill-rule="evenodd" clip-rule="evenodd" fill="#FFFFFF" d="M111.455,75.229c-0.792-1.294-1.62-2.299-2.842-3.189
							c-0.558-0.405-1.336-0.961-1.998-1.037c-0.062-0.006-0.096,0.025-0.153,0.039c-0.893,0.209-1.787,0.557-2.688,0.846
							c-6.286,2.013-12.596,4.094-18.859,6.145c-7.275,2.382-14.53,4.712-21.586,6.99c0,2.728,0,5.454,0,8.183
							c16.392-5.298,32.718-10.66,49.088-15.979C112.265,76.509,111.845,75.864,111.455,75.229z"/>
						<path fill-rule="evenodd" clip-rule="evenodd" fill="#FFFFFF" d="M63.289,123.239c0,2.791,0,5.582,0,8.373
							c16.562-5.37,33.107-10.756,49.663-16.132c-0.039-2.585,0.053-5.337,0-7.873c-0.001-0.13,0.069-0.359-0.077-0.461
							C96.336,112.5,79.826,117.882,63.289,123.239z"/>
						<path fill-rule="evenodd" clip-rule="evenodd" fill="#FFFFFF" d="M106.615,142.981c-2.066,0.654-4.119,1.368-6.184,2.036
							c-6.221,2.011-12.448,4.006-18.628,6.031c-5.905,1.933-11.944,3.909-17.822,5.799c-0.249,0.081-0.551,0.09-0.729,0.308
							c-0.266,4.4,0.166,8.258,1.651,11.177c0.716,1.408,1.594,2.669,2.688,3.764c2.23,2.231,4.848,3.726,9.219,3.726
							c6.416,0,12.995,0,19.435,0c2.382,0,4.4,0.07,6.146-0.307c1.843-0.398,3.211-0.983,4.532-1.958
							c2.426-1.795,4.298-4.299,5.262-7.683c0.245-0.861,0.498-1.708,0.615-2.612c0.125-0.97,0.113-1.987,0.153-3.073
							c0.231-6.18-0.093-13.023,0.039-19.243c-0.025,0-0.051,0-0.077,0C110.825,141.62,108.724,142.314,106.615,142.981z"/>
					</g>
					<g>
						<g>
							<path fill-rule="evenodd" clip-rule="evenodd" fill="#FFFFFF" d="M99.247,12.544c0.195-1.221,0.651-3.115,0.115-4.34
								c-0.306-0.697-1.044-1.253-1.959-1.459c-1.188-0.269-2.562-0.139-3.917-0.154c-2.482-0.029-5.569,0.038-8.258,0.038
								c-1.374,0-2.692-0.093-3.879-0.038c-0.964,0.044-1.86,0.136-2.497,0.461c-0.848,0.432-1.334,1.324-1.345,2.574
								c-0.01,1.134,0.239,2.375,0.46,3.609c0.209,1.167,0.375,2.361,0.73,3.38c3.558,0.043,7.416-0.047,9.833-0.038
								c2.479,0.008,6.332,0.068,9.871,0.038C98.809,15.332,99.007,14.044,99.247,12.544z"/>
							<path fill-rule="evenodd" clip-rule="evenodd" fill="#FFFFFF" d="M133.699,59.672c-1.34-1.034-2.638-2.061-3.955-3.111
								c-1.715-1.367-3.463-2.742-5.301-4.147c-1.721-1.316-3.445-2.792-5.262-4.188c-1.502-1.154-3.121-2.393-4.647-3.61
								c-0.381-0.304-0.474-0.508-0.846-0.461c-0.305,0.04-0.708,0.226-1.075,0.347c-2.53,0.829-5.174,1.746-7.605,2.496
								c-2.223,0.687-4.406,1.438-6.53,2.113c-0.749,0.237-1.489,0.446-2.228,0.69c-7.293,2.414-14.6,4.76-21.778,7.106
								c-10.152,3.319-20.409,6.655-30.497,9.948c0.345,0.339,0.726,0.648,1.113,0.961c2.394,1.934,4.931,3.825,7.297,5.723
								c0.402,0.321,0.841,0.616,1.191,0.999c-3.98,5.494-7.959,10.989-11.945,16.477c-0.094,0.029-0.008,0.115,0.038,0.039
								c31.108-10.093,62.164-20.239,93.258-30.343C134.555,60.34,134.122,59.997,133.699,59.672z"/>
							<path fill-rule="evenodd" clip-rule="evenodd" fill="#FFFFFF" d="M22.083,107.761c0.012,0.167,0.202,0.226,0.307,0.308
								c0.933,0.725,1.813,1.473,2.727,2.189c3.166,2.48,6.29,4.933,9.449,7.413c3.896,3.06,7.84,6.259,11.791,9.294
								c0.303,0.233,0.636,0.571,0.846,0.576c0.119,0.004,0.499-0.167,0.807-0.269c0.854-0.282,1.743-0.557,2.497-0.806
								c3.345-1.107,6.714-2.207,9.948-3.265c13.28-4.349,26.702-8.638,39.831-12.983c8.884-2.939,17.785-5.689,26.579-8.641
								c4.415-1.483,8.877-2.822,13.29-4.303c4.425-1.485,8.876-2.889,13.289-4.34c0.022-0.187-0.209-0.227-0.308-0.306
								c-1.95-1.576-3.942-3.072-5.877-4.648c-2.055-1.674-4.183-3.29-6.26-4.954c-4.156-3.331-8.398-6.587-12.56-9.872
								C92.977,84.681,57.558,96.25,22.083,107.761z"/>
							<path fill-rule="evenodd" clip-rule="evenodd" fill="#FFFFFF" d="M132.048,110.258c-0.025,0-0.051,0-0.076,0
								c-30.097,9.784-60.162,19.601-90.262,29.383c0.797,0.758,1.704,1.396,2.573,2.074c6.191,4.821,12.294,9.812,18.514,14.558
								c22.393-7.35,44.863-14.62,67.293-21.932c-0.693-0.701-1.537-1.232-2.304-1.844c-1.947-1.552-3.917-3.089-5.838-4.609
								c-0.391-0.308-0.75-0.674-1.19-0.921c-0.065-0.115-0.177-0.183-0.269-0.269c-0.23-0.017,0.093-0.275-0.192-0.152
								C124.16,121.062,128.165,115.72,132.048,110.258z"/>
						</g>
					</g>
				</g>
				<path fill-rule="evenodd" clip-rule="evenodd" fill="#FFFFFF" d="M112.829,36.561c-0.929,2.413-1.923,4.76-2.881,7.145
					c-0.657,0.201-1.265,0.449-1.959,0.615c1.129-2.765,2.249-5.536,3.342-8.335C111.874,36.133,112.359,36.34,112.829,36.561z"/>
				<path fill-rule="evenodd" clip-rule="evenodd" fill="#FFFFFF" d="M26.063,154.4c0.258,0.058,0.651-0.074,0.96,0
					c0.343,0.083,1.049,0.921,1.344,1.19c3.084,2.824,6.069,5.638,9.142,8.45c0.876,0.803,1.705,1.663,2.573,2.459
					c2.603,2.382,5.223,4.853,7.835,7.258c-0.101-0.764-0.163-1.634-0.269-2.496c-0.033-0.27-0.043-0.601-0.114-0.807
					c-0.105-0.297-0.727-0.714-1.076-1.037c-2.208-2.038-4.246-3.982-6.452-5.992c-0.363-0.329-0.681-0.712-1.038-1.036
					c-2.224-2.025-4.307-3.976-6.491-5.992c-0.71-0.655-1.413-1.312-2.075-1.997c0.623,0.109,1.475-0.146,2.151,0
					c0.276,0.059,0.653,0.524,0.959,0.808c4.557,4.204,9.19,8.595,13.674,12.674c-0.083-0.814-0.19-1.718-0.307-2.574
					c-0.039-0.285-0.03-0.616-0.115-0.844c-0.148-0.397-0.902-0.917-1.306-1.306c-3.044-2.933-6.443-5.898-9.334-8.757
					c0.621,0.115,1.478-0.152,2.152,0c0.26,0.058,0.816,0.675,1.152,0.999c1.118,1.076,2.172,2.029,3.303,3.073
					c8.965,8.273,17.545,16.337,26.502,24.658c1.041,0.967,2.167,2.077,3.304,3.112c0.376,0.342,0.947,0.724,1.076,1.036
					c0.141,0.345,0.176,1.028,0.229,1.46c0.417,3.313,0.779,6.33,1.191,9.679c0.03,0.248,0.013,0.557,0.077,0.73
					c0.082,0.22,0.521,0.508,0.807,0.768c1.899,1.738,3.848,3.579,5.684,5.3c2.196,2.06,4.372,4.081,6.491,6.03
					c4.338-4.009,8.665-8.031,12.983-12.06c0.383-3.357,0.83-6.961,1.267-10.447c0.062-0.485,0.092-1.052,0.231-1.421
					c0.125-0.333,0.685-0.72,1.075-1.075c1.872-1.705,3.646-3.449,5.493-5.147c2.218-2.039,4.394-4.085,6.645-6.145
					c1.491-1.366,2.918-2.801,4.378-4.148c6.04-5.573,11.799-10.964,17.669-16.401c0.729,0,1.459,0,2.189,0
					c0.137,0.097-0.134,0.178-0.23,0.269c-3.404,3.181-6.948,6.523-10.371,9.718c-0.139,1.154-0.299,2.288-0.422,3.457
					c0.038,0.115,0.313-0.205,0.422-0.307c4.637-4.348,9.451-8.803,14.135-13.136c0.73,0,1.459,0,2.189,0
					c0.162-0.007,0,0.059,0,0.115c-5.729,5.269-11.408,10.588-17.092,15.902c-0.111,1.118-0.269,2.188-0.384,3.303
					c1.763-1.538,3.464-3.179,5.185-4.801c5.146-4.852,10.462-9.66,15.632-14.519c0.359,0,0.717,0,1.075,0
					c-0.034,0.333,0.101,0.715,0,1.038c-0.112,0.358-0.893,0.905-1.267,1.267c-2.179,2.1-4.295,4.063-6.529,6.068
					c-0.894,0.802-1.711,1.675-2.573,2.458c-3.59,3.261-7.081,6.539-10.448,9.718c0.743-0.022,1.544-0.038,2.381-0.077
					c0.265-0.013,0.58,0.01,0.807-0.04c0.174-0.038,0.376-0.24,0.614-0.46c2.757-2.544,5.535-5.15,8.22-7.682
					c1.481-1.396,2.992-2.699,4.417-4.072c1.083-1.042,2.231-2,3.303-3.072c0.339-0.339,0.664-0.708,1.075-0.959
					c0.007,0.451,0.037,1.03,0.039,1.498c0,0.153,0.027,0.411,0,0.498c-0.062,0.208-0.645,0.656-0.922,0.922
					c-0.94,0.906-1.965,1.788-2.842,2.65c-0.927,0.913-1.895,1.754-2.842,2.65c-2.815,2.661-5.83,5.344-8.488,7.912
					c0.465-0.047,1.01-0.061,1.575-0.077c0.515-0.015,1.149,0.055,1.574-0.077c0.22-0.068,0.532-0.393,0.807-0.653
					c2.724-2.567,5.442-5.072,8.143-7.604c0.985-0.925,1.962-1.829,2.957-2.689c-0.028,0.751,0.138,1.477-0.114,2.075
					c-0.146,0.344-0.646,0.693-1.077,1.114c-1.102,1.079-2.296,2.185-3.379,3.187c-6.051,5.609-11.984,11.15-18.091,16.824
					c-1.119,1.04-2.296,2.072-3.418,3.15c-1.807,1.735-3.703,3.433-5.608,5.262c-1.07,1.028-2.285,2.015-3.417,3.15
					c-0.33,0.33-0.886,0.973-1.114,1.037c-0.186,0.052-0.496-0.013-0.769,0c-3.031,0.146-6.176,0.312-9.295,0.499
					c-0.483,0.029-1.072-0.032-1.42,0.076c-0.236,0.075-0.604,0.471-0.884,0.73c-4.176,3.88-8.223,7.705-12.368,11.562
					c3.706,3.427,7.337,6.875,11.139,10.37c0.221,0.204,0.497,0.433,0.807,0.73c0.18,0.173,0.767,0.67,0.768,0.729
					c0.001,0.075-0.4,0.414-0.538,0.538c-0.086,0.079-0.289,0.271-0.422,0.385c-0.019,0.015-0.132,0.114-0.154,0.115
					c-0.122,0.005-0.6-0.539-0.806-0.73c-0.767-0.708-1.715-1.594-2.382-2.228c-3.146-2.987-6.451-5.971-9.526-8.834
					c-4.232,3.871-8.394,7.814-12.598,11.714c-0.404-0.299-0.736-0.671-1.152-0.961c2.04-2.031,4.188-3.954,6.299-5.914
					c2.111-1.961,4.19-3.953,6.338-5.877c-2.166-2.098-4.381-4.146-6.607-6.184c-2.217-2.029-4.332-4.171-6.606-6.146
					c-3.444-0.135-7.201-0.406-10.755-0.575c-0.257-0.012-0.54,0.046-0.73,0c-0.262-0.063-0.808-0.693-1.152-1.037
					c-1.093-1.093-2.346-2.119-3.418-3.15c-1.506-1.447-3.102-2.888-4.533-4.186c-0.764-0.695-1.466-1.46-2.228-2.151
					c-5.318-4.831-10.515-9.837-15.824-14.71c-2.241-2.057-4.471-4.152-6.798-6.299c-0.338-0.311-0.714-0.684-1.114-1.076
					c-0.399-0.391-0.942-0.779-1.076-1.075c-0.289-0.642-0.027-1.345-0.153-2.113c0.165-0.003,0.283,0.176,0.384,0.269
					c1.84,1.698,3.671,3.434,5.57,5.185c1.692,1.563,3.426,3.181,5.186,4.839c0.255,0.243,0.563,0.575,0.768,0.653
					c0.333,0.128,1.018,0.059,1.536,0.077c0.599,0.021,1.165,0.02,1.613,0.077c-1.166-1.185-2.443-2.342-3.725-3.533
					c-2.483-2.307-5.078-4.672-7.567-7.067c-0.871-0.838-1.864-1.726-2.843-2.65c-0.291-0.275-0.855-0.657-0.921-0.884
					c-0.057-0.191,0.038-0.743,0.039-0.959c0.002-0.375-0.05-0.7,0-0.999c0.013-0.122,0.196,0.053,0.269,0.115
					c0.262,0.223,0.538,0.537,0.807,0.806c1.031,1.031,2.215,2.006,3.303,3.035c2.151,2.033,4.378,4.105,6.606,6.145
					c1.481,1.357,2.82,2.671,4.379,4.109c0.485,0.448,1.077,1.006,1.651,1.537c0.233,0.214,0.442,0.428,0.576,0.46
					c0.24,0.061,0.563-0.013,0.846,0c0.733,0.037,1.591,0.135,2.343,0.116c-0.354-0.455-0.802-0.833-1.229-1.229
					c-3.02-2.806-6.054-5.654-9.142-8.489c-2.59-2.377-5.196-4.822-7.835-7.297c-0.597-0.561-1.302-1.188-1.958-1.844
					c-0.243-0.243-0.556-0.447-0.615-0.615c-0.1-0.286,0.031-0.646,0-0.96C25.93,154.511,26.016,154.388,26.063,154.4z
					 M52.911,171.224c-0.059-0.436-0.035-0.981-0.154-1.269c-0.06-0.144-0.322-0.334-0.5-0.499c-1.278-1.188-2.401-2.264-3.648-3.38
					c-0.002-0.041-0.049-0.03-0.039,0.039c0.192,1.571,0.369,3.142,0.576,4.955c0.135,1.177,0.321,2.453,0.461,3.649
					c0.053,0.449,0.036,0.963,0.154,1.229c0.061,0.139,0.337,0.342,0.499,0.499c1.276,1.229,2.465,2.28,3.688,3.458
					c0.015,0.039,0.148,0.134,0.115,0C53.698,177.064,53.29,174.043,52.911,171.224z M125.427,168.035
					c-0.276,0.266-0.607,0.6-0.998,0.96c-0.27,0.249-0.89,0.708-0.999,0.998c-0.115,0.308-0.097,0.807-0.153,1.23
					c-0.392,2.916-0.792,5.842-1.152,8.719c0.218-0.062,0.371-0.269,0.538-0.423c1.1-1.022,2.139-2.028,3.226-3.074
					c0.208-0.2,0.455-0.333,0.538-0.537c0.117-0.286,0.104-0.767,0.154-1.191c0.329-2.8,0.739-5.994,1.036-8.642
					c-0.001-0.024-0.005-0.045-0.038-0.039C126.945,166.707,126.161,167.331,125.427,168.035z M57.673,174.527
					c-1.333-1.292-2.698-2.552-4.072-3.802c-0.002-0.041-0.049-0.031-0.039,0.038c0.419,3.293,0.919,6.507,1.229,9.91
					c1.173,1.185,2.514,2.357,3.688,3.496c0.157,0.152,0.304,0.388,0.538,0.422C58.495,181.312,58.071,177.931,57.673,174.527z
					 M120.472,172.645c-0.28,0.258-0.597,0.557-0.999,0.921c-0.217,0.196-0.891,0.789-0.961,0.999
					c-0.049,0.152-0.009,0.432-0.038,0.653c-0.407,3.139-0.835,6.305-1.306,9.372c0.113,0.044,0.199-0.093,0.269-0.153
					c1.068-0.932,1.879-1.805,2.919-2.766c0.361-0.333,0.917-0.683,1.037-1.037c0.108-0.316,0.068-0.834,0.115-1.268
					c0.321-2.916,0.816-5.899,1.076-8.681C121.956,171.333,121.225,171.95,120.472,172.645z M59.748,185.358
					c1.029,0.991,2.101,1.961,3.111,2.919c0.345,0.328,0.657,0.709,1.075,0.96c-0.479-3.373-0.942-6.766-1.382-10.179
					c-1.364-1.273-2.693-2.581-4.11-3.802C58.884,178.617,59.344,181.959,59.748,185.358z M113.328,188.316
					c1.057-0.986,2.057-1.997,3.111-2.958c0.376-3.387,0.923-6.81,1.267-10.102c-1.367,1.258-2.726,2.522-4.071,3.802
					c-0.44,3.414-0.905,6.804-1.383,10.179C112.647,188.973,112.985,188.637,113.328,188.316z M42.463,178.906
					c0.336,0.316,0.696,0.721,0.999,0.806c0.324,0.092,0.784,0.089,1.191,0.115c2.977,0.194,5.887,0.355,8.681,0.652
					c-1.17-1.147-2.388-2.251-3.61-3.38c-0.178-0.163-0.375-0.405-0.538-0.46c-0.267-0.092-0.729-0.066-1.153-0.077
					c-2.733-0.071-5.793-0.307-8.411-0.308C40.54,177.078,41.495,177.993,42.463,178.906z M126.964,176.64
					c-1.375,1.275-2.772,2.528-4.11,3.84c2.759-0.253,5.844-0.508,8.68-0.691c0.465-0.029,0.956,0.034,1.268-0.077
					c0.157-0.055,0.281-0.256,0.461-0.422c1.078-0.994,2.127-1.91,3.111-2.881c0.044-0.043,0.29-0.177,0.115-0.192
					C133.316,176.36,130.097,176.457,126.964,176.64z M67.545,183.706c-1.377-1.286-2.727-2.6-4.15-3.84
					c-0.001-0.041-0.049-0.03-0.038,0.039c0.406,3.332,0.938,6.54,1.229,9.986c1.272,1.263,2.745,2.584,4.033,3.802
					c0.06,0.057,0.188,0.312,0.23,0.153C68.445,190.437,67.964,187.103,67.545,183.706z M109.641,182.746
					c-0.259,0.245-0.885,0.729-0.999,0.999c-0.121,0.288-0.099,0.825-0.153,1.268c-0.369,2.968-0.837,5.961-1.152,8.873
					c1.391-1.24,2.891-2.67,4.264-3.995c0.29-3.462,0.833-6.67,1.229-10.025c-0.002-0.023-0.005-0.045-0.038-0.039
					C111.798,180.777,110.7,181.748,109.641,182.746z M46.304,182.478c0.275,0.253,0.626,0.572,0.999,0.921
					c0.272,0.256,0.735,0.818,1.037,0.923c0.309,0.106,0.802,0.048,1.229,0.076c2.925,0.19,5.947,0.444,8.72,0.691
					c-0.632-0.635-1.33-1.315-2.075-1.998c-0.456-0.418-1.104-1.031-1.613-1.498c-0.201-0.183-0.448-0.42-0.614-0.46
					c-0.228-0.056-0.501,0.012-0.768,0c-2.817-0.124-6.294-0.557-9.026-0.615C44.881,181.117,45.546,181.778,46.304,182.478z
					 M131.649,180.518c-2.891,0.145-6.054,0.503-8.72,0.615c-0.289,0.012-0.546-0.061-0.768,0c-0.13,0.036-0.388,0.29-0.575,0.46
					c-0.549,0.502-1.166,1.088-1.614,1.498c-0.627,0.573-1.301,1.212-1.883,1.768c-0.072,0.069-0.301,0.178-0.153,0.23
					c3.224-0.349,6.655-0.489,9.948-0.768c1.37-1.218,2.661-2.512,4.033-3.727c0-0.056,0.163-0.122,0-0.116
					C131.77,180.457,131.734,180.515,131.649,180.518z M69.58,194.577c1.251,1.233,2.531,2.437,3.841,3.61
					c0.008,0.042,0.063,0.093,0.077,0.038c-0.454-3.374-0.878-6.779-1.306-10.178c-1.187-1.17-2.433-2.279-3.649-3.418
					c-0.089,0-0.206-0.298-0.23-0.116C68.752,187.851,69.179,191.2,69.58,194.577z M104.955,187.125
					c-0.272,0.25-0.847,0.666-0.96,0.96c-0.119,0.312-0.093,0.816-0.153,1.268c-0.383,2.842-0.835,6.326-1.114,8.911
					c0.666-0.58,1.22-1.209,1.959-1.883c0.264-0.24,0.646-0.538,0.999-0.883c0.338-0.332,0.811-0.663,0.922-0.96
					c0.111-0.302,0.102-0.812,0.153-1.229c0.369-3.01,0.735-5.939,1.115-8.834C106.878,185.273,105.95,186.212,104.955,187.125z
					 M52.295,188.047c0.341,0.327,0.716,0.819,1.038,0.922c0.302,0.096,0.778,0.086,1.191,0.116
					c2.987,0.209,5.886,0.388,8.757,0.652c-1.298-1.333-2.864-2.696-4.263-3.995c-3.26-0.107-6.651-0.484-9.872-0.614
					C50.139,186.092,51.236,187.028,52.295,188.047z M126.772,185.128c-2.979,0.148-6.551,0.516-9.603,0.614
					c-1.317,1.219-2.796,2.535-4.071,3.765c-0.065,0.062-0.31,0.189-0.154,0.23c2.847-0.268,5.835-0.452,8.72-0.652
					c0.42-0.03,0.943-0.016,1.229-0.116c0.167-0.06,0.325-0.3,0.5-0.461c1.253-1.156,2.422-2.192,3.572-3.341
					C127.177,185.011,126.802,185.126,126.772,185.128z M56.252,191.772c0.279,0.262,0.644,0.599,1.038,0.96
					c0.359,0.33,0.747,0.825,1.075,0.922c0.332,0.099,0.81,0.044,1.229,0.076c2.966,0.227,5.823,0.401,8.68,0.653
					c0.051-0.131-0.134-0.174-0.192-0.231c-1.017-0.999-1.911-1.803-2.958-2.765c-0.294-0.271-0.776-0.855-1.113-0.961
					c-0.296-0.093-0.782-0.097-1.19-0.115c-2.933-0.128-5.826-0.424-8.681-0.576c-0.024,0.001-0.046,0.006-0.039,0.038
					C54.813,190.391,55.469,191.038,56.252,191.772z M113.29,190.313c-0.405,0.021-0.886,0.022-1.153,0.115
					c-0.168,0.058-0.354,0.292-0.537,0.461c-1.31,1.208-2.515,2.308-3.726,3.495c3.309-0.275,6.663-0.506,10.024-0.729
					c1.382-1.256,2.712-2.563,4.11-3.802c-0.002-0.057,0.162-0.122,0-0.115C119.242,189.915,116.151,190.16,113.29,190.313z
					 M62.013,197.15c0.246,0.227,0.703,0.761,0.96,0.845c0.281,0.09,0.778,0.057,1.19,0.077c2.971,0.141,5.837,0.27,8.642,0.5
					c-1.029-1.073-2.136-2.023-3.226-3.073c-0.387-0.372-0.47-0.413-1.114-0.46c-0.622-0.045-1.281-0.045-1.882-0.077
					c-2.415-0.129-5.137-0.481-7.451-0.499C60.068,195.307,61.025,196.231,62.013,197.15z M107.72,195.038
					c-0.708,0.048-0.704,0.104-1.075,0.46c-1.141,1.096-2.245,1.971-3.265,3.073c3.221-0.263,6.57-0.396,9.871-0.576
					c0.627-0.56,1.28-1.19,1.92-1.806c0.541-0.519,1.208-1.021,1.691-1.536c0.06-0.064,0.251-0.21,0.114-0.229
					C114.016,194.656,110.749,194.828,107.72,195.038z"/>
				<g>
					<g>
						<path fill-rule="evenodd" clip-rule="evenodd" fill="#FFFFFF" d="M57.974,23.27c0.026,0,0.051,0,0.077,0
							c1.444,3.497,2.912,6.973,4.34,10.486c-0.49,0.2-0.917,0.466-1.421,0.652c-1.453-3.527-2.92-7.041-4.378-10.562
							C57.064,23.666,57.524,23.473,57.974,23.27z"/>
						<path fill-rule="evenodd" clip-rule="evenodd" fill="#FFFFFF" d="M117.854,24.153c-1.375,3.336-2.679,6.743-4.072,10.063
							c-0.491-0.187-0.982-0.374-1.459-0.576c0.98-2.502,1.987-4.976,2.997-7.491c0.344-0.858,0.739-1.753,1.114-2.573
							C116.925,23.75,117.4,23.941,117.854,24.153z"/>
						<path fill-rule="evenodd" clip-rule="evenodd" fill="#FFFFFF" d="M31.241,40.784c2.84,2.756,5.664,5.526,8.489,8.297
							c-0.354,0.35-0.699,0.709-1.075,1.037c-0.251-0.041-0.375-0.313-0.539-0.46c-1.244-1.134-2.484-2.411-3.724-3.61
							c-1.432-1.384-2.884-2.771-4.188-4.149C30.501,41.479,30.916,41.176,31.241,40.784z"/>
						<path fill-rule="evenodd" clip-rule="evenodd" fill="#FFFFFF" d="M143.589,41.859c-0.028,0.177-0.258,0.379-0.423,0.538
							c-1.187,1.141-2.438,2.355-3.648,3.534c-1.392,1.358-2.747,2.781-4.149,3.995c-0.378-0.3-0.673-0.684-1.037-0.999
							c0.033-0.188,0.249-0.364,0.423-0.538c2.515-2.516,5.244-5.045,7.758-7.605c0.033-0.007,0.036,0.016,0.038,0.039
							C142.921,41.144,143.247,41.51,143.589,41.859z"/>
						<path fill-rule="evenodd" clip-rule="evenodd" fill="#FFFFFF" d="M52.52,43.166c0.3,0.326,0.516,0.709,0.768,1.075
							c1.716,2.493,3.527,5.111,5.224,7.682c-0.459,0.219-0.859,0.499-1.306,0.73c-0.615-0.631-0.998-1.435-1.499-2.151
							c-1.479-2.119-3.005-4.292-4.455-6.491C51.68,43.734,52.072,43.423,52.52,43.166z"/>
						<path fill-rule="evenodd" clip-rule="evenodd" fill="#FFFFFF" d="M124.153,44.01c-0.884,1.37-1.833,2.674-2.727,4.034
							c-0.432-0.298-0.848-0.611-1.229-0.96c0.83-1.347,1.79-2.563,2.612-3.917C123.299,43.333,123.702,43.75,124.153,44.01z"/>
						<path fill-rule="evenodd" clip-rule="evenodd" fill="#FFFFFF" d="M71.686,56.148c-0.458,0.182-0.978,0.302-1.421,0.5
							c-0.535-1.115-1.015-2.256-1.497-3.418c-0.475-1.143-0.958-2.311-1.382-3.495c0.428-0.224,0.894-0.412,1.306-0.653
							c0.025,0,0.05,0,0.077,0C69.743,51.434,70.734,53.77,71.686,56.148z"/>
						<path fill-rule="evenodd" clip-rule="evenodd" fill="#FFFFFF" d="M53.096,62.217c-0.529,0.174-1.077,0.331-1.575,0.537
							c-0.425-0.355-0.862-0.7-1.19-1.152c0.388-0.302,0.731-0.651,1.075-0.998c0.039,0,0.077,0,0.115,0
							C52.044,61.144,52.634,61.616,53.096,62.217z"/>
						<path fill-rule="evenodd" clip-rule="evenodd" fill="#FFFFFF" d="M162.409,64.136c0.025,0,0.051,0,0.077,0
							c0.184,0.47,0.391,0.917,0.577,1.383c-0.236,0.223-0.556,0.263-0.846,0.384c-4.172,1.75-8.463,3.688-12.751,5.416
							c-0.208-0.495-0.529-0.879-0.691-1.421C153.298,67.958,157.87,66.063,162.409,64.136z"/>
						<path fill-rule="evenodd" clip-rule="evenodd" fill="#FFFFFF" d="M25.249,70.628c-0.139,0.526-0.444,0.887-0.576,1.421
							c-4.002-1.504-7.904-3.106-11.869-4.648c0.205-0.487,0.342-1.042,0.615-1.46C17.344,67.523,21.324,69.048,25.249,70.628z"/>
						<path fill-rule="evenodd" clip-rule="evenodd" fill="#FFFFFF" d="M47.911,79.539c-0.245,0.511-0.614,0.896-0.922,1.345
							c-2.173-0.86-4.351-1.718-6.529-2.573c0.133-0.533,0.399-0.934,0.538-1.46C43.335,77.714,45.578,78.671,47.911,79.539z"/>
						<path fill-rule="evenodd" clip-rule="evenodd" fill="#FFFFFF" d="M35.889,85.109c-0.028,0.573-0.194,1.009-0.269,1.537
							c-3.375-0.619-6.69-1.3-10.064-1.921c0.075-0.54,0.158-1.072,0.307-1.537C29.227,83.806,32.546,84.469,35.889,85.109z"/>
						<path fill-rule="evenodd" clip-rule="evenodd" fill="#FFFFFF" d="M149.772,83.188c0.112,0.062,0.129,0.233,0.154,0.346
							c0.073,0.335,0.128,0.781,0.192,1.19c-1.201,0.221-2.404,0.439-3.572,0.691c-0.587-0.399-1.143-0.83-1.651-1.306
							C146.544,83.827,148.132,83.481,149.772,83.188z"/>
						<path fill-rule="evenodd" clip-rule="evenodd" fill="#FFFFFF" d="M169.169,95.403c0,0.512,0,1.023,0,1.535
							c-2.785,0.017-4.55,0.039-7.605,0.039c-1.451,0-2.724-0.037-4.148,0c-0.809,0.021-2.023,0.003-3.342,0
							c0.076-0.521-0.022-1.052,0.038-1.574C159.638,95.406,164.63,95.323,169.169,95.403z"/>
						<path fill-rule="evenodd" clip-rule="evenodd" fill="#FFFFFF" d="M41.919,95.633c-0.703,0.441-1.526,0.78-2.343,1.19
							c-0.253,0.128-0.521,0.337-0.768,0.384c-0.685,0.132-1.359-0.095-2.189,0c0.079-0.497,0.002-1.15,0.153-1.574
							C38.487,95.633,40.203,95.633,41.919,95.633z"/>
						<path fill-rule="evenodd" clip-rule="evenodd" fill="#FFFFFF" d="M20.103,95.671c0.113,0.492,0.041,1.009,0.038,1.575
							c-1.198-0.042-2.395,0.042-3.188,0.038c-0.728-0.003-2.11-0.012-2.996,0c-1.949,0.028-3.902-0.03-6.491,0
							c0.007-0.7-0.021-1.06-0.039-1.537C12.069,95.675,15.769,95.705,20.103,95.671z"/>
						<path fill-rule="evenodd" clip-rule="evenodd" fill="#FFFFFF" d="M150.464,107.156c0.035,0.14-0.126,0.23-0.193,0.346
							c-0.166,0.285-0.305,0.657-0.269,1.19c-3.651-0.702-7.306-1.399-10.946-2.112c0.133-0.464,0.213-1.305,0.422-1.497
							C143.177,105.735,146.75,106.516,150.464,107.156z"/>
						<path fill-rule="evenodd" clip-rule="evenodd" fill="#FFFFFF" d="M134.524,113.724c-0.118,0.547-0.402,0.93-0.538,1.459
							c-0.919-0.361-1.842-0.719-2.766-1.075c0.246-0.498,0.595-0.891,0.923-1.306C132.979,113.066,133.722,113.423,134.524,113.724
							z"/>
						<path fill-rule="evenodd" clip-rule="evenodd" fill="#FFFFFF" d="M150.195,119.908c4.584,1.727,9.046,3.578,13.597,5.339
							c-0.146,0.521-0.389,0.942-0.538,1.459c-4.636-1.753-9.176-3.602-13.789-5.378
							C149.676,120.823,149.911,120.34,150.195,119.908z"/>
						<path fill-rule="evenodd" clip-rule="evenodd" fill="#FFFFFF" d="M26.401,123.365c-4.123,1.688-8.143,3.482-12.291,5.146
							c-0.154-0.524-0.423-0.934-0.577-1.459c4.084-1.664,8.099-3.4,12.137-5.109C25.978,122.354,26.182,122.866,26.401,123.365z"/>
						<path fill-rule="evenodd" clip-rule="evenodd" fill="#FFFFFF" d="M141.86,129.548c-0.442,0.301-0.854,0.631-0.999,1.229
							c-3.108-1.923-6.124-3.939-9.218-5.876c0.307-0.423,0.59-0.87,0.922-1.268C135.697,125.57,138.72,127.618,141.86,129.548z"/>
						<path fill-rule="evenodd" clip-rule="evenodd" fill="#FFFFFF" d="M42.688,126.206c-2.485,1.612-4.998,3.198-7.452,4.84
							c-0.332-0.411-0.608-0.877-0.883-1.344c2.378-1.489,4.688-3.045,7.068-4.533C41.876,125.48,42.317,125.808,42.688,126.206z"/>
						<path fill-rule="evenodd" clip-rule="evenodd" fill="#FFFFFF" d="M124.153,147.947c-0.612,0.066-1.042,0.314-1.344,0.69
							c-0.306-0.303-0.531-0.681-0.769-1.037c-1.624-2.436-3.379-4.871-4.993-7.375c0.345-0.13,0.994-0.331,1.382-0.461
							c0.221-0.074,0.289,0.21,0.461,0.461c1.543,2.248,3.07,4.495,4.609,6.722C123.737,147.29,124.004,147.594,124.153,147.947z"/>
						<path fill-rule="evenodd" clip-rule="evenodd" fill="#FFFFFF" d="M39.999,143.221c-2.826,2.961-5.842,5.733-8.758,8.604
							c-0.255-0.154-0.555-0.488-0.845-0.805c-0.069-0.077-0.269-0.265-0.269-0.27c-0.003-0.107,0.949-0.947,1.076-1.074
							c2.167-2.167,4.39-4.236,6.53-6.376c0.389-0.39,0.766-0.776,1.152-1.152C39.279,142.482,39.605,142.886,39.999,143.221z"/>
						<path fill-rule="evenodd" clip-rule="evenodd" fill="#FFFFFF" d="M142.59,151.825c-2.785-2.655-5.583-5.299-8.258-8.065
							c0.436-0.294,0.739-0.721,1.153-1.038c2.129,2.07,4.844,4.73,7.144,7.03c0.081,0.081,1.032,0.853,1.037,0.959
							c0.003,0.076-0.476,0.512-0.538,0.576C142.893,151.532,142.741,151.722,142.59,151.825z"/>
						<path fill-rule="evenodd" clip-rule="evenodd" fill="#FFFFFF" d="M61.815,158.278c0.043,0.479,0.057,1.327,0.077,1.959
							c0.021,0.661,0.132,1.365,0.038,1.921c-0.038,0.228-0.203,0.514-0.307,0.768c-0.298,0.729-0.645,1.589-0.922,2.304
							c-0.442-0.109-0.961-0.471-1.421-0.69C60.119,162.445,60.962,160.357,61.815,158.278z"/>
						<path fill-rule="evenodd" clip-rule="evenodd" fill="#FFFFFF" d="M114.282,158.702c0.833,2.021,1.709,4,2.498,6.068
							c-0.471,0.196-0.928,0.403-1.421,0.575c-0.284-0.671-0.608-1.445-0.922-2.188c-0.1-0.237-0.273-0.512-0.307-0.73
							c-0.08-0.499,0.077-1.171,0.077-1.805C114.206,159.965,114.25,159.311,114.282,158.702z"/>
						<path fill-rule="evenodd" clip-rule="evenodd" fill="#FFFFFF" d="M79.214,190.926c0.973,0,1.946,0,2.919,0
							c0,0.487,0,0.973,0,1.459c-1.524,0-3.047,0-4.571,0c0-1.059,0-2.172,0-3.304c0-0.353-0.069-0.767,0-1.075
							c0.095-0.425,1.015-1.139,1.42-1.498c0.354-0.313,1.303-0.967,1.461-1.459c0.116-0.362,0.038-1.174,0.038-1.652
							c0-0.362,0.137-1.159-0.154-1.497c-0.245-0.287-1.032-0.279-1.267-0.039c-0.33,0.337-0.067,1.162-0.154,1.806
							c-0.447,0-0.895,0-1.344,0c0-0.469,0-0.924,0-1.382c0-0.454-0.11-0.982,0-1.383c0.122-0.445,0.835-0.648,1.229-0.692
							c1.885-0.211,3.26,0.119,3.418,1.651c0.05,0.483,0,1.208,0,1.959c0,0.673,0.029,1.604-0.076,1.921
							c-0.2,0.594-0.958,1.084-1.422,1.498c-0.233,0.208-0.502,0.453-0.768,0.691c-0.299,0.269-0.612,0.521-0.692,0.768
							C79.021,189.422,79.344,190,79.214,190.926z"/>
						<path fill-rule="evenodd" clip-rule="evenodd" fill="#FFFFFF" d="M84.899,180.248c0.916-0.127,2.531-0.117,3.111,0.308
							c0.687,0.502,0.692,1.484,0.692,2.918c0,2.3,0,3.341,0,5.607c0,1.544,0.048,2.566-0.883,3.073
							c-0.405,0.22-1.117,0.231-1.768,0.231c-0.917,0-1.671,0.011-2.15-0.422c-0.487-0.439-0.576-1.274-0.576-2.381
							c0-2.043,0-3.958,0-5.916c0-0.843-0.077-2.05,0.269-2.65C83.838,180.59,84.366,180.323,84.899,180.248z M85.13,182.016
							c-0.111,0.263-0.039,0.664-0.039,1.037c0,1.815,0,3.66,0,5.492c0,0.619-0.12,1.795,0.077,2.113c0.243,0.392,1.463,0.38,1.69,0
							c0.214-0.358,0.077-1.599,0.077-2.151c0-1.604,0-2.957,0-4.455c0-0.597,0.144-1.828-0.115-2.151
							c-0.194-0.244-0.805-0.24-1.114-0.192C85.498,181.74,85.231,181.772,85.13,182.016z"/>
						<path fill-rule="evenodd" clip-rule="evenodd" fill="#FFFFFF" d="M91.198,180.21c0.553,0.075,0.879,0.375,1.306,0.576
							c0,3.867,0,7.733,0,11.6c-0.576,0-1.152,0-1.728,0c0-3.252,0-6.503,0-9.757c-0.397,0.051-0.686,0.212-1.076,0.271
							c-0.137-0.351-0.267-0.707-0.384-1.077c0.19-0.191,0.501-0.23,0.73-0.384C90.452,181.167,90.886,180.643,91.198,180.21z"/>
						<path fill-rule="evenodd" clip-rule="evenodd" fill="#FFFFFF" d="M94.156,180.21c1.613,0.025,3.329-0.051,4.878,0.038
							c-0.024,0.475,0.049,1.048-0.039,1.46c-1.063,0-2.125,0-3.188,0c-0.089,1.063-0.013,2.292-0.039,3.418
							c1.912-0.115,3.244,0.073,3.418,1.767c0.052,0.505,0,1.229,0,1.882c0,1.13,0.112,2.075-0.23,2.728
							c-0.458,0.87-1.837,1.047-3.304,0.883c-1.38-0.155-1.742-1.493-1.574-2.842c0.576,0,1.152,0,1.729,0
							c0.026,0.44-0.063,0.811,0.077,1.075c0.19,0.36,1.183,0.438,1.459,0.038c0.239-0.345,0.116-1.145,0.116-1.882
							c0-0.801,0.14-1.823-0.307-2.074c-0.419-0.236-1.052-0.078-1.499-0.078c-0.48,0-0.943,0-1.536,0
							C94.143,184.499,94.066,182.271,94.156,180.21z"/>
						<path fill-rule="evenodd" clip-rule="evenodd" fill="#FFFFFF" d="M77.601,194.613c7.195,0,14.391,0,21.586,0
							c0,0.525,0,1.05,0,1.575c-7.18-0.017-14.399-0.017-21.625,0c0-0.487,0-0.974,0-1.459
							C77.559,194.675,77.557,194.62,77.601,194.613z"/>
						<path fill-rule="evenodd" clip-rule="evenodd" fill="#FFFFFF" d="M34.199,62.332c0.218-0.499,0.563-0.87,0.806-1.345
							c2.479,1.53,4.885,3.129,7.336,4.686c-0.519,0.237-1.107,0.404-1.69,0.576c0.022,0.14,0.249,0.233,0.384,0.345
							c0.111,0.093,0.361,0.3,0.23,0.269C38.927,65.336,36.574,63.822,34.199,62.332z"/>
					</g>
					<path fill-rule="evenodd" clip-rule="evenodd" fill="#FFFFFF" d="M78.112,18.837c0.174,0.628,1.055,0.732,2.035,0.769
						c0.931,0.034,1.93-0.039,2.767-0.039c4.015,0,7.263,0,11.215,0c0.816,0,1.852,0.07,2.765,0.039
						c0.97-0.033,1.894-0.119,2.073-0.769c0.106-0.379-0.018-0.995-0.306-1.19c-0.295-0.199-1.643-0.115-2.382-0.115
						c-1.154,0-1.735,0-2.497,0c-2.045,0-3.353,0-5.031,0c-2.602,0-4.942,0-7.49,0c-0.745,0-1.98-0.111-2.573,0.038
						C78.199,17.694,77.956,18.273,78.112,18.837z"/>
					<path fill-rule="evenodd" clip-rule="evenodd" fill="#FFFFFF" d="M129.158,63.662c-1.763,0.388-3.485,1.126-5.261,1.689
						c-5.285,1.676-10.616,3.434-15.748,5.147c0.534,0.367,1.082,0.708,1.574,1.114c0.5,0.411,0.946,0.87,1.382,1.343
						c6.098-3.094,12.406-5.979,18.321-9.257c0.108,0.049,0.108-0.124,0-0.076C129.281,63.609,129.239,63.643,129.158,63.662z"/>
					<path fill-rule="evenodd" clip-rule="evenodd" fill="#FFFFFF" d="M26.567,105.105c-0.059,0-0.126,0.104,0,0.077
						c3.001-0.899,5.982-1.861,8.949-2.842c8.902-2.945,17.85-5.747,26.771-8.681c-0.01-2.051-0.006-4.24,0-6.261
						c-0.026,0-0.052,0-0.077,0C50.333,93.305,38.365,99.12,26.567,105.105z"/>
					<path fill-rule="evenodd" clip-rule="evenodd" fill="#FFFFFF" d="M113.986,106.757c0,2.061,0,4.123,0,6.184
						c5.967-2.922,11.94-5.874,17.898-8.834c5.96-2.96,11.95-5.835,17.745-8.987c0.008-0.051,0.161-0.071,0-0.077
						C137.893,99.09,125.852,102.836,113.986,106.757z"/>
					<path fill-rule="evenodd" clip-rule="evenodd" fill="#FFFFFF" d="M45.042,137.484c5.796-1.834,11.532-3.729,17.246-5.646
						c-0.087-0.807,0.018-2.009-0.077-2.919C56.512,131.798,50.707,134.572,45.042,137.484z"/>
				</g>
			</g>
		</g>
		<g>
			<g>
				<path fill-rule="evenodd" clip-rule="evenodd" fill="#231F20" d="M136.09,107.271c0.134,0.037-0.059,0.187-0.115,0.269
					c-0.457,0.669-0.993,1.382-1.498,2.075c-1.143,1.563-2.25,3.165-3.418,4.761c-2.845,3.89-5.771,7.924-8.604,11.832
					c0.151,0.271,0.466,0.395,0.691,0.576c1.547,1.238,3.196,2.546,4.801,3.802c1.378,1.077,2.705,2.2,4.11,3.265
					c0.449,0.339,0.934,0.654,1.306,1.075c-6.326,2.072-12.651,4.146-19.013,6.184c-0.124,6.674,0.199,13.697-0.077,20.242
					c-0.265,6.268-3.045,10.692-6.836,13.443c-1.341,0.973-2.836,1.716-4.725,2.036c-1.879,0.317-3.882,0.346-6.337,0.346
					c-4.457,0-9.084,0-13.521,0c-2.275,0-4.513,0.024-6.606-0.078c-2.213-0.105-3.944-0.466-5.608-1.151
					c-0.735-0.303-1.429-0.778-2.112-1.268c-1.945-1.391-3.519-3.295-4.647-5.492c-0.775-1.51-1.326-3.175-1.651-5.109
					c-0.33-1.959-0.302-4.103-0.308-6.375c0.021-0.187-0.201-0.225-0.307-0.308c-5.771-4.447-11.51-9.169-17.322-13.635
					c-1.734-1.334-3.404-2.717-5.148-4.072c-0.115-0.09-0.228-0.21-0.345-0.307c-0.094-0.078-0.31-0.132-0.269-0.308
					c7.697-3.953,15.447-7.854,23.276-11.675c0-0.986,0-1.973,0-2.958c-4.637,1.481-9.256,3.033-14.02,4.532
					c-0.32,0.101-0.732,0.324-0.922,0.307c-0.193-0.016-0.604-0.407-0.921-0.653c-1.525-1.179-2.926-2.267-4.417-3.457
					c-1.172-0.936-2.303-1.842-3.495-2.765c-0.584-0.452-1.197-0.884-1.767-1.344c-1.171-0.947-2.356-1.832-3.495-2.765
					c-2.306-1.891-4.666-3.745-6.991-5.531c-1.184-0.909-2.329-1.869-3.496-2.765c-1.19-0.915-2.357-1.825-3.456-2.804
					c13.614-6.793,27.263-13.553,40.905-20.318c-7.415,2.379-14.814,4.775-22.162,7.221c-0.14-0.028,0.057-0.185,0.115-0.269
					c1.022-1.491,2.178-3.023,3.265-4.533c3.452-4.79,7.024-9.651,10.486-14.441c-0.403-0.401-0.86-0.766-1.306-1.114
					c-2.236-1.746-4.524-3.533-6.76-5.338c-0.879-0.711-1.845-1.351-2.65-2.151c12.051-3.875,24.025-7.829,36.066-11.715
					c0-3.035,0.001-6.271,0-9.18c-0.958-0.415-1.8-0.893-2.573-1.498c-0.25-0.196-0.486-0.423-0.768-0.576
					c-0.092,0.645,0.248,2.277-0.308,2.65c-0.332,0.223-0.82,0.097-0.998-0.115c-0.295-0.352-0.188-1.825-0.192-2.344
					c-0.008-0.905,0.021-1.694,0.039-2.419c0.022-0.959,0.204-1.75,0.384-2.536c0.182-0.8,0.356-1.574,0.538-2.342
					c0.773-3.278,0.98-6.73,4.455-7.183c-0.038-1.126,0.035-2.084,0.039-3.073c0.005-1.338-0.835-2.152-0.691-3.648
					c0.074-0.771,0.4-1.417,0.845-1.92c-0.279-0.277-0.635-0.484-0.807-0.922c-0.324-0.827,0.038-1.759,0.461-2.305
					c-0.285-1.072-0.507-2.208-0.73-3.342c-1.432-0.08-1.465,0.927-1.767,2.151c-1.003,4.065-1.917,8.131-2.88,12.214
					c-0.259,1.095-0.596,2.27-0.845,3.495c-0.247,1.21-0.456,2.509-0.308,3.918c0.204,1.932,0.614,3.611,0.999,5.492
					c0.092,0.45,0.334,1.577-0.077,1.689c-0.424,0.117-0.816-0.727-1.037-1.229c-0.283-0.642-0.448-1.222-0.576-1.69
					c-0.353-1.284-0.587-2.448-0.73-3.764c-0.325-2.997,0.417-5.415,0.96-7.797c0.136-0.597,0.313-1.191,0.461-1.806
					c0.869-3.594,1.734-7.214,2.574-10.908c0.397-1.746,0.9-3.168,2.957-3.265c-0.146-1.572-0.371-3.211,0.115-4.455
					c0.433-1.106,1.355-1.972,2.612-2.343c1.283-0.38,2.945-0.308,4.647-0.308c3.35,0,6.52,0,9.91,0
					c1.704,0,3.357-0.065,4.647,0.308c1.263,0.364,2.214,1.214,2.65,2.304c0.497,1.243,0.258,2.893,0.116,4.455
					c1.07,0.12,1.781,0.521,2.266,1.307c0.309,0.5,0.443,1.09,0.614,1.806c0.93,3.898,1.891,7.876,2.805,11.792
					c0.597,2.561,1.481,5.032,1.343,8.296c-0.059,1.421-0.365,2.778-0.73,4.148c-0.161,0.609-0.307,1.09-0.613,1.805
					c-0.18,0.417-0.611,1.472-1.076,1.344c-0.408-0.111-0.173-1.268-0.077-1.728c0.378-1.808,0.795-3.522,0.999-5.454
					c0.153-1.441-0.095-2.691-0.345-3.918c-0.72-3.532-1.62-6.953-2.458-10.486c-0.396-1.669-0.787-3.452-1.229-5.262
					c-0.285-1.166-0.327-2.157-1.729-2.113c-0.14,0.253-0.137,0.561-0.191,0.845c-0.149,0.772-0.368,1.67-0.576,2.458
					c0.344,0.525,0.683,1.216,0.538,1.997c-0.118,0.631-0.499,1.007-0.96,1.269c0.667,0.675,0.999,2.029,0.729,3.341
					c-0.099,0.48-0.334,0.952-0.461,1.498c-0.277,1.207,0.013,2.404-0.038,3.765c1.605,0.301,2.64,1.073,3.226,2.419
					c0.568,1.305,0.844,2.936,1.191,4.456c0.168,0.735,0.361,1.523,0.538,2.304c0.174,0.777,0.396,1.566,0.46,2.344
					c0.136,1.653-0.069,3.231,0,4.763c0.389-0.026,0.751-0.193,1.114-0.308c2.583-0.821,5.256-1.712,7.875-2.573
					c0.319,0.112,0.541,0.373,0.806,0.576c2.755,2.106,5.553,4.343,8.296,6.53c1.007,0.801,2.036,1.546,3.035,2.343
					c3,2.39,6.037,4.722,9.026,7.145c0.499,0.404,0.995,0.802,1.499,1.19c0.493,0.378,0.999,0.736,1.421,1.191
					c-8.554,4.185-17.034,8.444-25.581,12.636c0.399,0.804,0.878,1.528,1.344,2.267c4.213-1.391,8.558-2.798,12.868-4.225
					c0.259-0.086,0.589-0.205,0.922-0.308c0.304-0.094,0.763-0.276,0.921-0.269c0.251,0.014,0.598,0.4,0.922,0.654
					c6.755,5.29,13.556,10.57,20.203,15.94c1.749,1.412,3.535,2.751,5.3,4.148c0.436,0.343,0.85,0.673,1.306,1.037
					c0.107,0.084,0.303,0.218,0.308,0.384c-13.658,6.737-27.268,13.523-40.944,20.242c1.71-0.44,3.369-1.076,5.071-1.613
					C125.891,110.629,131.018,108.907,136.09,107.271z M99.14,13.284c0.208-1.193,0.472-2.419,0.461-3.649
					c-0.004-0.428-0.044-0.912-0.192-1.306c-0.729-1.962-3.534-1.717-5.8-1.729c-2.451-0.013-5.664,0.039-8.335,0.039
					c-1.42,0-2.766-0.091-3.917-0.039c-0.545,0.025-1.222,0.057-1.652,0.153c-0.924,0.208-1.63,0.727-1.959,1.537
					c-0.518,1.275-0.103,2.958,0.115,4.302c0.228,1.402,0.456,2.81,0.846,4.032c3.558,0.043,7.416-0.047,9.833-0.038
					c2.479,0.009,6.331,0.068,9.871,0.038C98.754,15.588,98.938,14.443,99.14,13.284z M78.092,18.815
					c0.235,1.143,3.168,0.768,4.763,0.768c3.981,0,7.427,0,11.293,0c0.816,0,1.833,0.071,2.765,0.038
					c0.958-0.033,1.895-0.119,2.074-0.768c0.125-0.448-0.067-1.028-0.306-1.191c-0.3-0.203-1.616-0.116-2.381-0.116
					c-1.165,0-1.744,0-2.498,0c-2.041,0-3.359,0-5.032,0c-2.498,0-4.995,0-7.489,0c-0.752,0-1.964-0.115-2.573,0.039
					C78.265,17.697,77.972,18.229,78.092,18.815z M97.489,44.548c0.423-0.084,0.873-0.136,1.152-0.268
					c0.366-0.174,0.765-0.882,0.999-1.268c0.331-0.546,0.632-1.008,0.729-1.575c0.13-0.744-0.148-1.385-0.422-2.112
					c-0.217-0.576-0.414-1.18-0.576-1.729c-0.877-2.981-1.075-6.54-1.075-10.332c0-0.748-0.048-1.526,0.076-2.228
					c0.118-0.669,0.526-1.196,0.576-1.959c0.044-0.672-0.083-1.063-0.268-1.421c-0.643-1.239-2.354-1.076-4.225-1.076
					c-3.307,0-6.241,0-9.411,0c-1.566,0-3.174-0.126-4.723,0c-1.338,0.109-2.298,0.929-2.152,2.574
					c0.068,0.751,0.463,1.236,0.577,1.958c0.215,1.371,0.038,2.959,0.038,4.417c0,3.812-0.583,7.062-1.613,9.795
					c-0.23,0.613-0.477,1.237-0.46,1.844c0.035,1.338,1.05,2.297,1.613,2.996C83.768,45.614,91.719,45.709,97.489,44.548z
					 M74.481,36.022c-0.313,1.337-0.598,2.401-0.883,3.688c-0.105,0.469-0.211,1.138-0.154,1.382
					c0.044,0.19,0.417,0.503,0.576,0.653c0.672,0.636,1.368,1.184,2.074,1.537c-0.48-0.451-0.754-1.172-0.769-1.998
					c-0.03-1.851,0.897-3.212,1.345-4.993c0.463-1.847,0.489-3.625,0.691-5.646C75.157,31.071,75.027,33.687,74.481,36.022z
					 M101.023,38.173c0.255,0.746,0.624,1.457,0.69,2.228c0.078,0.892-0.108,1.807-0.422,2.458
					c-0.104,0.216-0.303,0.362-0.346,0.577c0.668-0.459,1.442-1.055,2.113-1.69c0.183-0.175,0.57-0.465,0.615-0.653
					c0.06-0.252-0.054-0.879-0.154-1.344c-0.095-0.445-0.229-0.883-0.308-1.23c-0.375-1.65-0.703-3.354-1.114-4.955
					c-0.385-1.501-0.908-2.619-2.304-2.919C99.807,33.529,100.286,36.027,101.023,38.173z M103.673,43.282c-0.026,0-0.052,0-0.077,0
					c-0.911,0.842-1.942,1.565-3.265,1.997c0.054,0.471,0.038,1.013,0.038,1.537c1.174-0.325,2.275-0.722,3.419-1.076
					C103.575,45.119,103.701,43.958,103.673,43.282z M133.709,59.682c-1.342-1.033-2.64-2.061-3.957-3.111
					c-1.715-1.366-3.463-2.741-5.301-4.147c-1.72-1.316-3.445-2.791-5.262-4.188c-1.502-1.154-3.121-2.393-4.647-3.61
					c-0.378-0.301-0.475-0.507-0.845-0.46c-0.304,0.038-0.708,0.225-1.075,0.346c-2.531,0.828-5.174,1.746-7.605,2.496
					c-2.221,0.687-4.406,1.438-6.529,2.113c-0.75,0.238-1.489,0.446-2.228,0.691c-7.294,2.414-14.6,4.759-21.778,7.106
					c-10.154,3.318-20.41,6.655-30.497,9.947c0.348,0.334,0.727,0.649,1.113,0.961c2.394,1.933,4.93,3.825,7.298,5.723
					c0.401,0.321,0.84,0.617,1.191,0.999c-3.98,5.494-7.959,10.99-11.945,16.477c-0.094,0.029-0.008,0.115,0.038,0.039
					c31.108-10.093,62.163-20.238,93.258-30.343C134.562,60.35,134.131,60.007,133.709,59.682z M78.361,45.817
					c-0.014,2.843,0.009,5.878,0,8.833c6.589-2.123,13.268-4.231,19.819-6.376c0.192-0.063,0.444-0.091,0.577-0.269
					c0.108-0.713-0.01-1.525,0-2.266c-5.884,1.452-14.494,1.384-20.357-0.039C78.354,45.707,78.357,45.762,78.361,45.817z
					 M129.177,63.676c-1.765,0.388-3.486,1.127-5.263,1.69c-5.284,1.674-10.616,3.433-15.748,5.147
					c0.537,0.365,1.082,0.708,1.575,1.114c0.5,0.411,0.947,0.87,1.384,1.345c6.098-3.095,12.405-5.981,18.32-9.257
					c0.107,0.048,0.107-0.125,0-0.076C129.299,63.624,129.257,63.659,129.177,63.676z M108.627,72.05
					c-0.563-0.41-1.333-0.96-1.997-1.037c-0.062-0.007-0.096,0.024-0.154,0.038c-0.892,0.21-1.787,0.557-2.688,0.846
					c-6.285,2.014-12.595,4.095-18.859,6.146c-7.274,2.382-14.529,4.711-21.586,6.99c0,2.728,0,5.455,0,8.182
					c16.392-5.296,32.719-10.659,49.087-15.979C111.741,75.206,110.315,73.277,108.627,72.05z M22.091,107.771
					c0.012,0.167,0.202,0.225,0.307,0.307c0.932,0.725,1.813,1.473,2.728,2.189c3.166,2.479,6.29,4.933,9.448,7.413
					c3.896,3.06,7.84,6.26,11.792,9.295c0.303,0.232,0.635,0.57,0.846,0.576c0.119,0.003,0.499-0.167,0.805-0.269
					c0.856-0.284,1.744-0.558,2.497-0.807c3.345-1.106,6.715-2.206,9.948-3.264c13.28-4.349,26.703-8.637,39.831-12.982
					c4.431-1.467,8.865-2.88,13.29-4.303c13.301-4.276,26.62-8.713,39.869-12.982c0.022-0.187-0.209-0.228-0.307-0.308
					c-0.921-0.744-1.82-1.453-2.728-2.189c-3.11-2.522-6.308-4.899-9.41-7.412c-2.065-1.674-4.178-3.295-6.261-4.955
					c-2.085-1.662-4.215-3.273-6.299-4.917C92.985,84.691,57.566,96.258,22.091,107.771z M26.585,105.121
					c-0.059,0-0.127,0.104,0,0.077c3.002-0.899,5.984-1.86,8.949-2.842c8.902-2.947,17.851-5.747,26.771-8.68
					c-0.015-2.057-0.004-4.233,0-6.261c-0.026,0-0.051,0-0.077,0C50.351,93.319,38.383,99.135,26.585,105.121z M114.005,106.772
					c0,2.062,0,4.123,0,6.184c5.963-2.928,11.943-5.867,17.899-8.834c5.956-2.969,11.952-5.832,17.745-8.987
					c0.007-0.052,0.16-0.072,0-0.077C137.911,99.106,125.87,102.851,114.005,106.772z M63.304,123.25c0,2.792,0,5.582,0,8.373
					c16.562-5.37,33.106-10.756,49.663-16.131c-0.039-2.586,0.053-5.338,0-7.875c-0.002-0.128,0.069-0.359-0.077-0.461
					C96.352,112.51,79.841,117.893,63.304,123.25z M120.611,126.054c0.375-0.521,0.739-1.039,1.114-1.538
					c1.012-1.344,2.001-2.685,2.958-4.033c2.437-3.437,4.961-6.797,7.375-10.216c-0.026,0-0.051,0-0.077,0
					c-30.098,9.784-60.162,19.601-90.263,29.383c0.797,0.758,1.704,1.396,2.574,2.074c6.19,4.821,12.293,9.812,18.513,14.558
					c22.376-7.353,44.857-14.602,67.255-21.932c0.039-0.119-0.129-0.215-0.192-0.269c-0.094-0.079-0.214-0.158-0.307-0.23
					c-3.029-2.358-6.058-4.777-9.065-7.105c-0.197-0.052,0.053-0.296-0.153-0.192C120.346,126.357,120.503,126.204,120.611,126.054z
					 M45.06,137.499c5.796-1.834,11.532-3.729,17.246-5.646c-0.087-0.913,0.019-2.016-0.077-2.919
					C56.53,131.813,50.725,134.586,45.06,137.499z M106.63,142.991c-2.067,0.655-4.119,1.369-6.184,2.036
					c-6.222,2.012-12.447,4.006-18.628,6.031c-5.906,1.933-11.944,3.91-17.822,5.799c-0.249,0.08-0.551,0.09-0.73,0.308
					c-0.265,4.402,0.167,8.258,1.652,11.178c0.716,1.408,1.594,2.668,2.689,3.764c2.23,2.229,4.847,3.725,9.218,3.725
					c6.415,0,12.993,0,19.435,0c2.385,0,4.375,0.076,6.145-0.307c1.924-0.416,3.224-0.991,4.532-1.959
					c2.419-1.789,4.324-4.299,5.262-7.682c0.24-0.865,0.499-1.716,0.616-2.612c0.126-0.981,0.112-1.986,0.153-3.074
					c0.23-6.18-0.094-13.021,0.039-19.243c-0.026,0-0.051,0-0.077,0C110.84,141.63,108.739,142.325,106.63,142.991z"/>
			</g>
			<g>
				<path fill-rule="evenodd" clip-rule="evenodd" fill="#231F20" d="M108.757,53.614c0.71-0.023,1.264-0.525,2.112-0.538
					c0.161,1.053-0.674,1.464-1.383,1.881c-0.539,0.318-1.116,0.553-1.612,0.769c-0.288,1.258,0.019,2.58,1.382,2.42
					c0.438-0.052,0.73-0.397,1.075-0.538c-0.171,0.825-0.72,1.709-1.498,2.228c-0.601,0.4-1.417,0.734-2.228,0.729
					c-0.417-0.002-1.001-0.107-1.307-0.385c-0.27-0.245-0.516-0.908-0.614-1.382c-0.113-0.543-0.154-1.189-0.154-1.844
					c-0.702,0.212-1.383-0.08-2.035,0.077c-0.245,0.059-0.627,0.431-0.883,0.577c-0.347,0.196-0.651,0.322-0.922,0.499
					c1.096,0.809,2.109,1.529,2.113,3.227c0,1.008-0.361,1.832-1.038,2.42c-0.599,0.521-1.492,0.989-2.458,0.96
					c-0.68-0.021-1.228-0.445-1.535-0.922c-0.706-1.09-0.581-3.078-0.231-4.455c-0.576-0.02-1.248,0.142-1.69-0.078
					c-0.152-0.467-0.008-1.01,0.192-1.344c0.651,0.024,1.248-0.006,1.652-0.23c0.329-1.106,0.78-2.667,1.344-3.726
					c0.278-0.523,0.538-1.136,1.152-1.229c0.449-0.068,1.07,0.099,1.267,0.384c0.362,0.523-0.081,1.449-0.269,1.882
					c-0.266,0.612-0.504,1.069-0.73,1.613c0.569-0.149,1.318-0.45,1.921-0.691c0.094-0.137,0.15-0.31,0.231-0.46
					c0.82-0.038,1.52-0.196,2.074-0.5c0.24-0.618,0.541-1.417,0.883-2.188c0.314-0.708,0.69-1.466,1.19-1.844
					c0.294-0.221,0.65-0.346,1.191-0.307c0.333,0.024,0.945,0.076,1.153,0.307c0.311,0.347,0.115,1.001,0,1.383
					C108.952,52.808,108.784,53.096,108.757,53.614z M99.809,59.414c-0.209,0.926-0.031,1.896,0.306,2.496
					c0.201,0.357,0.465,0.749,0.884,0.808c0.292-0.36,0.311-0.903,0.269-1.344c-0.091-0.977-0.759-1.682-1.422-2.036
					c-0.001-0.024-0.005-0.046-0.037-0.038C99.809,59.338,99.809,59.376,99.809,59.414z"/>
				<path fill-rule="evenodd" clip-rule="evenodd" fill="#231F20" d="M96.16,62.41c0,0.222-0.196,0.434-0.347,0.653
					c-0.624,0.906-1.979,2.114-3.456,1.612c-0.229-0.077-0.37-0.219-0.615-0.345c-0.714,0.399-1.254,0.871-1.959,1.267
					c-0.66,0.373-1.445,0.827-2.419,0.806c-1.107-0.021-2.026-0.711-1.805-1.919c0.212-1.162,0.899-2.187,1.843-2.996
					c0.918-0.788,2.083-1.433,3.265-1.536c0.3-0.027,0.736,0.079,0.96,0.038c0.557-0.101,0.749-0.944,1.536-1.036
					c0.438-0.052,1.393,0.063,1.536,0.384c0.141,0.311-0.287,1.137-0.421,1.42c-0.191,0.401-0.567,0.809-0.461,1.421
					c0.074,0.43,0.572,0.722,1.038,0.729C95.355,62.918,95.758,62.583,96.16,62.41z M89.284,61.642
					c-0.702,0.655-1.098,1.585-0.537,2.497c0.47,0.248,1.05,0.064,1.459-0.115c0.341-0.149,0.868-0.436,0.999-0.807
					c0.232-0.663-0.06-1.576,0-2.381C90.421,60.859,89.817,61.145,89.284,61.642z"/>
				<path fill-rule="evenodd" clip-rule="evenodd" fill="#231F20" d="M109.142,59.99c-0.018,0.228-0.21,0.371-0.346,0.538
					c-2.067,2.556-5.112,4.455-8.219,5.993c-3.277,1.619-6.807,3.259-10.717,4.455c-1.899,0.581-3.917,1.094-5.991,1.613
					c-4.134,1.033-8.314,1.596-12.637,2.535c-0.992,0.215-2.03,0.475-3.035,0.768c-1.042,0.306-2.073,0.621-2.957,1
					c0.911-0.07,1.302,0.595,0.999,1.498c-0.25,0.742-1.121,1.46-2.036,1.921c-0.684,0.344-2.543,0.927-3.073,0.23
					c-0.657-0.863,0.695-2.328,1.229-2.804c0.849-0.757,1.633-1.26,2.497-1.805c1.845-1.165,3.794-1.913,5.991-2.612
					c2.218-0.706,4.642-1.079,7.106-1.498c2.46-0.418,4.955-0.844,7.221-1.383c4.591-1.092,9.053-2.47,13.059-4.148
					C102.308,64.584,106.223,62.75,109.142,59.99z"/>
				<path fill-rule="evenodd" clip-rule="evenodd" fill="#231F20" d="M71.846,62.986c-0.979,0.168-1.728,0.741-2.343,1.422
					c-0.678,0.749-1.338,1.652-1.229,3.034c0.113,1.435,1.181,2.201,2.958,2.074c1.569-0.112,3.683-1.199,4.61-1.997
					c0.207-0.179,0.449-0.459,0.652-0.691c0.043-0.049,0.083-0.236,0.193-0.153c0.016,0.948-0.17,1.412-0.5,1.921
					c-0.414,0.635-1.1,1.207-1.767,1.688c-0.67,0.486-1.41,0.854-2.227,1.191c-1.415,0.586-3.999,1.268-5.763,0.691
					c-0.282-0.092-0.697-0.354-0.921-0.538c-0.736-0.604-1.049-1.441-0.959-2.688c0.084-1.182,0.636-2.248,1.19-3.035
					c0.587-0.834,1.294-1.497,2.113-2.112c1.737-1.306,3.7-2.244,6.03-2.382c1.088-0.063,2.609,0.271,2.036,1.652
					c-0.271,0.649-1.064,1.122-1.768,1.459c-0.429,0.206-0.9,0.416-1.267,0.461c-0.722,0.088-1.419-0.11-1.575-0.539
					C71.082,63.825,71.511,63.352,71.846,62.986z"/>
				<path fill-rule="evenodd" clip-rule="evenodd" fill="#231F20" d="M76.302,65.56c0.483-1.371,2.858-2.796,4.417-1.574
					c0.162,0.004,0.27-0.167,0.384-0.269c0.823-0.74,1.875-1.534,3.188-1.767c0.399-0.071,1.339,0.043,1.421,0.5
					c0.068,0.373-0.339,0.872-0.538,1.075c-0.366,0.377-1.389,0.979-2.151,0.999c-0.259,0.007-0.594-0.132-0.844-0.077
					c-0.354,0.077-0.7,0.603-0.769,1.076c-0.11,0.756,0.197,1.589,0.077,2.266c-0.114,0.642-0.603,1.142-1.421,1.229
					c-0.429,0.046-1.217-0.008-1.421-0.268c-0.452-0.577,0.438-1.817,0.345-2.458c-0.059-0.419-0.57-0.916-1.075-0.999
					c-0.232-0.038-0.574-0.032-0.806,0C76.793,65.334,76.603,65.536,76.302,65.56z"/>
				<path fill-rule="evenodd" clip-rule="evenodd" fill="#231F20" d="M81.872,134.428c1.036,0.135,2.113,0.419,2.188,1.42
					c0.053,0.692-0.508,1.596-0.959,2.112c-0.504,0.576-1.135,1.022-1.69,1.383c-0.636,0.413-1.351,0.773-2.075,0.999
					c-1.015,0.316-2.263,0.517-3.457,0.345c-0.328,0.365-0.428,0.873-0.845,1.076c-0.618,0.301-1.63,0.075-2.113-0.231
					c-0.36-0.228-0.667-0.642-0.614-1.343c0.092-1.22,1.114-2.673,1.114-3.918c0-0.536-0.289-0.972-0.577-1.307
					c-0.187-0.216-0.46-0.464-0.614-0.537c-0.536-0.251-1.257-0.109-1.767,0.23c-0.015-0.188,0.185-0.281,0.308-0.423
					c0.419-0.487,0.934-0.937,1.613-1.305c0.499-0.272,1.052-0.541,1.575-0.577c0.765-0.054,1.33,0.27,1.883,0.614
					c0.667-0.591,1.371-1.223,2.189-1.728c0.783-0.486,1.734-0.992,2.841-1.076c1.131-0.087,2.249,0.166,2.42,1.152
					C83.505,132.542,82.352,133.689,81.872,134.428z M80.066,134.004c0.367-0.813-0.144-1.356-1.038-1.267
					c-0.5,0.051-0.91,0.247-1.459,0.539c-0.425,0.225-1.06,0.505-1.152,0.882c-0.165,0.676,0.413,0.828,0.307,1.537
					C77.746,135.336,79.621,134.988,80.066,134.004z M76.993,139.42c1.306-0.093,2.713-1.076,3.226-1.92
					c0.358-0.589,0.203-1.306-0.537-1.267c-0.804,0.041-1.806,0.979-2.497,1.075c-0.165,0.022-0.379-0.017-0.538,0
					c-0.081,0.738-0.274,1.364-0.385,2.075C76.469,139.392,76.738,139.439,76.993,139.42z"/>
				<path fill-rule="evenodd" clip-rule="evenodd" fill="#231F20" d="M92.549,134.082c-0.475-1.886,1.114-3.238,2.228-4.033
					c1.148-0.819,2.536-1.461,4.11-1.421c0.538,0.014,1.001,0.142,1.382,0.384c0.58-1.253,2.868-2.696,4.417-1.42
					c1.019-0.704,2.006-1.923,3.573-2.075c0.483-0.046,1.344,0.061,1.42,0.539c0.086,0.534-0.696,1.227-1.037,1.46
					c-0.456,0.311-1.14,0.559-1.69,0.575c-0.291,0.01-0.634-0.099-0.883-0.038c-0.403,0.098-0.604,0.647-0.653,1.191
					c-0.084,0.915,0.221,2.007-0.154,2.65c-0.127,0.219-0.382,0.455-0.576,0.537c-0.596,0.254-1.646,0.077-2.112-0.192
					c-0.26-0.988,0.649-1.819,0.192-2.727c-0.351-0.694-1.467-0.819-2.343-0.423c0.477,0.818,0.024,1.584-0.461,2.113
					c-0.869,0.95-2.424,1.65-4.071,1.805c0.066,0.308,0.476,0.311,0.769,0.308c0.757-0.008,1.622-0.349,2.304-0.692
					c0.694-0.348,1.355-0.772,1.844-1.153c-0.078,0.337-0.329,0.687-0.576,1.038c-0.74,1.05-1.711,1.74-3.074,2.266
					c-1.549,0.599-4.053,0.963-4.569-0.653c-0.816,1.52-1.922,2.6-3.688,3.265c-0.751,0.284-1.586,0.552-2.535,0.538
					c-1.343-0.019-2.342-0.626-2.228-2.112c0.019-0.234,0.104-0.603,0.23-0.883c0.431-0.948,1.47-1.819,2.536-2.497
					c1.044-0.663,2.375-1.266,3.878-1.151c0.818,0.062,1.764,0.367,1.538,1.535c-0.126,0.654-1.082,1.444-1.613,1.806
					c-0.952,0.648-1.944,0.858-3.149,1.037c0.141,0.312,0.623,0.299,0.999,0.269c1.511-0.124,2.864-1.12,3.918-1.767
					C92.506,134.141,92.541,134.125,92.549,134.082z M95.353,132.199c0.492-0.007,0.976-0.132,1.345-0.345
					c0.525-0.305,1.272-1.067,1.036-1.806C96.448,129.393,94.306,131.371,95.353,132.199z M88.708,132.545
					c-0.899,0.101-2.102,1.002-1.921,2.074c0.353,0.437,1.286,0.116,1.805-0.27c0.174-0.128,0.346-0.325,0.5-0.499
					c0.296-0.334,0.494-0.668,0.346-1.152C89.252,132.524,88.946,132.519,88.708,132.545z"/>
				<path fill-rule="evenodd" clip-rule="evenodd" fill="#231F20" d="M109.756,131.624c0.043,0.007,0.021,0.039,0,0.039
					c-1.686,2.521-4.271,4.296-7.029,5.8c-2.741,1.495-5.717,2.888-8.949,3.879c-3.246,0.995-6.834,1.746-10.486,2.343
					c-3.65,0.596-7.406,0.937-10.792,1.997c0.912,0.063,1.239,0.771,0.844,1.651c-0.413,0.923-1.876,1.699-3.072,1.959
					c-0.87,0.188-2.045,0.19-2.266-0.423c-0.33-0.915,0.75-1.883,1.306-2.343c0.731-0.605,1.462-1.027,2.227-1.46
					c1.606-0.909,3.333-1.649,5.223-2.15c1.949-0.517,4.024-0.949,6.146-1.229c2.162-0.286,4.353-0.546,6.414-0.96
					c2.015-0.403,3.969-0.996,5.877-1.536c1.923-0.544,3.726-1.2,5.416-1.959c1.721-0.773,3.407-1.5,4.955-2.419
					C107.125,133.887,108.519,132.838,109.756,131.624z"/>
				<g>
					<path fill-rule="evenodd" clip-rule="evenodd" fill="#231F20" d="M99.225,157.833c0,0.526,0,1.051,0,1.576
						c-7.157,0-14.314,0-21.471,0c0-0.525,0-1.05,0-1.576C84.83,157.836,92.592,157.831,99.225,157.833z"/>
					<path fill-rule="evenodd" clip-rule="evenodd" fill="#231F20" d="M81.287,161.873c-0.024,0.399,0.048,0.894-0.039,1.229
						c-0.678,0-1.356,0-2.035,0c0,0.985,0,1.971,0,2.957c0.525,0.09,1.216,0.013,1.805,0.039c0.087,0.335,0.015,0.83,0.039,1.229
						c-0.602,0-1.203,0-1.805,0c-0.09,1.024-0.013,2.215-0.039,3.303c0.691,0,1.383,0,2.074,0c0,0.41,0,0.82,0,1.229
						c-1.165,0-2.331,0-3.495,0c0.025-3.316-0.052-6.734,0.038-9.986C78.982,161.873,80.135,161.873,81.287,161.873z"/>
					<path fill-rule="evenodd" clip-rule="evenodd" fill="#231F20" d="M89.66,164.562c-0.474,0-0.948,0-1.421,0
						c-0.036-0.331,0.081-0.957-0.076-1.229c-0.087-0.149-0.762-0.427-1.153-0.154c-0.208,0.147-0.192,0.741-0.192,1.114
						c0,0.481-0.079,0.969,0.039,1.268c0.133,0.34,0.908,0.628,1.421,0.883c0.544,0.269,1.198,0.543,1.344,0.96
						c0.138,0.393,0.038,1.107,0.038,1.574c0,1.103,0.11,2.001-0.422,2.497c-0.531,0.496-2.53,0.606-3.227,0.116
						c-0.511-0.359-0.62-1.058-0.614-2.074c0.474,0,0.947,0,1.42,0c0.021,0.382-0.052,0.605,0.078,0.845
						c0.217,0.401,1.037,0.37,1.306,0.039c0.065-0.381,0.038-0.737,0.038-1.114c0-0.339,0.097-0.783,0-1.114
						c-0.106-0.365-0.898-0.647-1.344-0.883c-0.546-0.288-1.211-0.55-1.382-0.96c-0.231-0.549-0.172-2-0.116-2.843
						c0.062-0.915,0.396-1.5,1.344-1.612c1.001-0.118,2.27-0.054,2.689,0.615C89.738,162.98,89.645,163.622,89.66,164.562z"/>
					<path fill-rule="evenodd" clip-rule="evenodd" fill="#231F20" d="M97.035,161.873c-0.024,0.399,0.048,0.894-0.038,1.229
						c-0.423,0-0.845,0-1.269,0c-0.09,2.842-0.013,5.851-0.038,8.756c-0.474,0-0.948,0-1.421,0c0-2.918,0-5.837,0-8.756
						c-0.448,0-0.896,0-1.344,0c0.016-0.259-0.044-0.911,0.038-1.229C94.321,161.873,95.678,161.873,97.035,161.873z"/>
					<path fill-rule="evenodd" clip-rule="evenodd" fill="#231F20" d="M99.109,170.169c0,0.564,0,1.127,0,1.69
						c-0.512,0-1.024,0-1.536,0c0.025-0.564-0.05-1.227,0.039-1.728C98.102,170.152,98.681,170.085,99.109,170.169z"/>
				</g>
				<g>
					<path fill-rule="evenodd" clip-rule="evenodd" fill="#231F20" d="M129.754,81.137c0.005,1.33-0.076,2.568-0.076,3.881
						c0,0.419,0.052,0.909-0.039,1.267c-0.131,0.517-0.846,0.88-0.921,1.345c-0.057,0.346,0.167,1.137,0.23,1.536
						c0.246,1.547,0.541,3.043,0.691,4.532c-0.258,0.184-0.618,0.274-0.96,0.384c-0.341,0.11-0.685,0.267-0.998,0.27
						c-0.237-0.092-0.162-0.4-0.192-0.577c-0.105-0.614-0.236-1.262-0.347-1.92c-0.146-0.877-0.22-1.766-0.459-2.535
						c-0.729,0.131-1.33,0.386-1.96,0.614c-0.159,1.711-0.063,3.675-0.191,5.417c-0.231,0.227-0.612,0.308-0.96,0.422
						c-0.349,0.114-0.709,0.274-1.036,0.269c-0.163-0.5-0.039-1.036-0.039-1.575c0-1.601,0.116-3.28,0.116-4.955
						c0-2.309,0.067-4.539,0.153-6.568c0.019-0.444-0.112-1.182,0.078-1.459c0.117-0.173,0.833-0.368,1.113-0.461
						c1.202-0.398,2.447-0.771,3.534-1.152c0.487-0.171,0.897,0.262,1.305,0.538C129.167,80.659,129.561,80.87,129.754,81.137z
						 M125.76,87.475c0.312-0.104,0.722-0.144,1-0.307c0.262-0.155,0.784-0.859,0.844-1.152c0.06-0.298-0.015-0.848,0-1.19
						c0.012-0.3,0.039-0.702,0.039-1.075c0-0.352,0.081-0.854,0-1.077c-0.101-0.274-0.687-0.583-1.038-0.46
						c-0.517,0.181-1.312,0.393-1.729,0.615c-0.103,0.746-0.115,1.614-0.115,2.458c0,0.646-0.041,1.266-0.04,1.881
						c0.002,0.208-0.063,0.498,0.078,0.577C125.113,87.787,125.416,87.589,125.76,87.475z"/>
					<path fill-rule="evenodd" clip-rule="evenodd" fill="#231F20" d="M121.189,82.021c0.191,0.02,0.109,0.293,0.115,0.423
						c0.021,0.458,0.005,1.114-0.077,1.499c-0.538,0.338-1.242,0.466-1.92,0.69c-0.641,0.212-1.3,0.433-1.883,0.692
						c-0.101,0.925-0.106,2.145-0.076,3.072c0.5-0.049,0.998-0.255,1.497-0.422c0.489-0.165,0.971-0.421,1.499-0.383
						c-0.005,0.475,0.033,1.309-0.039,1.843c-0.845,0.539-2.107,0.66-2.996,1.153c-0.104,1.638-0.167,3.52-0.116,5.185
						c0.684-0.099,1.307-0.37,1.92-0.576c0.621-0.208,1.218-0.441,1.844-0.538c0.172,0.506,0.015,1.311,0,1.882
						c-0.405,0.298-0.929,0.411-1.421,0.576c-0.98,0.329-1.978,0.678-2.996,0.999c-0.486,0.153-0.993,0.373-1.498,0.384
						c0.07-4.73,0.168-9.766,0.345-14.519c0.41-0.244,0.886-0.376,1.344-0.538c0.896-0.314,1.829-0.611,2.766-0.921
						C120.067,82.333,120.615,82.182,121.189,82.021z"/>
					<path fill-rule="evenodd" clip-rule="evenodd" fill="#231F20" d="M109.32,98.345c0.368,0.044,0.729-0.155,1.076-0.269
						c0.682-0.223,1.401-0.453,2.113-0.691c0.338-0.113,0.677-0.297,1.037-0.269c0.087,0.588,0.037,1.367-0.038,1.92
						c-0.984,0.458-2.06,0.728-3.111,1.075c-1.034,0.342-2.063,0.755-3.149,0.999c-0.163-0.25-0.05-0.62-0.038-0.884
						c0.188-4.474,0.079-9.23,0.346-13.674c0.474-0.237,1.113-0.413,1.69-0.614c0.394-0.138,0.323,0.157,0.307,0.576
						C109.409,90.396,109.441,94.392,109.32,98.345z"/>
					<path fill-rule="evenodd" clip-rule="evenodd" fill="#231F20" d="M102.753,88.052c0.033-0.008,0.036,0.016,0.038,0.038
						c0.282,0.15,0.25,0.526,0.308,0.768c0.996,4.131,2.114,8.414,3.035,12.637c-0.292,0.168-0.641,0.264-0.999,0.383
						c-0.337,0.113-0.706,0.277-1.037,0.269c-0.259-0.223-0.259-0.662-0.346-1.037c-0.087-0.377-0.163-0.778-0.307-1.076
						c-0.96,0.224-1.758,0.527-2.767,0.846c-0.309,0.097-0.719,0.196-0.844,0.345c-0.173,0.206-0.264,0.969-0.346,1.305
						c-0.069,0.288-0.165,1.053-0.345,1.268c-0.206,0.245-0.764,0.297-1.037,0.384c-0.374,0.119-0.656,0.304-1.038,0.269
						c0.065-0.663,0.262-1.313,0.423-1.959c0.817-3.268,1.635-6.55,2.42-9.871c0.312-1.316,0.573-2.652,0.998-3.918
						C101.465,88.427,102.175,88.306,102.753,88.052z M101.754,93.313c-0.382,1.358-0.703,2.811-1.037,4.147
						c-0.114,0.454-0.291,0.913-0.27,1.384c0.887-0.229,1.738-0.49,2.497-0.846c-0.298-1.661-0.744-3.173-1.114-4.763
						c-0.008-0.031-0.032-0.044-0.077-0.038C101.754,93.236,101.754,93.274,101.754,93.313z"/>
					<path fill-rule="evenodd" clip-rule="evenodd" fill="#231F20" d="M95.877,92.314c-0.576,0.299-1.248,0.501-1.92,0.73
						c-0.655,0.223-1.378,0.328-1.92,0.692c-0.042,0.957-0.134,2.067-0.039,3.034c1.066-0.188,1.847-0.663,2.92-0.845
						c0.176,0.524,0.017,1.339,0,1.921c-0.624,0.349-1.43,0.533-2.268,0.806c-0.277,0.092-0.597,0.169-0.691,0.308
						c-0.153,0.227-0.061,0.697-0.077,1.075c-0.047,1.155-0.093,2.917-0.077,4.11c1.012-0.205,1.917-0.578,2.88-0.882
						c0.305-0.097,0.593-0.245,0.922-0.231c0.067,0.543,0.059,1.338,0,1.882c-0.418,0.276-0.931,0.414-1.421,0.577
						c-1.228,0.406-2.475,0.813-3.764,1.229c-0.224,0.071-0.489,0.211-0.73,0.153c0.076-4.47,0.084-8.829,0.269-13.213
						c0.019-0.419-0.066-0.948,0.077-1.345c1.572-0.631,3.871-1.3,5.531-1.881c0.543-0.19,0.368,0.438,0.346,0.961
						C95.899,91.767,95.95,92.125,95.877,92.314z"/>
					<path fill-rule="evenodd" clip-rule="evenodd" fill="#231F20" d="M81.206,109.675c0-4.8,0.173-9.762,0.307-14.557
						c0.695-0.379,1.561-0.569,2.381-0.845c0.838-0.281,1.658-0.589,2.42-0.806c0.427-0.122,0.755,0.276,1.19,0.576
						c0.341,0.235,0.816,0.423,0.922,0.691c0.114,0.291,0.007,0.828,0,1.306c-0.041,2.658-0.075,5.344-0.192,8.027
						c-0.021,0.47,0.051,0.924-0.039,1.306c-0.065,0.276-0.255,0.466-0.461,0.729c-0.343,0.441-0.687,0.888-1.037,1.344
						c-0.179,0.232-0.346,0.531-0.538,0.653c-0.305,0.194-0.828,0.288-1.229,0.423c-0.849,0.285-1.605,0.518-2.497,0.806
						C82.03,109.461,81.624,109.675,81.206,109.675z M84.317,106.68c0.327-0.11,0.735-0.188,0.999-0.345
						c0.418-0.253,0.552-0.748,0.844-1.076c0.079-2.246,0.082-5.46,0.193-7.874c0.018-0.406,0.058-0.869-0.039-1.115
						c-0.116-0.292-0.648-0.554-0.922-0.46c-0.552,0.188-1.329,0.393-1.844,0.691c-0.139,3.381-0.207,7.04-0.229,10.409
						C83.65,106.957,83.986,106.79,84.317,106.68z"/>
					<path fill-rule="evenodd" clip-rule="evenodd" fill="#231F20" d="M76.75,111.174c-0.26,0.215-0.657,0.264-0.999,0.384
						c-0.329,0.116-0.661,0.313-0.999,0.269c-0.423-1.561-0.515-3.455-0.922-5.032c-0.335-0.006-0.686,0.151-1.037,0.269
						c-0.33,0.11-0.699,0.205-0.96,0.384c-0.119,1.75-0.036,3.704-0.192,5.415c-0.557,0.314-1.238,0.504-1.958,0.653
						c-0.165-0.532-0.059-1.1-0.039-1.65c0.158-4.207,0.099-8.684,0.307-12.907c0.692-0.377,1.563-0.569,2.382-0.845
						c0.84-0.282,1.664-0.591,2.42-0.807c0.358-0.102,0.813,0.298,1.229,0.577c0.337,0.225,0.849,0.521,0.922,0.767
						c0.06,0.204-0.028,0.598-0.039,0.846c-0.038,0.89,0.005,2.145-0.038,3.188c-0.016,0.363,0.018,0.784-0.039,1.036
						c-0.055,0.242-0.306,0.485-0.46,0.691c-0.126,0.168-0.414,0.41-0.462,0.653c-0.081,0.418,0.155,1.069,0.231,1.537
						c0.091,0.557,0.161,1.096,0.231,1.537C76.493,109.184,76.735,110.205,76.75,111.174z M73.831,99.651
						c-0.545,0.156-1.417,0.449-1.844,0.691c-0.104,1.536-0.12,3.361-0.115,4.878c0.316,0.021,0.657-0.123,0.999-0.23
						c0.328-0.104,0.739-0.193,0.998-0.346c0.264-0.155,0.775-0.783,0.845-1.075c0.058-0.237,0.031-0.583,0.039-0.845
						c0.028-0.93,0.035-1.699,0.038-2.612C74.515,99.856,74.183,99.549,73.831,99.651z"/>
					<path fill-rule="evenodd" clip-rule="evenodd" fill="#231F20" d="M68.415,101.418c-0.575,0.293-1.247,0.508-1.921,0.729
						c-0.657,0.216-1.376,0.333-1.92,0.691c-0.032,0.968-0.102,2.1-0.038,3.035c1.064-0.191,1.845-0.664,2.918-0.845
						c0.172,0.518,0.05,1.371,0,1.92c-0.868,0.516-2.15,0.616-2.996,1.152c-0.048,1.667-0.158,3.477-0.077,5.147
						c0.983-0.22,1.896-0.583,2.842-0.884c0.301-0.095,0.606-0.249,0.922-0.23c0.13,0.465,0.021,1.318,0,1.882
						c-0.417,0.278-0.931,0.415-1.421,0.576c-1.228,0.404-2.474,0.819-3.764,1.229c-0.226,0.072-0.487,0.207-0.73,0.153
						c0.053-4.761,0.152-9.809,0.346-14.557c1.569-0.63,3.876-1.303,5.531-1.882c0.481-0.168,0.405,0.373,0.383,0.884
						C68.475,100.815,68.447,101.217,68.415,101.418z"/>
					<path fill-rule="evenodd" clip-rule="evenodd" fill="#231F20" d="M78.939,101.456c0.439,0.406,0.936,0.754,1.306,1.229
						c-0.424,0.612-0.788,1.285-1.19,1.92c-0.441-0.366-0.872-0.74-1.268-1.152C78.132,102.749,78.604,102.171,78.939,101.456z"/>
					<path fill-rule="evenodd" clip-rule="evenodd" fill="#231F20" d="M57.084,108.292c0.999-0.117,1.878-0.68,2.958-0.844
						c0.14,0.186,0.049,0.453,0.039,0.73c-0.017,0.44,0.067,0.908-0.077,1.152c-0.158,0.27-1.11,0.504-1.459,0.615
						c-0.594,0.186-1.131,0.305-1.498,0.538c-0.099,1.643-0.165,3.521-0.115,5.185c0.619-0.099,1.241-0.326,1.882-0.539
						c0.615-0.203,1.227-0.495,1.92-0.576c0.089,0.595-0.001,1.325-0.039,1.92c-0.443,0.245-0.937,0.375-1.421,0.538
						c-1.405,0.472-2.911,0.98-4.417,1.421c-0.164-0.572-0.06-1.182-0.039-1.767c0.156-4.175,0.083-8.627,0.307-12.791
						c0.403-0.235,0.872-0.38,1.345-0.537c1.356-0.449,2.886-0.915,4.225-1.383c0.493-0.173,0.351,0.267,0.346,0.845
						c-0.006,0.531,0.052,0.771-0.078,0.998c-0.119,0.209-0.524,0.295-0.922,0.423c-0.763,0.245-1.124,0.372-1.958,0.652
						c-0.402,0.135-0.816,0.189-0.922,0.385c-0.09,0.169-0.029,0.578-0.039,0.768C57.087,106.797,57.054,107.521,57.084,108.292z"/>
					<path fill-rule="evenodd" clip-rule="evenodd" fill="#231F20" d="M46.368,121.198c-0.005-4.818,0.14-9.82,0.308-14.595
						c1.438-0.584,3.202-1.093,4.686-1.613c0.417-0.146,0.855,0.236,1.305,0.538c0.325,0.217,0.836,0.523,0.922,0.768
						c0.079,0.227,0.002,0.607,0,0.96c-0.004,0.7-0.029,1.343-0.039,2.036c-0.005,0.332,0.024,0.729-0.039,0.96
						c-0.045,0.165-0.275,0.42-0.422,0.614c-0.161,0.213-0.407,0.418-0.385,0.615c0.041,0.344,0.679,0.422,0.769,0.729
						c0.096,0.327-0.024,0.85-0.038,1.19c-0.018,0.4,0.007,0.811,0,1.191c-0.016,0.791,0.072,1.715-0.077,2.305
						c-0.063,0.248-0.276,0.533-0.461,0.768c-0.391,0.501-0.665,0.859-1.075,1.383c-0.161,0.207-0.389,0.51-0.576,0.615
						c-0.304,0.171-0.882,0.308-1.229,0.424c-1.033,0.34-1.99,0.653-3.034,0.998C46.792,121.147,46.58,121.229,46.368,121.198z
						 M49.632,111.443c0.345-0.117,0.761-0.168,1.038-0.346c0.221-0.142,0.695-0.733,0.768-0.96c0.203-0.63-0.019-1.541,0.038-2.381
						c-0.471-0.7-1.15-0.383-1.844-0.153c-0.352,0.116-0.704,0.239-0.921,0.384c-0.089,1.153-0.138,2.55-0.077,3.726
						C48.98,111.729,49.299,111.553,49.632,111.443z M49.479,118.165c0.32-0.106,0.708-0.136,0.998-0.308
						c0.269-0.158,0.785-0.821,0.844-1.114c0.046-0.215-0.011-0.604,0-0.883c0.013-0.283,0.04-0.681,0.04-1.075
						c0-0.359,0.077-0.854,0-1.076c-0.076-0.219-0.468-0.502-0.807-0.499c-0.279,0.002-0.702,0.23-1.037,0.346
						c-0.374,0.128-0.759,0.181-0.961,0.384c-0.053,1.457-0.153,3.073-0.076,4.532C48.833,118.487,49.126,118.28,49.479,118.165z"/>
				</g>
			</g>
		</g>
	</g>
</g>
<g id="Слой_2" display="none">
</g>
</svg>
