<?xml version="1.0" encoding="utf-8"?>
<!-- Generator: Adobe Illustrator 15.0.2, SVG Export Plug-In . SVG Version: 6.00 Build 0)  -->
<!DOCTYPE svg PUBLIC "-//W3C//DTD SVG 1.1//EN" "http://www.w3.org/Graphics/SVG/1.1/DTD/svg11.dtd">
<svg version="1.1" id="Слой_1" xmlns="http://www.w3.org/2000/svg" xmlns:xlink="http://www.w3.org/1999/xlink" x="0px" y="0px"
	 width="1788.5px" height="1481.026px" viewBox="0 0 1788.5 1481.026" enable-background="new 0 0 1788.5 1481.026"
	 xml:space="preserve">
<g>
	<path fill="#FFFFFF" d="M58.366,1470.625L58.366,1470.625c0,0,2.752-2.863,8.283-2.89l2.777,2.84
		c13.826-0.063,24.899,2.739,35.923-5.868l-8.32-5.67l5.518-2.878l0.024,5.708c5.519-2.879-0.024-5.708-2.789-5.694
		c2.765-0.014,5.53-0.024,5.519-2.878l-11.087-5.656c5.531-0.025,11.074,2.801,13.826-0.063c-5.541-2.829-11.049,2.903-13.838-2.791
		c2.753-2.867,8.284-2.894,2.74-5.719c2.767-0.013,5.531-0.025,5.544,2.827c-2.777-2.84-2.802-8.546-8.333-8.521
		c8.284-2.892-2.802-8.547,11.025-8.61c-2.766,0.014-8.32-5.669-11.098-8.509c13.85,5.645-0.049-11.412,16.555-8.635
		c-13.839-2.79-5.592-14.239-13.912-19.908c0,0,2.766-0.014,2.778,2.84c-0.014-2.854,5.506-5.732,8.271-5.743
		c-11.061,0.049-13.851-5.644-19.394-8.471c11.037-5.759,13.839,2.789,22.122-0.102c-8.296,0.037-8.331-8.522-16.615-5.631
		c5.517-2.88,2.751-2.866,11.037-5.758c-13.826,0.063-2.778-2.839-11.086-5.655c5.506-5.73,13.826-0.062,8.271-5.743
		c8.259-8.597,13.814-2.917,13.814-2.917c-0.024-5.705-11.073-2.802-16.604-2.775c-2.79-5.695,8.283-2.893,13.801-5.771
		c-2.776-2.84-11.097-8.509-11.109-11.362c2.766-0.014,2.766-0.014,5.531-0.025c-8.321-5.668-0.062-14.265-11.135-17.068
		l2.766-0.013c-2.766,0.013-2.766,0.013-5.531,0.025l-0.012-2.854c-2.765,0.013-2.802-8.547-5.567-8.533
		c2.766-0.014,5.518-2.879,5.518-2.879l5.532-0.024l0.061,14.266c0,0-2.766,0.013,0,0l-2.766,0.013l0,0
		c-0.013-2.854-2.777-2.841-2.79-5.693l0,0c-0.012-2.853-5.566-8.535-5.578-11.388c5.53-0.024,2.802,8.546,11.073,2.803
		l-2.742,5.719c13.802-5.771,0.013,2.854,13.826-0.063c2.729-8.572-5.566-8.534-2.838-17.106c-5.542-2.828-8.296,0.038-13.826,0.063
		c-8.344-11.374,24.851-8.672,10.988-17.168c-5.542-2.827-13.838-2.791-13.851-5.645l0,0l0,0c0,0-0.012-2.854,2.753-2.865
		l11.073,2.803c-0.036-8.559-16.615-5.631-8.345-11.375c5.531-0.024,2.791,5.693,5.556,5.682c8.271-5.744-5.543-2.828-5.566-8.532
		l8.296-0.04c-2.802-8.548-8.369-17.08-11.171-25.627c2.765-0.014,5.543,2.827,8.296-0.038c-5.58-11.387-0.098-22.826,5.385-34.263
		l-8.309-2.816c0,0,2.754-2.864,5.53-0.024c2.754-2.865-2.776-2.84-5.541-2.828l-0.013-2.853c2.765-0.014,2.765-0.014,2.765-0.014
		c-5.555-5.682-8.344-11.376-8.381-19.934c0,0,2.765-0.013,2.753-2.865c-2.766,0.013-2.766,0.013-2.766,0.013
		c-0.012-2.854-0.012-2.854,2.74-5.72c0,0,0,0,2.767-0.012l2.765-0.014l-0.012-2.854c2.74-5.718-5.555-5.681-8.333-8.521l0,0
		l2.765-0.013c-0.012-2.854-0.024-5.706-0.024-5.706s0,0,2.766-0.013l-2.766,0.013l-0.013-2.853
		c2.754-2.866,5.507-5.732,8.271-5.745c-2.776-2.839-5.542-2.827-5.53,0.025l0,0c-0.023-5.706-2.802-8.546-0.073-17.118
		l-2.766,0.012c-0.013-2.852,2.741-5.718,5.494-8.584c-5.53,0.026-5.555-5.68-2.803-8.548c2.766-0.011,2.778,2.842,5.543,2.83
		c-5.555-5.681,2.716-11.426,5.47-14.291l2.776,2.841c-2.776-2.841-2.776-2.841-2.789-5.694l-5.519,2.878
		c-0.012-2.853-0.012-2.853,2.754-2.866l-2.766,0.016c-0.014-2.855,2.753-2.867,2.74-5.721c0,0,0,0-2.776-2.84l0,0l2.766-0.012
		c2.752-2.867,0,0-2.778-2.842l0.014,2.854l-2.765,0.014l0,0l0,0l0,0l-5.557-5.682l-0.012-2.853c5.53-0.026,8.283-2.893,8.283-2.893
		c0.013,2.854-2.753,2.866-5.529,0.024l2.765-0.013l-2.777-2.84c0,0-2.753,2.864-5.519,2.878l0,0l-0.013-2.854l0,0
		c-0.024-5.707,5.494-8.584,8.26-8.597l-8.345-11.374c2.765-0.014,5.543,2.828,5.543,2.828c-8.321-5.668,8.295-0.04-0.036-8.561
		c-2.767,0.014-2.767,0.014-5.532,0.025c0,0,0,0-0.012-2.854l2.752-2.865c2.754-2.865,2.754-2.865-0.024-5.707l0,0
		c-0.012-2.852-0.012-2.852-0.023-5.705l5.53-0.025c2.729-8.572-2.85-19.959-2.887-28.52c-2.754,2.864-13.814,2.916-13.826,0.063
		l8.296-0.038c-5.542-2.827-2.765,0.013-5.531,0.024c2.766-0.012,2.766-0.012,5.518-2.877c0,0-2.765,0.013-2.777-2.841
		c2.765-0.013,5.531-0.024,5.542,2.829l-2.789-5.692c2.765-0.016,2.765-0.016,8.296-0.04c-5.543-2.828,8.259-8.597-0.049-11.412
		l2.766-0.013c-0.049-11.411-2.826-14.254-2.863-22.813c-8.296,0.04-5.543-2.826-11.086-5.654c2.742-5.72,8.236-14.304,8.211-20.011
		c-2.791-5.693-5.543-2.829-11.073-2.803c8.296-0.038,5.494-8.583,11.048-2.902c-0.036-8.561-2.813-11.4-8.392-22.788
		c-2.766,0.013-5.519,2.88-5.519,2.88c-0.013-2.854,2.741-5.72,5.506-5.732l0,0c-11.11-11.362,19.233-28.621,5.359-39.969l0,0
		l-8.344-11.376c-0.024-5.707,5.542,2.828,11.061-0.049c-11.111-11.363,2.691-17.132-5.641-25.653
		c22.085-8.659-2.875-25.666,10.915-34.287l-5.53,0.024c-5.543-2.828,2.752-2.866,2.741-5.719c-2.766,0.013-5.52,2.879-8.296,0.038
		c-5.615-19.948,8.113-42.833,10.781-65.673c11.049-2.903,8.283-2.891,2.741-5.719c2.766-0.012,5.53-0.025,5.518-2.879
		c-5.53,0.026-8.296,0.038-5.555-5.68l2.766-0.015c-2.777-2.84-2.79-5.693-2.802-8.546c2.752-2.865,2.752-2.865-0.024-5.707
		l5.542,2.829c-2.777-2.842-0.049-11.414-5.604-17.095c-0.012-2.854-0.012-2.854-0.023-5.706l0,0
		c-0.013-2.853-0.025-5.706-2.802-8.546c-0.014-2.853-2.79-5.694-2.79-5.694c2.765-0.013,5.53-0.024,5.541,2.829
		c5.52-2.878-0.048-11.413-5.578-11.388c-0.012-2.853,5.53-0.025,8.284-2.891c2.751-2.866-8.332-8.523-2.814-11.401
		c0,0,2.765-0.013,2.776,2.84c-2.776-2.84-0.048-11.41-5.565-8.533l0,0l0,0c2.752-2.865-0.037-8.561-2.814-11.4
		c-0.012-2.854-0.012-2.854,2.742-5.719c-8.308-2.815,2.729-8.572-8.346-11.375l2.766-0.013c5.53-0.025,5.518-2.877,5.506-5.731
		c2.753-2.864,2.753-2.864,2.74-5.718l2.767-0.013c-0.025-5.708-2.814-11.4-5.604-17.095c-0.025-5.705-11.11-11.36,2.703-14.276
		c-2.775-2.841-2.801-8.548-5.578-11.389c-0.012-2.854,2.729-8.572,2.704-14.278l2.765-0.013c-0.012-2.854-2.776-2.84-2.789-5.693
		c-0.012-2.853,2.741-5.719,2.729-8.572c-2.752,2.866-8.295,0.038-11.073-2.804c2.753-2.866-8.332-8.521,2.742-5.719l0,0
		c11.048-2.902,8.259-8.597,8.247-11.45l-8.296,0.038c-0.014-2.854-0.024-5.707-0.024-5.707c2.753-2.866,2.729-8.572-0.048-11.414
		l0,0l-0.014-2.853l-0.012-2.853c-0.013-2.853-2.803-8.548-0.049-11.412l0,0l0,0c0,0,2.752-2.865,5.518-2.879
		c-2.74,5.721-2.766,0.014-5.53,0.026l0,0l0,0l0,0l8.295-0.038c2.729-8.572,2.717-11.425-0.085-19.973l5.542,2.828
		c-0.023-5.706-22.145-5.605-22.169-11.313l11.049-2.902c-0.037-8.561,10.975-20.022-0.123-28.532
		c2.767-0.013,5.531-0.026,5.543,2.828c-0.024-5.707,8.223-17.156-8.356-14.228c11.061-0.051-0.036-8.56-2.826-14.252l8.296-0.038
		c-11.073-2.804-13.85-5.644-16.64-11.338c0,0,2.765-0.012,5.531-0.025c-0.013-2.853-8.307-2.815-2.802-8.547l5.543,2.83
		c-0.013-2.854-0.013-2.854-2.79-5.694l2.753-2.867l-8.308-2.814l0.013,2.854l-2.765,0.011c-2.778-2.84-0.024-5.706,2.729-8.571
		c5.53-0.025,0.024,5.706,8.307,2.815c-0.012-2.853-0.024-5.706-2.79-5.694l0,0c0,0,0,0-2.765,0.013
		c-0.013-2.853-2.777-2.842-2.789-5.694c0,0,0,0,2.765-0.013c5.494-8.584-8.344-11.375-0.073-17.119
		c2.765-0.013,2.765-0.013,5.53-0.024c0.024,5.707,0.048,11.412,0.048,11.412c8.296-0.037,8.272-5.743,19.358-0.087
		c-8.321-5.67-22.184-14.166-16.665-17.044c0,0,0,0,2.765-0.012l0,0l-0.012-2.854c-0.013-2.853,2.753-2.864,2.753-2.864
		c5.53-0.026,2.741-5.721,2.729-8.574c-8.296,0.038-5.542-2.826-13.827,0.063c0,0,0,0,0.013,2.854l0,0l0,0
		c0.013,2.854,0.013,2.854,0.024,5.706c-2.765,0.013-2.777-2.84-2.777-2.84l-0.012-2.854c0,0,0,0,2.752-2.865l-2.765,0.014
		c-2.777-2.84-2.789-5.694-5.555-5.682c8.271-5.744,11.024-8.609,16.555-8.634c-2.802-8.547-2.838-17.107-13.924-22.763
		l-0.012-2.854l2.765-0.012c2.765-0.013,0.012,2.854,2.776,2.84c-2.789-5.694-0.061-14.266-11.12-14.216l0,0
		c5.506-5.732,11.072,2.803,8.271-5.743l2.765-0.014c16.53-14.34-24.984-22.711-5.701-39.917l-2.752,2.864
		c2.752-2.864,2.74-5.718,2.729-8.572l5.53-0.023l5.531-0.026l0,0l-2.803-8.546l-5.518,2.878l-2.765,0.014
		c2.741-5.72-0.048-11.412-0.073-17.12c0,0,0,0,2.766-0.012c0,0,2.752-2.866,5.518-2.879c-8.308-2.815,5.505-5.731-5.567-8.534
		c2.765-0.012-0.013-2.854,8.283-2.892c-2.777-2.84-5.531,0.024-8.296,0.038c-11.085-5.655,10.999-14.315-2.863-22.811l0,0
		l2.765-0.013l-5.554-5.682l-2.777-2.841c-5.556-5.68,13.776-11.475,8.208-20.009l2.766-0.013l0,0l-2.766,0.013
		c0,0-0.012-2.853-2.776-2.841l-5.53,0.025l0,0l-0.013-2.853c2.765-0.013,5.53-0.026,8.307,2.815
		c-0.012-2.853-5.555-5.681-8.332-8.523c0,0,0,0,2.766-0.013l0,0c2.765-0.012,5.541,2.828,8.306,2.817
		c-2.789-5.694-5.578-11.389-11.109-11.363l-2.777-2.84l0,0c2.766-0.014,8.296-0.038,11.061-0.05
		c-2.777-2.841-2.777-2.841-5.555-5.681c5.531-0.025,11.061-0.051,11.036-5.757c-0.013-2.853-2.777-2.84-5.554-5.681l0,0
		l-2.778-2.84c0,0-2.765,0.013-5.53,0.025l0,0c0.013,2.853-2.753,2.866-8.283,2.891l-0.012-2.853
		c-13.826,0.063-27.664-2.727-35.923,5.87l8.32,5.669l-5.519,2.879l-0.024-5.706c-5.518,2.878,0.024,5.706,2.79,5.694
		c-2.766,0.012-5.53,0.023-5.519,2.878l11.085,5.655c-5.531,0.024-11.073-2.802-13.826,0.063c5.554,5.681,11.062-0.051,13.839,2.79
		c-5.519,2.88-11.049,2.904-5.507,5.731c-2.765,0.013-5.529,0.025-5.542-2.828c2.776,2.839,2.802,8.547,8.332,8.522
		c-8.284,2.891,2.802,8.546-11.024,8.61c2.765-0.013,8.319,5.669,11.097,8.509c-13.85-5.644,0.049,11.412-16.554,8.635
		c13.85,5.644,5.604,17.093,13.922,22.763c0,0-2.765,0.012-2.778-2.841c0.013,2.853-5.505,5.732-8.27,5.743
		c11.06-0.049,13.85,5.644,19.392,8.471c-11.037,5.757-13.838-2.791-22.121,0.102c8.295-0.037,8.331,8.522,16.616,5.631
		c-8.272,5.742-2.742,5.719-13.803,5.769c13.826-0.063,2.778,2.841,11.085,5.657c-5.506,5.731-13.825,0.063-8.271,5.743
		c-2.74,5.719-8.296,0.039-8.296,0.039c0.024,5.706,11.073,2.802,16.603,2.776c2.791,5.694-8.283,2.892-13.801,5.77
		c2.79,5.694,11.097,8.508,11.11,11.363c-2.766,0.013-2.766,0.013-5.53,0.025c8.319,5.668,0.061,14.265,11.133,17.068l-2.766,0.012
		c2.766-0.012,2.766-0.012,5.531-0.024l0.013,2.853c2.765-0.013,2.776,2.84,5.542,2.829c-2.765,0.011-8.294,0.037-8.307-2.815
		l-2.767,0.012l0,0l0,0l2.767-0.012l0,0c0.012,2.853,2.777,2.84,2.79,5.693l0,0c0.012,2.853,2.79,5.695,5.579,11.387
		c-5.53,0.025-2.802-8.546-11.073-2.802l2.73-8.572c-13.801,5.769-0.013-2.853-13.826,0.063c-2.729,8.572,5.566,8.535,2.837,17.107
		c5.543,2.828,8.296-0.038,13.826-0.063c8.344,11.376-24.85,8.672-13.753,17.182c5.542,2.828,13.838,2.791,13.85,5.644l0,0l0,0
		c0,0,0.013,2.853-2.753,2.865l-8.308-2.815c0.037,8.561,16.615,5.631,8.345,11.376c-5.532,0.024-2.791-5.694-5.555-5.682
		c-8.26,8.597,5.555,5.682,5.579,11.387l-8.296,0.038c2.802,8.547,8.369,17.082,11.17,25.629c-2.765,0.013-5.542-2.829-8.295,0.038
		c5.58,11.385,0.097,22.824-5.385,34.262l8.307,2.815c0,0-2.753,2.866-5.53,0.024c-2.753,2.865,2.777,2.842,5.543,2.829l0.012,2.853
		c-2.765,0.013-2.765,0.013-2.765,0.013c5.555,5.681,8.357,14.228,8.381,19.934c0,0-2.765,0.013-2.752,2.866
		c2.765-0.013,2.765-0.013,2.765-0.013c0.012,2.853,0.012,2.853-2.741,5.719c0,0,0,0-2.766,0.013l-2.765,0.013l0.012,2.853
		c-2.741,5.718,5.555,5.681,8.332,8.522l0,0l-2.765,0.013c0.012,2.853,0.024,5.706,0.024,5.706s0,0-2.767,0.013l2.767-0.013
		l0.012,2.854c-2.753,2.865-2.741,5.719-8.271,5.743c2.776,2.842,5.542,2.829,5.53-0.024l0,0c0.024,5.706,2.802,8.547-2.692,17.131
		l2.765-0.013c0.013,2.853-2.741,5.719-5.494,8.585c5.53-0.026,5.554,5.68,2.802,8.546c-2.765,0.011-2.777-2.841-5.542-2.829
		c8.319,5.669-2.716,11.425-2.704,14.278l-2.778-2.84c2.778,2.84,2.778,2.84,2.79,5.693l5.518-2.877
		c0.013,2.853,0.013,2.853-2.753,2.866l2.766-0.013c0.012,2.854-2.753,2.866-2.741,5.72c0,0,0,0,2.778,2.84l0,0l-2.765,0.013
		c-2.753,2.866,0,0,2.765-0.013l-0.024-5.706l0,0l0,0l0,0l0,0l5.566,8.534c0,0,0.013,2.853,0.025,5.706
		c-5.53,0.026-8.283,2.891-8.271,5.744c-0.013-2.853,2.765-0.013,5.53-0.025l-2.765,0.014l2.777,2.841c0,0,2.753-2.866,5.519-2.879
		l0,0l0.012,2.854l0,0c0.024,5.706-8.259,8.596-11.024,8.609l8.344,11.375c-2.765,0.013-5.543-2.828-5.543-2.828
		c8.321,5.668-8.295,0.038,0.037,8.559c2.765-0.013,2.765-0.013,5.53-0.025c0,0,0,0,0.012,2.854l-2.752,2.864
		c-2.753,2.866-2.753,2.866,0.024,5.708l0,0c0.013,2.853,0.013,2.853,0.024,5.706l-5.53,0.024c-2.729,8.571,2.85,19.958,2.887,28.52
		c2.753-2.867,13.814-2.916,13.826-0.063l-8.296,0.038c5.543,2.828,2.766-0.013,5.531-0.025c-2.765,0.013-2.765,0.013-5.519,2.877
		c0,0,2.766-0.013,2.778,2.84c-2.767,0.014-5.532,0.027-5.543-2.826l2.79,5.693c-2.765,0.013-2.765,0.013-8.295,0.038
		c5.542,2.828-8.259,8.597,0.049,11.413l-2.765,0.012c0.048,11.412,2.826,14.253,2.863,22.813c8.295-0.038,5.542,2.829,11.085,5.655
		c-2.742,5.721-8.235,14.304-8.211,20.011c2.79,5.694,5.543,2.828,11.073,2.803c-8.297,0.038-5.494,8.584-11.048,2.902
		c0.037,8.56,2.813,11.399,8.393,22.787c2.766-0.013,5.519-2.877,5.519-2.877c0.012,2.853-2.741,5.717-5.506,5.732l0,0
		c11.109,11.361-19.235,28.619-5.36,39.969l0,0l8.345,11.374c0.024,5.706-5.542-2.828-11.061,0.052
		c8.321,5.667-5.469,14.289,2.863,22.811c-22.084,8.66,2.875,25.666-10.913,34.287l5.53-0.024c5.542,2.827-2.753,2.866-2.741,5.719
		c2.766-0.013,5.519-2.879,8.296-0.038c5.616,19.946-8.113,42.833-10.78,65.672c0.012,2.853,2.79,5.694,5.555,5.68
		c-2.765,0.014-5.531,0.025-5.518,2.879c5.53-0.025,8.295-0.038,5.555,5.682l-2.765,0.013c-0.012-2.853,0,0,2.777,2.84
		c-2.753,2.866-2.753,2.866,0.024,5.707l-5.542-2.829c2.778,2.841,0.049,11.413,5.603,17.094c0.013,2.854,0.013,2.854,0.025,5.707
		l0,0c0.012,2.853,0.024,5.706,2.802,8.546c0.012,2.854,2.789,5.694,2.789,5.694c-2.765,0.012-5.53,0.025-5.542-2.828
		c-5.518,2.878,0.048,11.412,5.579,11.388c0.012,2.853-5.531,0.024-8.283,2.891c-2.752,2.866,8.332,8.523,2.814,11.401
		c0,0-2.765,0.013-2.777-2.84c2.777,2.84,0.049,11.413,5.566,8.533l0,0l0,0c-2.753,2.866,0.037,8.56,2.813,11.4
		c0.012,2.853,0.012,2.853-2.741,5.719c8.308,2.815-2.729,8.571,8.345,11.375l-2.766,0.013c-5.531,0.026-5.518,2.88-5.506,5.733
		c-2.765,0.013-5.519,2.877-5.506,5.73l-2.765,0.014c0.024,5.706,2.814,11.4,5.603,17.094c0.025,5.706,11.11,11.362-2.704,14.278
		c2.778,2.84,2.802,8.546,5.579,11.387c0.013,2.854-2.729,8.572-2.704,14.279l-2.765,0.014c0.012,2.854,2.777,2.838,2.79,5.692
		c0.012,2.854-2.741,5.718-2.729,8.571c2.752-2.864,8.295-0.038,11.072,2.803c-2.753,2.864,8.333,8.522-2.74,5.719l0,0
		c-11.073-2.804-8.284,2.891-8.259,8.598l8.296-0.038c0.012,2.853,0.024,5.706,0.024,5.706c-2.752,2.866-2.729,8.571,0.048,11.412
		l0,0c0,0,0,0,0.012,2.853l0.012,2.854c0.013,2.854,2.802,8.548,0.049,11.413l0,0l0,0c0,0-2.766,0.014-5.53,0.024
		c5.542,2.829,5.567,8.534,8.332,8.522l0,0l0.012,2.853l0,0l-8.295,0.039c-2.729,8.571-2.716,11.424,0.086,19.972l-5.543-2.828
		c0.025,5.705,22.146,5.605,22.17,11.313l-11.049,2.902c0.037,8.561-10.975,20.022,0.122,28.531
		c-2.765,0.012-5.53,0.024-5.543-2.829c0.024,5.708-8.222,17.158,8.355,14.228c-11.06,0.052,0.038,8.561,2.828,14.256l-8.296,0.037
		c11.073,2.803,13.851,5.643,16.64,11.337c0,0-2.765,0.013-5.531,0.024c0.013,2.854,8.308,2.815,2.802,8.547l-5.543-2.827
		c0.012,2.853,0.012,2.853,2.791,5.692l-2.754,2.864l5.531-0.022l-0.012-2.855l2.765-0.012c2.777,2.841,0.024,5.705-2.741,5.719
		c-5.531,0.024-0.024-5.707-8.308-2.815c0.013,2.854,0.025,5.706,2.79,5.694l0,0c0,0,0,0,2.766-0.013
		c0.013,2.853,2.777,2.839,2.79,5.692c0,0,0,0-2.765,0.014c-5.494,8.585,8.344,11.376,2.838,17.105
		c-2.765,0.013-2.765,0.013-5.532,0.025c-0.024-5.706-0.048-11.413-0.048-11.413c-8.296,0.037-8.271,5.745-19.356,0.088
		c5.542,2.829,16.639,11.337,13.899,17.057c0,0,0,0-2.765,0.012l0,0l0.012,2.854c0.012,2.854-2.753,2.864-2.753,2.864
		c-5.531,0.027-2.741,5.721-2.729,8.572c8.296-0.037,5.542,2.829,13.825-0.063c0,0,0,0-0.012-2.852l0,0l0,0
		c-0.013-2.854-0.013-2.854-0.025-5.707c2.766-0.014,2.778,2.839,2.778,2.839l0.012,2.854c0,0,0,0-2.753,2.864l2.766-0.013
		c0.013,2.854,2.777,2.842,2.79,5.693c-5.518,2.879-11.024,8.61-16.554,8.637c2.79,5.693,2.837,17.104,13.923,22.762
		c0.012,2.854,0.012,2.854,0.024,5.707l-2.766,0.012c-2.765,0.014-0.012-2.854-2.777-2.84c2.79,5.693,2.813,11.4,11.122,14.215l0,0
		c-5.505,5.732-8.307-2.814-8.27,5.744l-2.766,0.014c-16.531,14.34,24.996,25.564,5.713,42.771l2.753-2.864
		c0.012,2.852-2.741,5.719-2.729,8.571l-5.532,0.024l-5.53,0.025l0,0l0.024,5.706l5.519-2.878l2.766-0.013
		c0.025,5.707,2.802,8.548,2.826,14.253c0,0,0,0-2.765,0.014c-2.754,2.864-5.506,5.73-8.283,2.891
		c5.542,2.828-5.505,5.73,5.566,8.534c-2.765,0.012,0.013,2.854-8.282,2.892c2.778,2.839,5.531-0.027,8.296-0.038
		c8.32,5.669-11,14.315,2.863,22.813l0,0l-2.766,0.013l5.543,2.828l2.778,2.84c5.554,5.682-16.543,11.488-10.976,20.022
		l-2.765,0.014l0,0l2.765-0.014c0,0,0.012,2.853,2.777,2.841l5.532-0.025l0,0l0.012,2.854c-2.765,0.013-5.531,0.024-8.309-2.816
		c2.778,2.841,5.555,5.682,8.333,8.523c0,0,0,0-2.765,0.012l0,0c-2.766,0.013-5.543-2.826-8.309-2.815
		c2.777,2.841,2.802,8.548,8.345,11.376l13.874,11.348l0,0c-2.765,0.014-8.295,0.038-11.06,0.052
		c2.765-0.014,5.542,2.827,5.542,2.827c-5.53,0.025-11.061,0.05-11.036,5.758c0.012,2.853,2.777,2.84,5.555,5.681l0,0l2.776,2.841
		C55.601,1470.639,58.366,1470.625,58.366,1470.625z M97.527,280.67L97.527,280.67l2.766-0.013c0.013,2.854,0.013,2.854-2.754,2.866
		L97.527,280.67z M40.763,1233.893C40.763,1233.893,40.775,1236.746,40.763,1233.893l-2.765,0.013
		c-0.013-2.854-0.013-2.854,2.753-2.864C40.763,1233.893,40.763,1233.893,40.763,1233.893z M82.583,1313.592L82.583,1313.592
		c2.752-2.865,5.53-0.025,5.53-0.025S85.348,1313.579,82.583,1313.592z M90.487,1222.254
		C90.487,1222.254,90.5,1225.107,90.487,1222.254C90.5,1225.107,90.5,1225.107,90.487,1222.254L90.487,1222.254z M90.463,1216.547
		c-2.765,0.014-5.53,0.025-5.53,0.025c2.765-0.014,2.753-2.864,5.506-5.73C90.451,1213.695,90.451,1213.695,90.463,1216.547z
		 M104.813,691.497l-5.519,2.878l-2.777-2.84c0,0-0.012-2.853,2.754-2.866L104.813,691.497z M77.281,72.48L77.281,72.48l2.766-0.011
		C80.047,72.469,80.047,72.469,77.281,72.48z M80.021,66.762L80.021,66.762c2.777,2.84,2.777,2.84,2.777,2.84L80.021,66.762z
		 M55.708,200.971C55.708,200.971,55.719,203.826,55.708,200.971c-2.752,2.867-5.53,0.026-5.53,0.026S52.943,200.985,55.708,200.971
		z M45.037,292.323C45.037,292.323,45.025,289.469,45.037,292.323C45.025,289.469,45.037,292.323,45.037,292.323L45.037,292.323z
		 M45.062,298.029c2.766-0.013,5.531-0.025,5.531-0.025c-2.765,0.012-2.753,2.865-5.519,2.877
		C45.074,300.881,45.074,300.881,45.062,298.029z M33.491,825.92l5.518-2.877l2.777,2.84c0,0,0.013,2.853-2.753,2.865L33.491,825.92
		z M61.009,1442.083L61.009,1442.083l-2.765,0.014C58.244,1442.096,58.244,1442.096,61.009,1442.083z M55.503,1447.815
		c-2.765,0.012-2.777-2.841-2.777-2.841L55.503,1447.815C58.269,1447.801,58.269,1447.801,55.503,1447.815z"/>
	<path fill="#FFFFFF" d="M98.295,1108.09L98.295,1108.09L98.295,1108.09z"/>
	<path fill="#FFFFFF" d="M47.123,1427.88C47.136,1430.733,49.899,1430.722,47.123,1427.88
		C49.899,1430.722,49.899,1430.722,47.123,1427.88C49.888,1427.869,47.123,1427.88,47.123,1427.88z"/>
	<path fill="#FFFFFF" d="M68.864,43.988L68.864,43.988c2.765-0.013,2.765-0.013,5.53-0.026L68.864,43.988z"/>
	<path fill="#FFFFFF" d="M109.186,1068.097C106.421,1068.11,106.421,1068.11,109.186,1068.097
		C109.198,1070.95,109.186,1068.097,109.186,1068.097z"/>
	<path fill="#FFFFFF" d="M33.598,203.926c2.765-0.013,5.531-0.026,8.284-2.893C33.598,203.926,33.574,198.22,33.598,203.926z"/>
	<path fill="#FFFFFF" d="M31.128,920.087c2.765-0.015,5.518-2.879,5.518-2.879s0,0-2.765,0.013L31.128,920.087z"/>
	<path fill="#FFFFFF" d="M86.734,343.49L86.734,343.49L86.734,343.49z"/>
	<path fill="#FFFFFF" d="M89.219,277.855L89.219,277.855C89.219,277.855,86.454,277.869,89.219,277.855L89.219,277.855
		L89.219,277.855z"/>
	<path fill="#FFFFFF" d="M49.607,1362.247l2.765-0.014l0,0L49.607,1362.247z"/>
	<path fill="#FFFFFF" d="M47.208,1447.853L47.208,1447.853L47.208,1447.853L47.208,1447.853z"/>
	<path fill="#FFFFFF" d="M49.985,1450.693L49.985,1450.693L49.985,1450.693z"/>
	<path fill="#FFFFFF" d="M49.827,1413.602c0.012,2.853-5.505,5.732-5.494,8.586l2.766-0.016
		C44.32,1419.334,55.357,1413.578,49.827,1413.602z"/>
	<polygon fill="#FFFFFF" points="104.07,1165.129 101.28,1159.434 101.306,1165.141 	"/>
	<polygon fill="#FFFFFF" points="103.923,483.218 101.145,480.378 101.145,480.378 	"/>
	<path fill="#FFFFFF" d="M39.995,406.473L39.995,406.473C39.995,406.473,37.229,406.486,39.995,406.473z"/>
	<path fill="#FFFFFF" d="M88.402,86.696C88.402,86.696,88.391,83.843,88.402,86.696C88.391,83.843,88.402,86.696,88.402,86.696
		L88.402,86.696z"/>
	<path fill="#FFFFFF" d="M69.426,1470.577L69.426,1470.577c-2.765,0.014-2.765,0.014-5.531,0.024L69.426,1470.577z"/>
	<path fill="#FFFFFF" d="M29.104,446.466L29.104,446.466L29.104,446.466z"/>
	<path fill="#FFFFFF" d="M104.691,1310.639c-2.765,0.012-5.53,0.024-8.283,2.891
		C101.938,1313.503,104.716,1316.344,104.691,1310.639z"/>
	<path fill="#FFFFFF" d="M107.163,594.478c-2.765,0.013-5.519,2.877-5.519,2.877s0,0,2.766-0.012L107.163,594.478z"/>
	<path fill="#FFFFFF" d="M48.791,1171.086L48.791,1171.086L48.791,1171.086z"/>
	<path fill="#FFFFFF" d="M46.307,1236.721C49.071,1236.708,49.083,1239.561,46.307,1236.721
		C49.071,1236.708,49.071,1236.708,46.307,1236.721C49.071,1236.708,49.071,1236.708,46.307,1236.721L46.307,1236.721z"/>
	<path fill="#FFFFFF" d="M85.93,155.183l-2.765,0.014l0,0L85.93,155.183z"/>
	<path fill="#FFFFFF" d="M91.083,66.712C91.083,66.712,88.317,66.725,91.083,66.712L91.083,66.712L91.083,66.712z"/>
	<path fill="#FFFFFF" d="M85.54,63.883L85.54,63.883C88.317,66.725,88.305,63.872,85.54,63.883z"/>
	<path fill="#FFFFFF" d="M88.476,103.816c-0.012-2.854,5.506-5.732,2.729-8.572l-2.765,0.013
		C93.97,95.23,82.933,100.987,88.476,103.816z"/>
	<polygon fill="#FFFFFF" points="34.22,349.435 37.01,355.128 34.232,352.289 	"/>
	<polygon fill="#FFFFFF" points="31.603,1031.358 34.392,1037.053 34.379,1034.2 	"/>
</g>
<g>
	<path fill="#FFFFFF" d="M1730.944,1444.179L1730.944,1444.179c0,0,2.753-2.845,8.283-2.87l2.776,2.82
		c13.826-0.062,24.899,2.723,35.924-5.829l-8.32-5.632l5.518-2.859l0.024,5.67c5.519-2.859-0.024-5.67-2.789-5.656
		c2.765-0.014,5.53-0.024,5.519-2.859l-11.087-5.618c5.531-0.025,11.074,2.782,13.826-0.063c-5.541-2.81-11.049,2.885-13.838-2.772
		c2.753-2.848,8.284-2.874,2.74-5.681c2.767-0.013,5.531-0.025,5.544,2.809c-2.777-2.821-2.802-8.489-8.333-8.464
		c8.284-2.873-2.802-8.49,11.025-8.554c-2.766,0.014-8.32-5.631-11.098-8.452c13.85,5.607-0.049-11.336,16.555-8.578
		c-13.839-2.771-5.592-14.145-13.912-19.775c0,0,2.766-0.014,2.778,2.821c-0.014-2.835,5.506-5.694,8.271-5.706
		c-11.061,0.05-13.851-5.606-19.394-8.414c11.037-5.721,13.839,2.77,22.122-0.102c-8.296,0.037-8.331-8.465-16.614-5.594
		c5.517-2.86,2.751-2.847,11.036-5.719c-13.826,0.063-2.778-2.82-11.087-5.618c5.507-5.693,13.826-0.061,8.271-5.705
		c8.259-8.54,13.814-2.897,13.814-2.897c-0.024-5.668-11.073-2.783-16.604-2.758c-2.79-5.657,8.283-2.873,13.801-5.732
		c-2.776-2.82-11.097-8.451-11.109-11.287c2.766-0.014,2.766-0.014,5.531-0.023c-8.321-5.631-0.062-14.172-11.135-16.957
		l2.766-0.013c-2.766,0.013-2.766,0.013-5.531,0.026l-0.012-2.835c-2.766,0.012-2.802-8.49-5.566-8.478
		c2.766-0.013,5.518-2.859,5.518-2.859l5.531-0.024l0.061,14.17c0,0-2.766,0.013,0,0l-2.766,0.013l0,0
		c-0.013-2.834-2.777-2.821-2.79-5.654l0,0c-0.013-2.835-5.566-8.479-5.578-11.313c5.53-0.025,2.802,8.489,11.073,2.784
		l-2.742,5.681c13.802-5.731,0.013,2.834,13.826-0.063c2.729-8.515-5.566-8.477-2.838-16.993c-5.542-2.81-8.296,0.039-13.826,0.063
		c-8.344-11.298,24.852-8.614,10.988-17.054c-5.542-2.809-13.838-2.772-13.851-5.607l0,0l0,0c0,0-0.013-2.834,2.753-2.846
		l11.073,2.783c-0.036-8.502-16.615-5.594-8.345-11.299c5.531-0.024,2.791,5.656,5.556,5.643c8.271-5.705-5.543-2.809-5.566-8.475
		l8.296-0.04c-2.802-8.491-8.369-16.966-11.171-25.458c2.765-0.013,5.543,2.809,8.296-0.037c-5.58-11.312-0.098-22.675,5.385-34.036
		l-8.309-2.796c0,0,2.754-2.847,5.53-0.025c2.754-2.847-2.776-2.821-5.541-2.81l-0.013-2.834c2.765-0.013,2.765-0.013,2.765-0.013
		c-5.555-5.645-8.345-11.301-8.381-19.802c0,0,2.765-0.013,2.753-2.847c-2.766,0.014-2.766,0.014-2.766,0.014
		c-0.012-2.835-0.012-2.835,2.74-5.684c0,0,0,0,2.767-0.01l2.765-0.015l-0.012-2.834c2.74-5.681-5.555-5.644-8.332-8.465l0,0
		l2.765-0.014c-0.012-2.834-0.024-5.669-0.024-5.669s0,0,2.766-0.012l-2.766,0.012l-0.013-2.832
		c2.754-2.849,5.507-5.695,8.271-5.707c-2.776-2.82-5.542-2.81-5.53,0.024l0,0c-0.023-5.667-2.802-8.489-0.073-17.005l-2.766,0.012
		c-0.013-2.833,2.741-5.68,5.494-8.526c-5.53,0.026-5.555-5.643-2.803-8.491c2.766-0.012,2.778,2.822,5.543,2.811
		c-5.555-5.643,2.716-11.35,5.47-14.195l2.776,2.822c-2.776-2.822-2.776-2.822-2.789-5.657l-5.519,2.858
		c-0.012-2.834-0.012-2.834,2.754-2.848l-2.766,0.016c-0.014-2.836,2.753-2.848,2.74-5.682c0,0,0,0-2.776-2.821l0,0l2.766-0.013
		c2.752-2.848,0,0-2.778-2.822l0.014,2.835l-2.765,0.013l0,0l0,0l0,0l-5.557-5.643l-0.012-2.834c5.53-0.027,8.283-2.873,8.283-2.873
		c0.013,2.834-2.753,2.846-5.529,0.023l2.765-0.014l-2.777-2.82c0,0-2.753,2.846-5.519,2.859l0,0l-0.013-2.835l0,0
		c-0.023-5.669,5.494-8.526,8.26-8.54l-8.345-11.299c2.765-0.014,5.543,2.81,5.543,2.81c-8.321-5.631,8.295-0.039-0.036-8.503
		c-2.767,0.012-2.767,0.012-5.532,0.025c0,0,0,0-0.012-2.834l2.752-2.848c2.754-2.846,2.754-2.846-0.024-5.669l0,0
		c-0.012-2.833-0.012-2.833-0.023-5.667l5.53-0.026c2.729-8.515-2.85-19.826-2.887-28.33c-2.754,2.846-13.813,2.896-13.826,0.062
		l8.296-0.037c-5.542-2.809-2.765,0.013-5.53,0.024c2.766-0.012,2.766-0.012,5.519-2.858c0,0-2.766,0.013-2.777-2.821
		c2.765-0.012,5.53-0.025,5.542,2.81l-2.789-5.655c2.765-0.015,2.765-0.015,8.296-0.04c-5.543-2.809,8.259-8.54-0.049-11.336
		l2.766-0.013c-0.049-11.335-2.826-14.159-2.863-22.662c-8.296,0.039-5.543-2.809-11.086-5.617
		c2.742-5.683,8.236-14.209,8.211-19.878c-2.791-5.655-5.543-2.81-11.073-2.784c8.296-0.038,5.493-8.526,11.048-2.883
		c-0.036-8.505-2.813-11.326-8.392-22.637c-2.767,0.012-5.519,2.86-5.519,2.86c-0.013-2.834,2.741-5.682,5.506-5.693l0,0
		c-11.11-11.287,19.233-28.432,5.359-39.705l0,0l-8.344-11.3c-0.025-5.668,5.542,2.809,11.061-0.048
		c-11.111-11.288,2.691-17.018-5.641-25.483c22.085-8.603-2.875-25.496,10.914-34.06l-5.53,0.024
		c-5.543-2.81,2.752-2.848,2.741-5.682c-2.766,0.014-5.52,2.86-8.297,0.038c-5.615-19.816,8.113-42.55,10.781-65.238
		c11.049-2.884,8.283-2.872,2.741-5.681c2.766-0.012,5.53-0.024,5.518-2.86c-5.53,0.025-8.296,0.037-5.555-5.643l2.766-0.014
		c-2.777-2.821-2.79-5.655-2.802-8.489c2.752-2.846,2.752-2.846-0.024-5.669l5.542,2.81c-2.777-2.823-0.049-11.338-5.604-16.982
		c-0.012-2.835-0.012-2.835-0.023-5.668l0,0c-0.013-2.833-0.025-5.668-2.802-8.489c-0.014-2.835-2.79-5.657-2.79-5.657
		c2.765-0.013,5.53-0.024,5.541,2.81c5.52-2.858-0.048-11.336-5.578-11.312c-0.012-2.834,5.53-0.024,8.284-2.872
		c2.751-2.847-8.332-8.467-2.814-11.325c0,0,2.765-0.013,2.776,2.821c-2.776-2.821-0.048-11.335-5.565-8.477l0,0l0,0
		c2.752-2.846-0.037-8.504-2.814-11.324c-0.012-2.834-0.012-2.834,2.742-5.682c-8.308-2.796,2.729-8.515-8.346-11.299l2.766-0.013
		c5.53-0.024,5.518-2.858,5.506-5.692c2.753-2.846,2.753-2.846,2.74-5.681l2.767-0.013c-0.025-5.67-2.814-11.325-5.604-16.981
		c-0.025-5.668-11.109-11.286,2.703-14.183c-2.775-2.822-2.801-8.491-5.578-11.313c-0.012-2.833,2.729-8.515,2.704-14.184
		l2.765-0.013c-0.012-2.834-2.776-2.82-2.789-5.655c-0.012-2.834,2.741-5.682,2.729-8.515c-2.752,2.847-8.295,0.038-11.072-2.785
		c2.753-2.847-8.332-8.464,2.741-5.681l0,0c11.048-2.884,8.259-8.54,8.247-11.375l-8.296,0.037
		c-0.014-2.834-0.024-5.668-0.024-5.668c2.753-2.846,2.729-8.515-0.048-11.337l0,0l-0.014-2.834l-0.012-2.834
		c-0.013-2.833-2.804-8.491-0.049-11.336l0,0l0,0c0,0,2.752-2.846,5.518-2.86c-2.74,5.684-2.766,0.014-5.53,0.026l0,0l0,0l0,0
		l8.295-0.037c2.729-8.516,2.717-11.35-0.085-19.841l5.542,2.81c-0.023-5.668-22.145-5.568-22.17-11.237l11.05-2.883
		c-0.037-8.504,10.975-19.89-0.123-28.343c2.767-0.013,5.531-0.025,5.543,2.808c-0.024-5.668,8.223-17.042-8.356-14.133
		c11.061-0.051-0.036-8.503-2.826-14.158l8.296-0.037c-11.073-2.785-13.851-5.606-16.64-11.263c0,0,2.766-0.011,5.531-0.025
		c-0.014-2.833-8.308-2.796-2.803-8.491l5.543,2.811c-0.013-2.835-0.013-2.835-2.79-5.656l2.753-2.847l-8.308-2.797l0.013,2.836
		l-2.766,0.011c-2.777-2.82-0.023-5.668,2.729-8.514c5.531-0.024,0.024,5.668,8.308,2.796c-0.012-2.834-0.024-5.668-2.79-5.657l0,0
		c0,0,0,0-2.765,0.014c-0.013-2.835-2.776-2.823-2.789-5.657c0,0,0,0,2.765-0.013c5.494-8.527-8.344-11.299-0.072-17.006
		c2.765-0.012,2.765-0.012,5.529-0.023c0.024,5.668,0.049,11.336,0.049,11.336c8.296-0.037,8.271-5.705,19.357-0.086
		c-8.321-5.633-22.184-14.073-16.665-16.932c0,0,0,0,2.765-0.012l0,0l-0.012-2.835c-0.013-2.833,2.753-2.845,2.753-2.845
		c5.53-0.026,2.741-5.683,2.729-8.517c-8.296,0.038-5.542-2.808-13.827,0.063c0,0,0,0,0.014,2.834l0,0l0,0
		c0.012,2.834,0.012,2.834,0.023,5.668c-2.766,0.013-2.777-2.821-2.777-2.821l-0.012-2.836c0,0,0,0,2.752-2.846l-2.765,0.013
		c-2.776-2.821-2.789-5.656-5.555-5.644c8.271-5.706,11.024-8.552,16.555-8.577c-2.802-8.49-2.838-16.994-13.924-22.611
		l-0.012-2.836l2.765-0.011c2.766-0.013,0.012,2.834,2.776,2.821c-2.789-5.656-0.061-14.172-11.12-14.122l0,0
		c5.506-5.694,11.072,2.784,8.271-5.705l2.765-0.014c16.53-14.245-24.984-22.56-5.701-39.652l-2.753,2.845
		c2.753-2.845,2.74-5.68,2.729-8.515l5.531-0.023l5.53-0.026l0,0l-2.804-8.489l-5.518,2.859l-2.765,0.013
		c2.741-5.682-0.048-11.337-0.073-17.006c0,0,0,0,2.766-0.012c0,0,2.752-2.847,5.518-2.859c-8.308-2.797,5.506-5.693-5.566-8.478
		c2.766-0.011-0.013-2.834,8.283-2.872c-2.777-2.821-5.531,0.024-8.296,0.037c-11.085-5.618,10.999-14.221-2.862-22.659l0,0
		l2.765-0.014l-5.554-5.644l-2.777-2.823c-5.556-5.642,13.776-11.398,8.209-19.876l2.766-0.013l0,0l-2.766,0.013
		c0,0-0.012-2.834-2.777-2.822l-5.529,0.025l0,0l-0.013-2.834c2.765-0.013,5.53-0.025,8.308,2.797
		c-0.013-2.834-5.555-5.644-8.332-8.467c0,0,0,0,2.766-0.013l0,0c2.765-0.012,5.541,2.81,8.307,2.798
		c-2.789-5.656-5.578-11.313-11.109-11.287l-2.777-2.821l0,0c2.766-0.013,8.297-0.037,11.061-0.049
		c-2.777-2.823-2.777-2.823-5.555-5.644c5.531-0.025,11.061-0.051,11.036-5.719c-0.013-2.834-2.777-2.821-5.554-5.644l0,0
		l-2.778-2.821c0,0-2.765,0.013-5.53,0.024l0,0c0.013,2.835-2.753,2.847-8.283,2.872l-0.012-2.834
		c-13.826,0.063-27.664-2.709-35.924,5.831l8.32,5.631l-5.52,2.86l-0.023-5.668c-5.518,2.858,0.023,5.668,2.79,5.656
		c-2.767,0.012-5.53,0.023-5.519,2.859l11.085,5.618c-5.53,0.025-11.073-2.783-13.826,0.063c5.554,5.643,11.062-0.051,13.839,2.771
		c-5.519,2.86-11.049,2.885-5.507,5.692c-2.765,0.014-5.529,0.025-5.542-2.809c2.777,2.82,2.803,8.491,8.332,8.466
		c-8.283,2.872,2.803,8.49-11.023,8.552c2.766-0.012,8.319,5.631,11.098,8.453c-13.85-5.606,0.049,11.337-16.555,8.577
		c13.85,5.606,5.604,16.98,13.922,22.612c0,0-2.765,0.012-2.777-2.822c0.013,2.834-5.506,5.694-8.27,5.706
		c11.06-0.048,13.85,5.606,19.393,8.415c-11.037,5.719-13.839-2.772-22.121,0.101c8.295-0.037,8.331,8.466,16.615,5.594
		c-8.271,5.704-2.741,5.681-13.803,5.73c13.826-0.062,2.777,2.822,11.085,5.619c-5.506,5.693-13.825,0.062-8.271,5.704
		c-2.74,5.682-8.296,0.039-8.296,0.039c0.024,5.668,11.073,2.783,16.603,2.758c2.791,5.657-8.282,2.873-13.801,5.731
		c2.79,5.657,11.098,8.452,11.11,11.288c-2.767,0.012-2.767,0.012-5.53,0.024c8.319,5.63,0.061,14.17,11.133,16.956l-2.766,0.012
		c2.766-0.012,2.766-0.012,5.531-0.024l0.013,2.834c2.765-0.013,2.776,2.821,5.542,2.81c-2.766,0.011-8.295,0.037-8.307-2.796
		l-2.768,0.011l0,0l0,0l2.768-0.011l0,0c0.012,2.833,2.777,2.821,2.789,5.655l0,0c0.012,2.834,2.79,5.657,5.579,11.312
		c-5.53,0.024-2.802-8.49-11.073-2.783l2.73-8.517c-13.802,5.731-0.014-2.833-13.826,0.063c-2.729,8.515,5.565,8.477,2.837,16.993
		c5.543,2.809,8.296-0.038,13.826-0.062c8.344,11.3-24.85,8.614-13.753,17.068c5.542,2.81,13.838,2.772,13.85,5.607l0,0l0,0
		c0,0,0.014,2.834-2.752,2.846l-8.309-2.797c0.037,8.504,16.615,5.593,8.346,11.301c-5.532,0.024-2.791-5.657-5.555-5.645
		c-8.26,8.54,5.555,5.645,5.578,11.311l-8.295,0.038c2.802,8.491,8.369,16.968,11.17,25.459c-2.766,0.013-5.543-2.81-8.295,0.037
		c5.579,11.311,0.097,22.673-5.385,34.035l8.307,2.797c0,0-2.753,2.848-5.53,0.024c-2.753,2.846,2.777,2.823,5.543,2.81l0.013,2.835
		c-2.766,0.012-2.766,0.012-2.766,0.012c5.555,5.644,8.357,14.133,8.381,19.801c0,0-2.766,0.014-2.752,2.848
		c2.765-0.013,2.765-0.013,2.765-0.013c0.013,2.834,0.013,2.834-2.741,5.681c0,0,0,0-2.766,0.013l-2.766,0.013l0.013,2.834
		c-2.741,5.68,5.556,5.642,8.332,8.465l0,0l-2.765,0.013c0.012,2.834,0.024,5.668,0.024,5.668s0,0-2.767,0.014l2.767-0.014
		l0.012,2.835c-2.753,2.847-2.741,5.681-8.271,5.705c2.776,2.823,5.541,2.81,5.53-0.024l0,0c0.024,5.668,2.802,8.491-2.692,17.018
		l2.766-0.013c0.013,2.834-2.74,5.682-5.494,8.528c5.531-0.025,5.555,5.643,2.803,8.49c-2.766,0.011-2.777-2.823-5.543-2.81
		c8.319,5.631-2.717,11.35-2.703,14.185l-2.778-2.821c2.778,2.821,2.778,2.821,2.79,5.655l5.518-2.858
		c0.013,2.833,0.013,2.833-2.753,2.846l2.766-0.013c0.013,2.834-2.753,2.848-2.741,5.682c0,0,0,0,2.777,2.821l0,0l-2.765,0.013
		c-2.753,2.847,0,0,2.765-0.013l-0.023-5.669l0,0l0,0l0,0l0,0l5.565,8.479c0,0,0.013,2.834,0.024,5.668
		c-5.529,0.026-8.282,2.872-8.271,5.706c-0.013-2.834,2.765-0.013,5.53-0.024l-2.766,0.013l2.777,2.823c0,0,2.754-2.847,5.52-2.86
		l0,0l0.012,2.836l0,0c0.024,5.668-8.26,8.539-11.024,8.551l8.344,11.301c-2.765,0.013-5.543-2.81-5.543-2.81
		c8.321,5.63-8.296,0.037,0.037,8.502c2.765-0.013,2.765-0.013,5.53-0.024c0,0,0,0,0.012,2.834l-2.752,2.845
		c-2.754,2.847-2.754,2.847,0.023,5.67l0,0c0.014,2.834,0.014,2.834,0.025,5.668l-5.531,0.024
		c-2.729,8.514,2.851,19.826,2.887,28.331c2.754-2.848,13.814-2.896,13.826-0.063l-8.295,0.038c5.543,2.81,2.766-0.013,5.53-0.024
		c-2.765,0.013-2.765,0.013-5.519,2.858c0,0,2.766-0.013,2.778,2.821c-2.767,0.013-5.532,0.026-5.544-2.808l2.79,5.655
		c-2.765,0.013-2.765,0.013-8.296,0.038c5.543,2.81-8.259,8.54,0.049,11.338l-2.765,0.012c0.048,11.336,2.826,14.159,2.862,22.661
		c8.296-0.037,5.543,2.81,11.086,5.618c-2.742,5.683-8.235,14.209-8.211,19.878c2.79,5.657,5.543,2.81,11.073,2.785
		c-8.297,0.037-5.494,8.526-11.048,2.883c0.036,8.503,2.813,11.323,8.393,22.636c2.766-0.013,5.52-2.858,5.52-2.858
		c0.012,2.834-2.742,5.679-5.507,5.694l0,0c11.108,11.286-19.235,28.429-5.36,39.704l0,0l8.345,11.299
		c0.024,5.668-5.542-2.81-11.061,0.051c8.321,5.63-5.469,14.194,2.862,22.66c-22.084,8.603,2.875,25.496-10.912,34.06l5.529-0.025
		c5.542,2.809-2.753,2.848-2.74,5.683c2.766-0.014,5.518-2.861,8.295-0.038c5.616,19.814-8.112,42.55-10.779,65.237
		c0.012,2.834,2.789,5.657,5.555,5.643c-2.766,0.014-5.531,0.025-5.518,2.859c5.529-0.024,8.295-0.037,5.555,5.645l-2.766,0.012
		c-0.012-2.834,0,0,2.777,2.821c-2.754,2.848-2.754,2.848,0.023,5.668l-5.543-2.81c2.778,2.823,0.049,11.339,5.604,16.98
		c0.013,2.836,0.013,2.836,0.025,5.669l0,0c0.012,2.834,0.023,5.669,2.802,8.49c0.012,2.834,2.789,5.656,2.789,5.656
		c-2.765,0.012-5.53,0.024-5.542-2.809c-5.518,2.857,0.049,11.335,5.579,11.311c0.013,2.834-5.53,0.024-8.282,2.872
		c-2.753,2.848,8.331,8.467,2.813,11.325c0,0-2.765,0.014-2.777-2.821c2.777,2.821,0.049,11.337,5.566,8.477l0,0l0,0
		c-2.753,2.847,0.037,8.503,2.813,11.325c0.012,2.833,0.012,2.833-2.74,5.682c8.308,2.795-2.729,8.513,8.344,11.299l-2.766,0.012
		c-5.531,0.026-5.518,2.861-5.506,5.695c-2.766,0.014-5.519,2.858-5.506,5.692l-2.766,0.013c0.024,5.668,2.814,11.326,5.604,16.981
		c0.024,5.668,11.109,11.287-2.704,14.183c2.778,2.822,2.802,8.49,5.579,11.312c0.013,2.834-2.729,8.516-2.703,14.184l-2.766,0.015
		c0.012,2.835,2.777,2.819,2.789,5.654c0.013,2.835-2.74,5.68-2.729,8.515c2.753-2.847,8.296-0.037,11.072,2.783
		c-2.752,2.847,8.333,8.467-2.74,5.682l0,0c-11.072-2.784-8.283,2.872-8.259,8.54l8.296-0.037c0.012,2.834,0.023,5.668,0.023,5.668
		c-2.752,2.847-2.729,8.515,0.049,11.337l0,0c0,0,0,0,0.012,2.834l0.013,2.833c0.013,2.836,2.802,8.492,0.049,11.339l0,0l0,0
		c0,0-2.766,0.013-5.53,0.024c5.542,2.81,5.566,8.478,8.332,8.465l0,0l0.012,2.834l0,0l-8.295,0.04
		c-2.729,8.514-2.717,11.347,0.086,19.839l-5.543-2.811c0.024,5.669,22.145,5.568,22.17,11.238l-11.049,2.883
		c0.037,8.504-10.975,19.891,0.122,28.343c-2.765,0.013-5.53,0.023-5.543-2.81c0.024,5.669-8.222,17.043,8.355,14.132
		c-11.06,0.052,0.038,8.505,2.827,14.161l-8.296,0.038c11.073,2.782,13.851,5.604,16.64,11.261c0,0-2.766,0.014-5.531,0.024
		c0.014,2.835,8.309,2.796,2.803,8.491l-5.543-2.809c0.012,2.833,0.012,2.833,2.791,5.654l-2.754,2.846l5.53-0.023l-0.013-2.836
		l2.766-0.012c2.777,2.822,0.024,5.668-2.74,5.681c-5.531,0.024-0.025-5.669-8.309-2.797c0.013,2.835,0.025,5.669,2.79,5.657l0,0
		c0,0,0,0,2.766-0.013c0.013,2.834,2.776,2.82,2.79,5.654c0,0,0,0-2.766,0.013c-5.494,8.529,8.344,11.301,2.838,16.993
		c-2.765,0.013-2.765,0.013-5.531,0.025c-0.023-5.668-0.048-11.338-0.048-11.338c-8.296,0.036-8.271,5.707-19.356,0.088
		c5.543,2.81,16.64,11.262,13.899,16.943c0,0,0,0-2.765,0.013l0,0l0.012,2.833c0.012,2.835-2.753,2.847-2.753,2.847
		c-5.531,0.025-2.741,5.682-2.729,8.515c8.296-0.037,5.542,2.81,13.825-0.063c0,0,0,0-0.012-2.833l0,0l0,0
		c-0.013-2.834-0.013-2.834-0.025-5.668c2.767-0.015,2.778,2.819,2.778,2.819l0.012,2.835c0,0,0,0-2.753,2.846l2.766-0.012
		c0.012,2.835,2.776,2.822,2.789,5.655c-5.518,2.859-11.024,8.554-16.554,8.579c2.79,5.656,2.837,16.991,13.923,22.611
		c0.012,2.834,0.012,2.834,0.024,5.669l-2.766,0.013c-2.765,0.014-0.012-2.836-2.776-2.821c2.789,5.655,2.813,11.324,11.121,14.12
		l0,0c-5.506,5.694-8.307-2.796-8.27,5.706l-2.766,0.013c-16.531,14.246,24.996,25.396,5.713,42.488l2.753-2.846
		c0.012,2.832-2.741,5.68-2.729,8.515l-5.532,0.024l-5.529,0.024l0,0l0.023,5.669l5.52-2.859l2.766-0.012
		c0.024,5.669,2.802,8.49,2.826,14.157c0,0,0,0-2.766,0.014c-2.754,2.845-5.506,5.693-8.283,2.872
		c5.542,2.81-5.506,5.693,5.566,8.478c-2.766,0.012,0.012,2.835-8.283,2.872c2.778,2.82,5.531-0.025,8.297-0.037
		c8.319,5.631-11,14.221,2.862,22.661l0,0l-2.766,0.013l5.544,2.81l2.777,2.821c5.554,5.644-16.543,11.412-10.977,19.89
		l-2.765,0.013l0,0l2.765-0.013c0,0,0.012,2.833,2.777,2.821l5.531-0.024l0,0l0.012,2.834c-2.765,0.013-5.53,0.025-8.309-2.798
		c2.778,2.823,5.556,5.646,8.333,8.467c0,0,0,0-2.765,0.012l0,0c-2.767,0.013-5.544-2.808-8.309-2.797
		c2.777,2.822,2.801,8.492,8.344,11.301l13.875,11.272l0,0c-2.766,0.014-8.296,0.038-11.061,0.052
		c2.766-0.014,5.543,2.809,5.543,2.809c-5.531,0.024-11.061,0.049-11.036,5.719c0.012,2.834,2.776,2.821,5.555,5.644l0,0
		l2.776,2.822C1728.18,1444.193,1730.944,1444.179,1730.944,1444.179z M1770.105,262.109L1770.105,262.109l2.766-0.013
		c0.013,2.836,0.013,2.836-2.754,2.847L1770.105,262.109z M1713.341,1209.015
		C1713.341,1209.015,1713.354,1211.849,1713.341,1209.015l-2.765,0.013c-0.014-2.834-0.014-2.834,2.753-2.846
		C1713.341,1209.015,1713.341,1209.015,1713.341,1209.015z M1755.16,1288.186L1755.16,1288.186c2.753-2.846,5.531-0.025,5.531-0.025
		S1757.926,1288.172,1755.16,1288.186z M1763.065,1197.454C1763.065,1197.454,1763.078,1200.288,1763.065,1197.454
		C1763.078,1200.288,1763.078,1200.288,1763.065,1197.454L1763.065,1197.454z M1763.041,1191.784
		c-2.766,0.014-5.53,0.026-5.53,0.026c2.765-0.014,2.753-2.847,5.507-5.693C1763.029,1188.952,1763.029,1188.952,1763.041,1191.784z
		 M1777.391,670.212l-5.519,2.859l-2.777-2.821c0,0-0.012-2.834,2.754-2.847L1777.391,670.212z M1749.859,55.298L1749.859,55.298
		l2.766-0.012C1752.625,55.287,1752.625,55.287,1749.859,55.298z M1752.6,49.618L1752.6,49.618c2.777,2.822,2.777,2.822,2.777,2.822
		L1752.6,49.618z M1728.286,182.938C1728.286,182.938,1728.297,185.773,1728.286,182.938c-2.753,2.847-5.53,0.025-5.53,0.025
		S1725.521,182.951,1728.286,182.938z M1717.615,273.684C1717.615,273.684,1717.604,270.849,1717.615,273.684
		C1717.604,270.849,1717.615,273.684,1717.615,273.684L1717.615,273.684z M1717.64,279.352c2.767-0.013,5.531-0.024,5.531-0.024
		c-2.765,0.011-2.753,2.845-5.519,2.858C1717.652,282.186,1717.652,282.186,1717.64,279.352z M1706.068,803.746l5.519-2.857
		l2.777,2.82c0,0,0.013,2.835-2.753,2.847L1706.068,803.746z M1733.587,1415.826L1733.587,1415.826l-2.765,0.014
		C1730.822,1415.839,1730.822,1415.839,1733.587,1415.826z M1728.082,1421.52c-2.766,0.011-2.777-2.822-2.777-2.822
		L1728.082,1421.52C1730.848,1421.506,1730.848,1421.506,1728.082,1421.52z"/>
	<path fill="#FFFFFF" d="M1770.873,1084.046L1770.873,1084.046L1770.873,1084.046z"/>
	<path fill="#FFFFFF" d="M1719.701,1401.717C1719.714,1404.552,1722.478,1404.541,1719.701,1401.717
		C1722.478,1404.541,1722.478,1404.541,1719.701,1401.717C1722.466,1401.706,1719.701,1401.717,1719.701,1401.717z"/>
	<path fill="#FFFFFF" d="M1741.441,26.995L1741.441,26.995c2.766-0.013,2.766-0.013,5.531-0.026L1741.441,26.995z"/>
	<path fill="#FFFFFF" d="M1781.764,1044.319C1778.999,1044.331,1778.999,1044.331,1781.764,1044.319
		C1781.776,1047.151,1781.764,1044.319,1781.764,1044.319z"/>
	<path fill="#FFFFFF" d="M1706.176,185.873c2.766-0.013,5.531-0.026,8.284-2.873
		C1706.176,185.873,1706.152,180.205,1706.176,185.873z"/>
	<path fill="#FFFFFF" d="M1703.706,897.289c2.765-0.015,5.519-2.859,5.519-2.859s0,0-2.766,0.013L1703.706,897.289z"/>
	<path fill="#FFFFFF" d="M1759.313,324.512L1759.313,324.512L1759.313,324.512z"/>
	<path fill="#FFFFFF" d="M1761.797,259.312L1761.797,259.312C1761.797,259.312,1759.031,259.325,1761.797,259.312L1761.797,259.312
		L1761.797,259.312z"/>
	<path fill="#FFFFFF" d="M1722.186,1336.518l2.766-0.014l0,0L1722.186,1336.518z"/>
	<path fill="#FFFFFF" d="M1719.786,1421.558L1719.786,1421.558L1719.786,1421.558L1719.786,1421.558z"/>
	<path fill="#FFFFFF" d="M1722.563,1424.379L1722.563,1424.379L1722.563,1424.379z"/>
	<path fill="#FFFFFF" d="M1722.404,1387.534c0.013,2.834-5.505,5.694-5.494,8.528l2.766-0.015
		C1716.898,1393.228,1727.936,1387.509,1722.404,1387.534z"/>
	<polygon fill="#FFFFFF" points="1776.648,1140.708 1773.858,1135.049 1773.884,1140.719 	"/>
	<polygon fill="#FFFFFF" points="1776.501,463.314 1773.723,460.493 1773.723,460.493 	"/>
	<path fill="#FFFFFF" d="M1712.573,387.078L1712.573,387.078C1712.573,387.078,1709.807,387.09,1712.573,387.078z"/>
	<path fill="#FFFFFF" d="M1760.98,69.419C1760.98,69.419,1760.969,66.585,1760.98,69.419
		C1760.969,66.585,1760.98,69.419,1760.98,69.419L1760.98,69.419z"/>
	<path fill="#FFFFFF" d="M1742.004,1444.131L1742.004,1444.131c-2.765,0.013-2.765,0.013-5.53,0.023L1742.004,1444.131z"/>
	<path fill="#FFFFFF" d="M1701.683,426.807L1701.683,426.807L1701.683,426.807z"/>
	<path fill="#FFFFFF" d="M1777.27,1285.252c-2.765,0.012-5.53,0.024-8.283,2.871
		C1774.517,1288.098,1777.294,1290.92,1777.27,1285.252z"/>
	<path fill="#FFFFFF" d="M1779.741,573.836c-2.765,0.014-5.519,2.859-5.519,2.859s0,0,2.766-0.011L1779.741,573.836z"/>
	<path fill="#FFFFFF" d="M1721.369,1146.625L1721.369,1146.625L1721.369,1146.625z"/>
	<path fill="#FFFFFF" d="M1718.885,1211.825C1721.649,1211.811,1721.662,1214.646,1718.885,1211.825
		C1721.649,1211.811,1721.649,1211.811,1718.885,1211.825C1721.649,1211.811,1721.649,1211.811,1718.885,1211.825L1718.885,1211.825
		z"/>
	<path fill="#FFFFFF" d="M1758.508,137.453l-2.766,0.013l0,0L1758.508,137.453z"/>
	<path fill="#FFFFFF" d="M1763.66,49.568C1763.66,49.568,1760.896,49.581,1763.66,49.568L1763.66,49.568L1763.66,49.568z"/>
	<path fill="#FFFFFF" d="M1758.118,46.758L1758.118,46.758C1760.896,49.581,1760.883,46.747,1758.118,46.758z"/>
	<path fill="#FFFFFF" d="M1761.054,86.426c-0.013-2.836,5.507-5.694,2.729-8.516l-2.765,0.013
		C1766.548,77.898,1755.511,83.616,1761.054,86.426z"/>
	<polygon fill="#FFFFFF" points="1706.798,330.418 1709.588,336.074 1706.811,333.252 	"/>
	<polygon fill="#FFFFFF" points="1704.181,1007.823 1706.971,1013.48 1706.957,1010.646 	"/>
</g>
<g>
	<path fill="#FFFFFF" d="M41.473,46.862L41.473,46.862c0,0,3.439,2.753,3.471,8.283l-3.41,2.776
		c0.075,13.826-3.29,24.899,7.047,35.924l6.809-8.32l3.456,5.518l-6.854,0.024c3.456,5.519,6.854-0.024,6.838-2.789
		c0.016,2.765,0.03,5.53,3.456,5.519l6.792-11.087c0.029,5.531-3.364,11.074,0.075,13.826c3.397-5.541-3.486-11.049,3.352-13.838
		c3.442,2.753,3.474,8.284,6.867,2.74c0.015,2.767,0.031,5.531-3.396,5.544c3.411-2.777,10.262-2.802,10.232-8.333
		c3.472,8.284,10.263-2.802,10.339,11.025c-0.016-2.766,6.807-8.32,10.217-11.098c-6.777,13.85,13.705-0.049,10.371,16.555
		c3.35-13.839,17.099-5.592,23.905-13.912c0,0,0.016,2.766-3.41,2.778c3.426-0.014,6.883,5.506,6.896,8.271
		c-0.059-11.061,6.778-13.851,10.173-19.394c6.915,11.037-3.35,13.839,0.121,22.122c-0.044-8.296,10.233-8.331,6.762-16.614
		c3.458,5.517,3.442,2.751,6.914,11.036c-0.075-13.826,3.409-2.778,6.791-11.087c6.883,5.507,0.074,13.826,6.897,8.271
		c10.323,8.259,3.503,13.814,3.503,13.814c6.852-0.024,3.364-11.073,3.333-16.604c6.839-2.79,3.473,8.283,6.929,13.801
		c3.41-2.776,10.218-11.097,13.645-11.109c0.017,2.766,0.017,2.766,0.03,5.531c6.807-8.321,17.13-0.062,20.497-11.135l0.016,2.766
		c-0.016-2.766-0.016-2.766-0.031-5.531l3.428-0.012c-0.015-2.766,10.263-2.802,10.247-5.566c0.016,2.766,3.457,5.518,3.457,5.518
		l0.029,5.531l-17.13,0.061c0,0-0.016-2.766,0,0l-0.016-2.766l0,0c3.427-0.013,3.411-2.777,6.836-2.79l0,0
		c3.426-0.013,10.249-5.566,13.676-5.578c0.029,5.53-10.263,2.802-3.366,11.073l-6.867-2.742c6.929,13.802-3.427,0.013,0.075,13.826
		c10.294,2.729,10.248-5.566,20.542-2.838c3.396-5.542-0.046-8.296-0.075-13.826c13.658-8.344,10.414,24.852,20.616,10.988
		c3.396-5.542,3.351-13.838,6.778-13.851l0,0l0,0c0,0,3.427-0.013,3.44,2.753l-3.365,11.073c10.278-0.036,6.762-16.615,13.659-8.345
		c0.029,5.531-6.837,2.791-6.822,5.556c6.896,8.271,3.396-5.543,10.246-5.566l0.048,8.296c10.264-2.802,20.51-8.369,30.774-11.171
		c0.016,2.765-3.396,5.543,0.045,8.296c13.674-5.58,27.411-0.098,41.145,5.385l3.381-8.309c0,0,3.44,2.754,0.029,5.53
		c3.441,2.754,3.411-2.776,3.397-5.541l3.425-0.013c0.016,2.765,0.016,2.765,0.016,2.765c6.823-5.555,13.661-8.345,23.938-8.381
		c0,0,0.015,2.765,3.44,2.753c-0.016-2.766-0.016-2.766-0.016-2.766c3.427-0.012,3.427-0.012,6.869,2.74c0,0,0,0,0.014,2.767
		l0.017,2.765l3.427-0.012c6.866,2.74,6.821-5.555,10.232-8.332l0,0l0.016,2.765c3.426-0.012,6.853-0.024,6.853-0.024
		s0,0,0.015,2.766l-0.015-2.766l3.425-0.013c3.442,2.754,6.884,5.507,6.898,8.271c3.409-2.776,3.396-5.542-0.029-5.53l0,0
		c6.852-0.023,10.262-2.802,20.556-0.073l-0.014-2.766c3.424-0.013,6.866,2.741,10.308,5.494c-0.032-5.53,6.82-5.555,10.264-2.803
		c0.014,2.766-3.411,2.778-3.397,5.543c6.821-5.555,13.72,2.716,17.161,5.47l-3.412,2.776c3.412-2.776,3.412-2.776,6.838-2.789
		l-3.455-5.519c3.426-0.012,3.426-0.012,3.441,2.754l-0.018-2.766c3.429-0.014,3.442,2.753,6.868,2.74c0,0,0,0,3.411-2.776l0,0
		l0.015,2.766c3.442,2.752,0,0,3.411-2.778l-3.426,0.014l-0.017-2.765l0,0l0,0l0,0l6.822-5.557l3.427-0.012
		c0.031,5.53,3.473,8.283,3.473,8.283c-3.428,0.013-3.441-2.753-0.029-5.529l0.016,2.765l3.41-2.777c0,0-3.439-2.753-3.456-5.519
		l0,0l3.427-0.013l0,0c6.853-0.023,10.308,5.494,10.323,8.26l13.658-8.345c0.017,2.765-3.396,5.543-3.396,5.543
		c6.808-8.321,0.048,8.295,10.28-0.036c-0.016-2.767-0.016-2.767-0.031-5.532c0,0,0,0,3.427-0.012l3.441,2.752
		c3.439,2.754,3.439,2.754,6.853-0.024l0,0c3.425-0.012,3.425-0.012,6.852-0.023l0.03,5.53c10.294,2.729,23.968-2.85,34.248-2.887
		c-3.44-2.754-3.502-13.813-0.075-13.826l0.045,8.296c3.396-5.542-0.016-2.765-0.029-5.53c0.014,2.766,0.014,2.766,3.455,5.519
		c0,0-0.015-2.766,3.411-2.777c0.015,2.765,0.03,5.53-3.396,5.542l6.836-2.789c0.018,2.765,0.018,2.765,0.048,8.296
		c3.396-5.543,10.323,8.259,13.704-0.049l0.015,2.766c13.703-0.049,17.117-2.826,27.395-2.863
		c-0.047-8.296,3.396-5.543,6.791-11.086c6.869,2.742,17.176,8.236,24.03,8.211c6.835-2.791,3.396-5.543,3.364-11.073
		c0.046,8.296,10.308,5.493,3.486,11.048c10.279-0.036,13.69-2.813,27.363-8.392c-0.015-2.767-3.457-5.519-3.457-5.519
		c3.427-0.013,6.869,2.741,6.884,5.506l0,0c13.644-11.11,34.369,19.233,47.997,5.359l0,0l13.66-8.344
		c6.853-0.025-3.396,5.542,0.059,11.061c13.646-11.111,20.573,2.691,30.806-5.641c10.398,22.085,30.819-2.875,41.173,10.914
		l-0.029-5.53c3.396-5.543,3.441,2.752,6.868,2.741c-0.016-2.766-3.457-5.52-0.046-8.297c23.954-5.615,51.438,8.113,78.863,10.781
		c3.486,11.049,3.472,8.283,6.867,2.741c0.014,2.766,0.029,5.53,3.457,5.518c-0.031-5.53-0.045-8.296,6.82-5.555l0.019,2.766
		c3.41-2.777,6.837-2.79,10.262-2.802c3.44,2.752,3.44,2.752,6.853-0.024l-3.396,5.542c3.413-2.777,13.707-0.049,20.528-5.604
		c3.427-0.012,3.427-0.012,6.852-0.023l0,0c3.427-0.013,6.853-0.025,10.263-2.802c3.427-0.014,6.838-2.79,6.838-2.79
		c0.017,2.765,0.03,5.53-3.396,5.541c3.455,5.52,13.703-0.048,13.674-5.578c3.427-0.012,0.029,5.53,3.472,8.284
		c3.442,2.751,10.234-8.332,13.69-2.814c0,0,0.017,2.765-3.41,2.776c3.41-2.776,13.702-0.048,10.247-5.565l0,0l0,0
		c3.439,2.752,10.279-0.037,13.689-2.814c3.427-0.012,3.427-0.012,6.869,2.742c3.379-8.308,10.293,2.729,13.658-8.346l0.015,2.766
		c0.03,5.53,3.456,5.518,6.883,5.506c3.439,2.753,3.439,2.753,6.866,2.74L1121,95.56c6.854-0.025,13.689-2.814,20.528-5.604
		c6.852-0.025,13.643-11.109,17.145,2.703c3.411-2.775,10.264-2.801,13.676-5.578c3.426-0.012,10.294,2.729,17.146,2.704
		l0.016,2.765c3.425-0.012,3.409-2.776,6.836-2.789c3.426-0.012,6.867,2.741,10.294,2.729c-3.441-2.752-0.045-8.295,3.367-11.072
		c3.44,2.753,10.232-8.332,6.867,2.741l0,0c3.485,11.048,10.323,8.259,13.75,8.247l-0.046-8.296
		c3.427-0.014,6.853-0.024,6.853-0.024c3.441,2.753,10.294,2.729,13.705-0.048l0,0l3.427-0.014l3.427-0.012
		c3.425-0.013,10.264-2.804,13.703-0.049l0,0l0,0c0,0,3.44,2.752,3.457,5.518c-6.869-2.74-0.017-2.766-0.03-5.53l0,0l0,0l0,0
		l0.044,8.295c10.295,2.729,13.721,2.717,23.984-0.085l-3.395,5.542c6.851-0.023,6.73-22.145,13.583-22.17l3.485,11.05
		c10.28-0.037,24.043,10.975,34.263-0.123c0.015,2.767,0.03,5.531-3.395,5.543c6.852-0.024,20.601,8.223,17.085-8.356
		c0.061,11.061,10.277-0.036,17.114-2.826l0.044,8.296c3.367-11.073,6.778-13.851,13.616-16.64c0,0,0.014,2.766,0.029,5.531
		c3.427-0.014,3.381-8.308,10.265-2.803l-3.398,5.543c3.428-0.013,3.428-0.013,6.838-2.79l3.442,2.753l3.38-8.308l-3.428,0.013
		l-0.014-2.766c3.41-2.777,6.853-0.023,10.291,2.729c0.031,5.531-6.851,0.024-3.379,8.308c3.425-0.012,6.852-0.024,6.838-2.79l0,0
		c0,0,0,0-0.016-2.765c3.426-0.013,3.412-2.776,6.838-2.789c0,0,0,0,0.016,2.765c10.308,5.494,13.658-8.344,20.557-0.072
		c0.015,2.765,0.015,2.765,0.029,5.529c-6.853,0.024-13.704,0.049-13.704,0.049c0.046,8.296,6.897,8.271,0.104,19.357
		c6.809-8.321,17.012-22.184,20.467-16.665c0,0,0,0,0.014,2.765l0,0l3.428-0.012c3.427-0.013,3.441,2.753,3.441,2.753
		c0.031,5.53,6.869,2.741,10.295,2.729c-0.045-8.296,3.395-5.542-0.076-13.827c0,0,0,0-3.426,0.014l0,0l0,0
		c-3.427,0.012-3.427,0.012-6.852,0.023c-0.017-2.766,3.408-2.777,3.408-2.777l3.43-0.012c0,0,0,0,3.439,2.752l-0.016-2.765
		c3.41-2.776,6.838-2.789,6.822-5.555c6.897,8.271,10.339,11.024,10.368,16.555c10.263-2.802,20.543-2.838,27.335-13.924
		l3.427-0.012l0.014,2.765c0.017,2.766-3.426,0.012-3.41,2.776c6.838-2.789,17.132-0.061,17.071-11.12l0,0
		c6.884,5.506-3.365,11.072,6.897,8.271l0.016,2.765c17.221,16.53,27.271-24.984,47.935-5.701l-3.44-2.753
		c3.44,2.753,6.866,2.74,10.294,2.729l0.028,5.531l0.032,5.53l0,0l10.262-2.804l-3.456-5.518l-0.016-2.765
		c6.868,2.741,13.704-0.048,20.56-0.073c0,0,0,0,0.014,2.766c0,0,3.44,2.752,3.457,5.518c3.381-8.308,6.882,5.506,10.248-5.566
		c0.014,2.766,3.426-0.013,3.472,8.283c3.41-2.777-0.029-5.531-0.046-8.296c6.791-11.085,17.191,10.999,27.393-2.862l0,0
		l0.016,2.765l6.822-5.554l3.413-2.777c6.82-5.556,13.779,13.776,24.027,8.209l0.017,2.766l0,0l-0.017-2.766
		c0,0,3.427-0.012,3.411-2.777l-0.03-5.529l0,0l3.427-0.013c0.016,2.765,0.03,5.53-3.381,8.308
		c3.426-0.013,6.821-5.555,10.234-8.332c0,0,0,0,0.015,2.766l0,0c0.015,2.765-3.396,5.541-3.382,8.307
		c6.838-2.789,13.676-5.578,13.645-11.109l3.411-2.777l0,0c0.016,2.766,0.045,8.297,0.059,11.061
		c3.412-2.777,3.412-2.777,6.823-5.555c0.029,5.531,0.061,11.061,6.912,11.036c3.426-0.013,3.411-2.777,6.823-5.554l0,0l3.41-2.778
		c0,0-0.017-2.765-0.03-5.53l0,0c-3.426,0.013-3.441-2.753-3.471-8.283l3.426-0.012c-0.076-13.826,3.275-27.664-7.049-35.924
		l-6.807,8.32l-3.458-5.52l6.853-0.023c-3.456-5.518-6.853,0.023-6.838,2.79c-0.015-2.767-0.028-5.53-3.456-5.519l-6.791,11.085
		c-0.03-5.53,3.364-11.073-0.075-13.826c-6.822,5.554,0.062,11.062-3.35,13.839c-3.459-5.519-3.488-11.049-6.883-5.507
		c-0.016-2.765-0.029-5.529,3.396-5.542c-3.409,2.777-10.265,2.803-10.233,8.332c-3.472-8.283-10.263,2.803-10.34-11.023
		c0.016,2.766-6.807,8.319-10.217,11.098c6.777-13.85-13.704,0.049-10.369-16.555c-6.777,13.85-20.526,5.604-27.336,13.922
		c0,0-0.014-2.765,3.413-2.777c-3.427,0.013-6.884-5.506-6.897-8.27c0.06,11.06-6.777,13.85-10.172,19.393
		c-6.913-11.037,3.352-13.839-0.121-22.121c0.045,8.295-10.234,8.331-6.762,16.615c-6.896-8.271-6.869-2.741-6.928-13.803
		c0.074,13.826-3.412,2.777-6.793,11.085c-6.881-5.506-0.075-13.825-6.896-8.271c-6.868-2.74-0.047-8.296-0.047-8.296
		c-6.853,0.024-3.364,11.073-3.334,16.603c-6.838,2.791-3.474-8.282-6.928-13.801c-6.839,2.79-10.218,11.098-13.646,11.11
		c-0.015-2.767-0.015-2.767-0.029-5.53c-6.806,8.319-17.13,0.061-20.497,11.133l-0.014-2.766c0.014,2.766,0.014,2.766,0.03,5.531
		l-3.427,0.013c0.016,2.765-3.41,2.776-3.396,5.542c-0.014-2.766-0.046-8.295,3.381-8.307l-0.014-2.768l0,0l0,0l0.014,2.768l0,0
		c-3.427,0.012-3.41,2.777-6.836,2.789l0,0c-3.426,0.012-6.839,2.79-13.676,5.579c-0.029-5.53,10.264-2.802,3.366-11.073
		l10.294,2.73c-6.928-13.802,3.425-0.014-0.075-13.826c-10.294-2.729-10.248,5.565-20.542,2.837
		c-3.396,5.543,0.045,8.296,0.075,13.826c-13.661,8.344-10.415-24.85-20.634-13.753c-3.396,5.542-3.351,13.838-6.777,13.85l0,0l0,0
		c0,0-3.426,0.014-3.439-2.752l3.381-8.309c-10.28,0.037-6.762,16.615-13.661,8.346c-0.03-5.532,6.838-2.791,6.821-5.555
		c-10.322-8.26-6.821,5.555-13.672,5.578l-0.045-8.295c-10.265,2.802-20.513,8.369-30.777,11.17
		c-0.016-2.766,3.396-5.543-0.045-8.295c-13.673,5.579-27.409,0.097-41.144-5.385l-3.381,8.307c0,0-3.442-2.753-0.03-5.53
		c-3.439-2.753-3.412,2.777-3.396,5.543l-3.426,0.013c-0.017-2.766-0.017-2.766-0.017-2.766c-6.821,5.555-17.085,8.357-23.937,8.381
		c0,0-0.016-2.766-3.441-2.752c0.016,2.765,0.016,2.765,0.016,2.765c-3.426,0.013-3.426,0.013-6.867-2.741c0,0,0,0-0.017-2.766
		l-0.015-2.766l-3.426,0.013c-6.867-2.741-6.821,5.556-10.234,8.332l0,0l-0.016-2.765c-3.425,0.012-6.852,0.024-6.852,0.024
		s0,0-0.016-2.767l0.016,2.767l-3.426,0.012c-3.441-2.753-6.868-2.741-6.897-8.271c-3.413,2.776-3.396,5.541,0.029,5.53l0,0
		c-6.852,0.024-10.264,2.802-20.572-2.692l0.016,2.766c-3.425,0.013-6.867-2.74-10.31-5.494c0.031,5.531-6.821,5.555-10.262,2.803
		c-0.014-2.766,3.411-2.777,3.396-5.543c-6.807,8.319-13.721-2.717-17.146-2.703l3.41-2.778c-3.41,2.778-3.41,2.778-6.837,2.79
		l3.456,5.518c-3.426,0.013-3.426,0.013-3.441-2.753l0.016,2.766c-3.426,0.013-3.441-2.753-6.868-2.741c0,0,0,0-3.41,2.777l0,0
		l-0.016-2.765c-3.441-2.753,0,0,0.016,2.765l6.853-0.023l0,0l0,0l0,0l0,0l-10.248,5.565c0,0-3.426,0.013-6.853,0.024
		c-0.032-5.529-3.471-8.282-6.897-8.271c3.427-0.013,0.016,2.765,0.029,5.53l-0.016-2.766l-3.412,2.777c0,0,3.441,2.754,3.458,5.52
		l0,0l-3.429,0.012l0,0c-6.852,0.024-10.321-8.26-10.337-11.024l-13.66,8.344c-0.016-2.765,3.396-5.543,3.396-5.543
		c-6.807,8.321-0.045-8.296-10.277,0.037c0.016,2.765,0.016,2.765,0.029,5.53c0,0,0,0-3.426,0.012l-3.44-2.752
		c-3.441-2.754-3.441-2.754-6.854,0.023l0,0c-3.427,0.014-3.427,0.014-6.852,0.025l-0.03-5.531
		c-10.292-2.729-23.967,2.851-34.247,2.887c3.442,2.754,3.501,13.814,0.075,13.826l-0.046-8.295c-3.396,5.543,0.017,2.766,0.03,5.53
		c-0.016-2.765-0.016-2.765-3.455-5.519c0,0,0.016,2.766-3.41,2.778c-0.017-2.767-0.032-5.532,3.395-5.544l-6.837,2.79
		c-0.017-2.765-0.017-2.765-0.046-8.296c-3.396,5.543-10.323-8.259-13.705,0.049l-0.014-2.765
		c-13.705,0.048-17.117,2.826-27.395,2.862c0.045,8.296-3.396,5.543-6.791,11.086c-6.87-2.742-17.178-8.235-24.03-8.211
		c-6.838,2.79-3.396,5.543-3.367,11.073c-0.044-8.297-10.308-5.494-3.484-11.048c-10.278,0.036-13.689,2.813-27.362,8.393
		c0.015,2.766,3.454,5.52,3.454,5.52c-3.425,0.012-6.866-2.742-6.884-5.507l0,0c-13.643,11.108-34.366-19.235-47.995-5.36l0,0
		l-13.659,8.345c-6.853,0.024,3.396-5.542-0.062-11.061c-6.806,8.321-17.16-5.469-27.393,2.862
		c-10.399-22.084-30.819,2.875-41.173-10.912l0.03,5.529c-3.396,5.542-3.442-2.753-6.869-2.74c0.017,2.766,3.457,5.518,0.046,8.295
		c-23.954,5.616-51.438-8.112-78.863-10.779c-3.426,0.012-6.838,2.789-6.82,5.555c-0.018-2.766-0.031-5.531-3.457-5.518
		c0.029,5.529,0.046,8.295-6.823,5.555l-0.015-2.766c3.426-0.012,0,0-3.41,2.777c-3.442-2.754-3.442-2.754-6.853,0.023l3.396-5.543
		c-3.413,2.778-13.706,0.049-20.527,5.604c-3.428,0.013-3.428,0.013-6.853,0.025l0,0c-3.427,0.012-6.853,0.023-10.264,2.802
		c-3.426,0.012-6.838,2.789-6.838,2.789c-0.014-2.765-0.029-5.53,3.396-5.542c-3.455-5.518-13.703,0.049-13.674,5.579
		c-3.427,0.013-0.029-5.53-3.472-8.282c-3.442-2.753-10.235,8.331-13.69,2.813c0,0-0.017-2.765,3.41-2.777
		c-3.41,2.777-13.704,0.049-10.247,5.566l0,0l0,0c-3.441-2.753-10.278,0.037-13.689,2.813c-3.427,0.012-3.427,0.012-6.869-2.74
		c-3.379,8.308-10.291-2.729-13.658,8.344l-0.015-2.766c-0.032-5.531-3.458-5.518-6.885-5.506c-0.016-2.766-3.455-5.519-6.881-5.506
		l-0.017-2.766c-6.851,0.024-13.69,2.814-20.526,5.604c-6.852,0.024-13.645,11.109-17.146-2.704
		c-3.411,2.778-10.264,2.802-13.675,5.579c-3.427,0.013-10.294-2.729-17.146-2.703l-0.018-2.766
		c-3.426,0.012-3.408,2.777-6.835,2.789c-3.427,0.013-6.866-2.74-10.293-2.729c3.44,2.753,0.046,8.296-3.364,11.072
		c-3.44-2.752-10.235,8.333-6.869-2.74l0,0c3.367-11.072-3.471-8.283-10.323-8.259l0.046,8.296
		c-3.426,0.012-6.852,0.023-6.852,0.023c-3.442-2.752-10.294-2.729-13.705,0.049l0,0c0,0,0,0-3.426,0.012l-3.427,0.013
		c-3.427,0.013-10.264,2.802-13.705,0.049l0,0l0,0c0,0-0.016-2.766-0.029-5.53c-3.397,5.542-10.249,5.566-10.233,8.332l0,0
		l-3.427,0.012l0,0l-0.047-8.295c-10.292-2.729-13.718-2.717-23.981,0.086l3.396-5.543c-6.852,0.024-6.731,22.145-13.585,22.17
		l-3.485-11.049c-10.279,0.037-24.044-10.975-34.261,0.122c-0.016-2.765-0.03-5.53,3.396-5.543
		c-6.854,0.024-20.604-8.222-17.085,8.355c-0.062-11.06-10.28,0.038-17.118,2.827l-0.046-8.296
		c-3.364,11.073-6.775,13.851-13.613,16.64c0,0-0.016-2.766-0.029-5.531c-3.427,0.014-3.381,8.309-10.264,2.803l3.396-5.543
		c-3.426,0.012-3.426,0.012-6.836,2.791l-3.439-2.754l0.027,5.53l3.428-0.013l0.016,2.766c-3.412,2.777-6.852,0.024-6.868-2.74
		c-0.029-5.531,6.853-0.025,3.381-8.309c-3.426,0.013-6.853,0.025-6.838,2.79l0,0c0,0,0,0,0.015,2.766
		c-3.425,0.013-3.409,2.776-6.835,2.79c0,0,0,0-0.017-2.766c-10.31-5.494-13.66,8.344-20.541,2.838
		c-0.016-2.765-0.016-2.765-0.03-5.531c6.852-0.023,13.705-0.048,13.705-0.048c-0.044-8.296-6.899-8.271-0.105-19.356
		c-3.396,5.543-13.614,16.64-20.481,13.899c0,0,0,0-0.016-2.765l0,0l-3.426,0.012c-3.427,0.012-3.44-2.753-3.44-2.753
		c-0.031-5.531-6.868-2.741-10.294-2.729c0.046,8.296-3.396,5.542,0.075,13.825c0,0,0,0,3.426-0.012l0,0l0,0
		c3.426-0.013,3.426-0.013,6.853-0.025c0.017,2.767-3.409,2.778-3.409,2.778l-3.428,0.012c0,0,0,0-3.44-2.753l0.017,2.766
		c-3.429,0.012-3.413,2.776-6.838,2.789c-3.456-5.518-10.34-11.024-10.371-16.554c-6.837,2.79-20.539,2.837-27.333,13.923
		c-3.427,0.012-3.427,0.012-6.854,0.024l-0.015-2.766c-0.016-2.765,3.428-0.012,3.411-2.776
		c-6.837,2.789-13.689,2.813-17.069,11.121l0,0c-6.885-5.506,3.38-8.307-6.898-8.27l-0.016-2.766
		c-17.221-16.531-30.7,24.996-51.361,5.713l3.44,2.753c-3.426,0.012-6.868-2.741-10.294-2.729l-0.03-5.532l-0.029-5.529l0,0
		l-6.853,0.023l3.456,5.52l0.016,2.766c-6.854,0.024-10.264,2.802-17.115,2.826c0,0,0,0-0.016-2.766
		c-3.44-2.754-6.883-5.506-3.473-8.283c-3.396,5.542-6.881-5.506-10.248,5.566c-0.014-2.766-3.427,0.012-3.472-8.283
		c-3.409,2.778,0.032,5.531,0.045,8.297c-6.807,8.319-17.19-11-27.395,2.862l0,0l-0.015-2.766l-3.396,5.544l-3.41,2.777
		c-6.822,5.554-13.796-16.543-24.044-10.977l-0.016-2.765l0,0l0.016,2.765c0,0-3.425,0.012-3.41,2.777l0.029,5.531l0,0l-3.426,0.012
		c-0.015-2.765-0.03-5.53,3.382-8.309c-3.412,2.778-6.823,5.556-10.234,8.333c0,0,0,0-0.015-2.765l0,0
		c-0.015-2.767,3.395-5.544,3.381-8.309c-3.411,2.777-10.264,2.801-13.66,8.344L62.044,49.554l0,0
		c-0.016-2.766-0.045-8.296-0.062-11.061c0.016,2.766-3.396,5.543-3.396,5.543c-0.03-5.531-0.059-11.061-6.914-11.036
		c-3.425,0.012-3.409,2.776-6.821,5.555l0,0l-3.412,2.776C41.457,44.097,41.473,46.862,41.473,46.862z M1470.422,86.023
		L1470.422,86.023l0.017,2.766c-3.429,0.013-3.429,0.013-3.442-2.754L1470.422,86.023z M325.753,29.258
		C325.753,29.258,322.326,29.271,325.753,29.258l-0.017-2.765c3.427-0.014,3.427-0.014,3.44,2.753
		C325.753,29.258,325.753,29.258,325.753,29.258z M230.046,71.078L230.046,71.078c3.44,2.753,0.03,5.531,0.03,5.531
		S230.063,73.843,230.046,71.078z M339.729,78.983C339.729,78.983,336.303,78.996,339.729,78.983
		C336.303,78.996,336.303,78.996,339.729,78.983L339.729,78.983z M346.582,78.958c-0.017-2.766-0.031-5.53-0.031-5.53
		c0.016,2.765,3.439,2.753,6.882,5.507C350.007,78.947,350.007,78.947,346.582,78.958z M977.085,93.308l-3.456-5.519l3.41-2.777
		c0,0,3.426-0.012,3.441,2.754L977.085,93.308z M1720.427,65.777L1720.427,65.777l0.013,2.766
		C1720.439,68.542,1720.439,68.542,1720.427,65.777z M1727.293,68.517L1727.293,68.517c-3.41,2.777-3.41,2.777-3.41,2.777
		L1727.293,68.517z M1566.129,44.204C1566.129,44.204,1562.7,44.214,1566.129,44.204c-3.442-2.753-0.032-5.53-0.032-5.53
		S1566.113,41.439,1566.129,44.204z M1456.43,33.533C1456.43,33.533,1459.856,33.521,1456.43,33.533
		C1459.856,33.521,1456.43,33.533,1456.43,33.533L1456.43,33.533z M1449.578,33.557c0.016,2.767,0.029,5.531,0.029,5.531
		c-0.014-2.765-3.439-2.753-3.455-5.519C1446.152,33.57,1446.152,33.57,1449.578,33.557z M815.662,21.986l3.455,5.519l-3.409,2.777
		c0,0-3.426,0.013-3.441-2.753L815.662,21.986z M75.749,49.504L75.749,49.504l-0.016-2.765C75.733,46.74,75.733,46.74,75.749,49.504
		z M68.865,44c-0.014-2.766,3.412-2.777,3.412-2.777L68.865,44C68.882,46.765,68.882,46.765,68.865,44z"/>
	<path fill="#FFFFFF" d="M476.821,86.791L476.821,86.791L476.821,86.791z"/>
	<path fill="#FFFFFF" d="M92.804,35.619C89.378,35.631,89.392,38.395,92.804,35.619C89.392,38.395,89.392,38.395,92.804,35.619
		C92.818,38.383,92.804,35.619,92.804,35.619z"/>
	<path fill="#FFFFFF" d="M1754.641,57.359L1754.641,57.359c0.016,2.766,0.016,2.766,0.032,5.531L1754.641,57.359z"/>
	<path fill="#FFFFFF" d="M524.847,97.681C524.832,94.917,524.832,94.917,524.847,97.681
		C521.421,97.694,524.847,97.681,524.847,97.681z"/>
	<path fill="#FFFFFF" d="M1562.58,22.093c0.016,2.766,0.031,5.531,3.474,8.284C1562.58,22.093,1569.432,22.07,1562.58,22.093z"/>
	<path fill="#FFFFFF" d="M702.583,19.624c0.019,2.765,3.457,5.519,3.457,5.519s0,0-0.016-2.766L702.583,19.624z"/>
	<path fill="#FFFFFF" d="M1394.986,75.23L1394.986,75.23L1394.986,75.23z"/>
	<path fill="#FFFFFF" d="M1473.803,77.714L1473.803,77.714C1473.803,77.714,1473.787,74.949,1473.803,77.714L1473.803,77.714
		L1473.803,77.714z"/>
	<path fill="#FFFFFF" d="M171.62,38.103l0.016,2.766l0,0L171.62,38.103z"/>
	<path fill="#FFFFFF" d="M68.82,35.704L68.82,35.704L68.82,35.704L68.82,35.704z"/>
	<path fill="#FFFFFF" d="M65.409,38.48L65.409,38.48L65.409,38.48z"/>
	<path fill="#FFFFFF" d="M109.949,38.322c-3.425,0.013-6.883-5.505-10.31-5.494l0.018,2.766
		C103.066,32.816,109.979,43.853,109.949,38.322z"/>
	<polygon fill="#FFFFFF" points="408.326,92.566 415.165,89.776 408.313,89.801 	"/>
	<polygon fill="#FFFFFF" points="1227.195,92.418 1230.605,89.64 1230.605,89.64 	"/>
	<path fill="#FFFFFF" d="M1319.354,28.491L1319.354,28.491C1319.354,28.491,1319.338,25.724,1319.354,28.491z"/>
	<path fill="#FFFFFF" d="M1703.355,76.898C1703.355,76.898,1706.781,76.886,1703.355,76.898
		C1706.781,76.886,1703.355,76.898,1703.355,76.898L1703.355,76.898z"/>
	<path fill="#FFFFFF" d="M41.532,57.921L41.532,57.921c-0.016-2.765-0.016-2.765-0.03-5.53L41.532,57.921z"/>
	<path fill="#FFFFFF" d="M1271.327,17.6L1271.327,17.6L1271.327,17.6z"/>
	<path fill="#FFFFFF" d="M233.592,93.187c-0.014-2.765-0.029-5.53-3.471-8.283C230.152,90.434,226.74,93.211,233.592,93.187z"/>
	<path fill="#FFFFFF" d="M1093.59,95.659c-0.017-2.765-3.456-5.519-3.456-5.519s0,0,0.015,2.766L1093.59,95.659z"/>
	<path fill="#FFFFFF" d="M401.173,37.287L401.173,37.287L401.173,37.287z"/>
	<path fill="#FFFFFF" d="M322.355,34.802C322.372,37.567,318.945,37.58,322.355,34.802
		C322.372,37.567,322.372,37.567,322.355,34.802C322.372,37.567,322.372,37.567,322.355,34.802L322.355,34.802z"/>
	<path fill="#FFFFFF" d="M1621.113,74.425l-0.017-2.766l0,0L1621.113,74.425z"/>
	<path fill="#FFFFFF" d="M1727.354,79.578C1727.354,79.578,1727.337,76.813,1727.354,79.578L1727.354,79.578L1727.354,79.578z"/>
	<path fill="#FFFFFF" d="M1730.75,74.036L1730.75,74.036C1727.337,76.813,1730.764,76.8,1730.75,74.036z"/>
	<path fill="#FFFFFF" d="M1682.797,76.971c3.429-0.013,6.884,5.507,10.294,2.729l-0.015-2.765
		C1693.106,82.465,1686.193,71.428,1682.797,76.971z"/>
	<polygon fill="#FFFFFF" points="1387.847,22.715 1381.01,25.505 1384.42,22.728 	"/>
	<polygon fill="#FFFFFF" points="568.965,20.098 562.125,22.888 565.552,22.875 	"/>
</g>
<g>
	<path fill="#FFFFFF" d="M1722.406,1432.083L1722.406,1432.083c0,0-3.368-2.753-3.399-8.283l3.341-2.776
		c-0.074-13.826,3.222-24.899-6.902-35.924l-6.668,8.32l-3.385-5.518l6.712-0.024c-3.385-5.519-6.712,0.024-6.696,2.789
		c-0.016-2.765-0.029-5.53-3.386-5.519l-6.652,11.087c-0.028-5.531,3.295-11.074-0.073-13.826
		c-3.327,5.541,3.415,11.049-3.282,13.838c-3.372-2.753-3.403-8.284-6.727-2.74c-0.015-2.767-0.03-5.531,3.326-5.544
		c-3.341,2.777-10.051,2.802-10.022,8.333c-3.4-8.284-10.051,2.802-10.126-11.025c0.016,2.766-6.667,8.32-10.007,11.098
		c6.638-13.85-13.423,0.049-10.157-16.555c-3.281,13.839-16.747,5.592-23.413,13.912c0,0-0.016-2.766,3.34-2.778
		c-3.355,0.014-6.742-5.506-6.755-8.271c0.058,11.061-6.639,13.851-9.963,19.394c-6.772-11.037,3.28-13.839-0.119-22.122
		c0.043,8.296-10.022,8.331-6.622,16.614c-3.388-5.517-3.372-2.751-6.772-11.036c0.073,13.826-3.339,2.778-6.651,11.087
		c-6.74-5.507-0.072-13.826-6.755-8.271c-10.111-8.259-3.431-13.814-3.431-13.814c-6.711,0.024-3.296,11.073-3.265,16.604
		c-6.698,2.79-3.401-8.283-6.786-13.801c-3.34,2.776-10.007,11.097-13.364,11.109c-0.016-2.766-0.016-2.766-0.028-5.531
		c-6.668,8.321-16.778,0.062-20.076,11.135l-0.015-2.766c0.015,2.766,0.015,2.766,0.03,5.531l-3.357,0.012
		c0.015,2.766-10.052,2.802-10.036,5.566c-0.016-2.766-3.386-5.518-3.386-5.518l-0.029-5.531l16.778-0.061c0,0,0.015,2.766,0,0
		l0.015,2.766l0,0c-3.355,0.013-3.34,2.777-6.695,2.79l0,0c-3.355,0.013-10.038,5.566-13.395,5.578
		c-0.028-5.53,10.053-2.802,3.297-11.073l6.727,2.742c-6.786-13.802,3.355-0.013-0.073-13.826
		c-10.082-2.729-10.038,5.566-20.12,2.838c-3.326,5.542,0.045,8.296,0.074,13.826c-13.378,8.344-10.2-24.852-20.191-10.988
		c-3.326,5.542-3.283,13.838-6.64,13.851l0,0l0,0c0,0-3.355,0.013-3.369-2.753l3.296-11.073
		c-10.066,0.036-6.623,16.615-13.378,8.345c-0.028-5.531,6.696-2.791,6.682-5.556c-6.755-8.271-3.325,5.543-10.035,5.566
		l-0.047-8.296c-10.053,2.802-20.088,8.369-30.141,11.171c-0.016-2.765,3.325-5.543-0.045-8.296
		c-13.392,5.58-26.847,0.098-40.298-5.385l-3.311,8.309c0,0-3.369-2.754-0.029-5.53c-3.37-2.754-3.34,2.776-3.327,5.541
		l-3.354,0.013c-0.016-2.765-0.016-2.765-0.016-2.765c-6.683,5.555-13.38,8.345-23.445,8.381c0,0-0.014-2.765-3.37-2.753
		c0.016,2.766,0.016,2.766,0.016,2.766c-3.355,0.012-3.355,0.012-6.728-2.74c0,0,0,0-0.013-2.767l-0.017-2.765l-3.355,0.012
		c-6.726-2.74-6.682,5.555-10.022,8.332l0,0l-0.016-2.765c-3.355,0.012-6.712,0.024-6.712,0.024s0,0-0.014-2.766l0.014,2.766
		l-3.354,0.013c-3.371-2.754-6.741-5.507-6.756-8.271c-3.339,2.776-3.326,5.542,0.028,5.53l0,0
		c-6.71,0.023-10.05,2.802-20.132,0.073l0.013,2.766c-3.354,0.013-6.725-2.741-10.095-5.494c0.031,5.53-6.681,5.555-10.053,2.803
		c-0.014-2.766,3.341-2.778,3.327-5.543c-6.682,5.555-13.438-2.716-16.808-5.47l3.341-2.776c-3.341,2.776-3.341,2.776-6.696,2.789
		l3.385,5.519c-3.356,0.012-3.356,0.012-3.372-2.754l0.019,2.766c-3.358,0.014-3.372-2.753-6.728-2.74c0,0,0,0-3.34,2.776l0,0
		l-0.015-2.766c-3.372-2.752,0,0-3.342,2.778l3.356-0.014l0.016,2.765l0,0l0,0l0,0l-6.682,5.557l-3.356,0.012
		c-0.03-5.53-3.401-8.283-3.401-8.283c3.357-0.013,3.371,2.753,0.029,5.529l-0.016-2.765l-3.34,2.777c0,0,3.369,2.753,3.385,5.519
		l0,0l-3.356,0.013l0,0c-6.712,0.023-10.095-5.494-10.11-8.26l-13.378,8.345c-0.016-2.765,3.327-5.543,3.327-5.543
		c-6.667,8.321-0.047-8.295-10.068,0.036c0.016,2.767,0.016,2.767,0.029,5.532c0,0,0,0-3.355,0.012l-3.37-2.752
		c-3.369-2.754-3.369-2.754-6.712,0.024l0,0c-3.354,0.012-3.354,0.012-6.711,0.023l-0.029-5.53
		c-10.082-2.729-23.475,2.85-33.543,2.887c3.369,2.754,3.43,13.813,0.074,13.826l-0.045-8.296c-3.326,5.542,0.016,2.765,0.029,5.53
		c-0.014-2.766-0.014-2.766-3.384-5.519c0,0,0.015,2.766-3.342,2.777c-0.015-2.765-0.028-5.53,3.327-5.542l-6.695,2.789
		c-0.018-2.765-0.018-2.765-0.047-8.296c-3.325,5.543-10.11-8.259-13.422,0.049l-0.015-2.766
		c-13.421,0.049-16.765,2.826-26.831,2.863c0.046,8.296-3.325,5.543-6.651,11.086c-6.727-2.742-16.822-8.236-23.535-8.211
		c-6.694,2.791-3.327,5.543-3.296,11.073c-0.044-8.296-10.095-5.493-3.413-11.048c-10.068,0.036-13.409,2.813-26.801,8.392
		c0.015,2.767,3.386,5.519,3.386,5.519c-3.355,0.013-6.728-2.741-6.742-5.506l0,0c-13.362,11.11-33.661-19.233-47.009-5.359l0,0
		l-13.379,8.344c-6.711,0.025,3.326-5.542-0.058-11.061c-13.364,11.111-20.148-2.691-30.171,5.641
		c-10.185-22.085-30.187,2.875-40.327-10.914l0.029,5.53c-3.326,5.543-3.37-2.752-6.727-2.741c0.016,2.766,3.388,5.52,0.045,8.297
		c-23.461,5.615-50.377-8.113-77.239-10.781c-3.415-11.049-3.399-8.283-6.726-2.741c-0.015-2.766-0.029-5.53-3.388-5.518
		c0.031,5.53,0.045,8.296-6.681,5.555l-0.017-2.766c-3.34,2.777-6.694,2.79-10.051,2.802c-3.369-2.752-3.369-2.752-6.711,0.024
		l3.326-5.542c-3.341,2.777-13.423,0.049-20.105,5.604c-3.355,0.012-3.355,0.012-6.712,0.023l0,0
		c-3.354,0.013-6.71,0.025-10.051,2.802c-3.355,0.014-6.697,2.79-6.697,2.79c-0.016-2.765-0.028-5.53,3.326-5.541
		c-3.384-5.52-13.422,0.048-13.394,5.578c-3.354,0.012-0.028-5.53-3.399-8.284c-3.371-2.751-10.023,8.332-13.408,2.814
		c0,0-0.016-2.765,3.34-2.776c-3.34,2.776-13.42,0.048-10.036,5.565l0,0l0,0c-3.369-2.752-10.067,0.037-13.407,2.814
		c-3.355,0.012-3.355,0.012-6.728-2.742c-3.312,8.308-10.082-2.729-13.378,8.346l-0.014-2.766c-0.029-5.53-3.385-5.518-6.741-5.506
		c-3.369-2.753-3.369-2.753-6.725-2.74l-0.016-2.767c-6.713,0.025-13.407,2.814-20.106,5.604
		c-6.71,0.025-13.361,11.109-16.791-2.703c-3.341,2.775-10.053,2.801-13.395,5.578c-3.355,0.012-10.081-2.729-16.793-2.704
		l-0.016-2.765c-3.354,0.012-3.339,2.776-6.695,2.789c-3.355,0.012-6.726-2.741-10.082-2.729c3.371,2.752,0.044,8.295-3.297,11.072
		c-3.371-2.753-10.022,8.332-6.727-2.741l0,0c-3.414-11.048-10.111-8.259-13.467-8.247l0.045,8.296
		c-3.356,0.014-6.712,0.024-6.712,0.024c-3.37-2.753-10.082-2.729-13.423,0.048l0,0l-3.356,0.014l-3.355,0.012
		c-3.354,0.013-10.053,2.804-13.422,0.049l0,0l0,0c0,0-3.369-2.752-3.386-5.518c6.728,2.74,0.017,2.766,0.029,5.53l0,0l0,0l0,0
		l-0.043-8.295c-10.083-2.729-13.438-2.717-23.491,0.085l3.326-5.542c-6.711,0.023-6.593,22.145-13.304,22.17l-3.414-11.05
		c-10.068,0.037-23.548-10.975-33.557,0.123c-0.015-2.767-0.03-5.531,3.324-5.543c-6.711,0.024-20.178-8.223-16.733,8.356
		c-0.06-11.061-10.066,0.036-16.763,2.826l-0.043-8.296c-3.298,11.073-6.639,13.851-13.335,16.64c0,0-0.014-2.766-0.029-5.531
		c-3.355,0.014-3.312,8.308-10.053,2.803l3.327-5.543c-3.356,0.013-3.356,0.013-6.696,2.79l-3.372-2.753l-3.31,8.308l3.356-0.013
		l0.014,2.766c-3.34,2.777-6.712,0.023-10.08-2.729c-0.029-5.531,6.711-0.024,3.311-8.308c-3.354,0.012-6.711,0.024-6.697,2.79l0,0
		c0,0,0,0,0.016,2.765c-3.355,0.013-3.343,2.776-6.697,2.789c0,0,0,0-0.016-2.765c-10.095-5.494-13.377,8.344-20.134,0.072
		c-0.015-2.765-0.015-2.765-0.028-5.529c6.711-0.024,13.422-0.049,13.422-0.049c-0.045-8.296-6.755-8.271-0.103-19.357
		c-6.668,8.321-16.661,22.184-20.046,16.665c0,0,0,0-0.014-2.765l0,0l-3.356,0.012c-3.356,0.013-3.37-2.753-3.37-2.753
		c-0.03-5.53-6.728-2.741-10.083-2.729c0.044,8.296-3.325,5.542,0.074,13.827c0,0,0,0,3.355-0.014l0,0l0,0
		c3.356-0.012,3.356-0.012,6.711-0.023c0.016,2.766-3.339,2.777-3.339,2.777l-3.358,0.012c0,0,0,0-3.369-2.752l0.016,2.765
		c-3.34,2.776-6.697,2.789-6.683,5.555c-6.755-8.271-10.125-11.024-10.154-16.555c-10.052,2.802-20.12,2.838-26.771,13.924
		l-3.357,0.012l-0.014-2.765c-0.016-2.766,3.356-0.012,3.341-2.776c-6.697,2.789-16.779,0.061-16.72,11.12l0,0
		c-6.742-5.506,3.295-11.072-6.756-8.271l-0.016-2.765c-16.865-16.53-26.71,24.984-46.947,5.701l3.369,2.753
		c-3.369-2.753-6.726-2.74-10.082-2.729l-0.028-5.531l-0.031-5.53l0,0l-10.05,2.804l3.385,5.518l0.016,2.765
		c-6.728-2.741-13.423,0.048-20.137,0.073c0,0,0,0-0.014-2.766c0,0-3.37-2.752-3.386-5.518c-3.311,8.308-6.74-5.506-10.037,5.566
		c-0.014-2.766-3.355,0.013-3.4-8.283c-3.34,2.777,0.029,5.531,0.045,8.296c-6.651,11.085-16.837-10.999-26.829,2.862l0,0
		l-0.016-2.765l-6.682,5.554l-3.342,2.777c-6.681,5.556-13.496-13.776-23.533-8.209l-0.016-2.766l0,0l0.016,2.766
		c0,0-3.356,0.012-3.342,2.777l0.03,5.529l0,0l-3.355,0.013c-0.015-2.765-0.03-5.53,3.311-8.308
		c-3.355,0.013-6.682,5.555-10.024,8.332c0,0,0,0-0.015-2.766l0,0c-0.014-2.765,3.326-5.541,3.313-8.307
		c-6.697,2.789-13.395,5.578-13.364,11.109l-3.34,2.777l0,0c-0.016-2.766-0.045-8.297-0.058-11.061
		c-3.342,2.777-3.342,2.777-6.682,5.555c-0.029-5.531-0.06-11.061-6.771-11.036c-3.355,0.013-3.34,2.777-6.682,5.554l0,0
		l-3.34,2.778c0,0,0.016,2.765,0.029,5.53l0,0c3.356-0.013,3.371,2.753,3.4,8.283l-3.355,0.012
		c0.075,13.826-3.208,27.664,6.903,35.924l6.667-8.32l3.386,5.52l-6.711,0.023c3.385,5.518,6.711-0.023,6.697-2.79
		c0.014,2.767,0.028,5.53,3.385,5.519l6.651-11.085c0.029,5.53-3.296,11.073,0.073,13.826c6.682-5.554-0.06-11.062,3.282-13.839
		c3.387,5.519,3.416,11.049,6.74,5.507c0.016,2.765,0.029,5.529-3.326,5.542c3.339-2.777,10.053-2.803,10.023-8.332
		c3.4,8.283,10.052-2.803,10.126,11.023c-0.015-2.766,6.667-8.319,10.007-11.098c-6.638,13.85,13.423-0.049,10.155,16.555
		c6.639-13.85,20.104-5.604,26.773-13.922c0,0,0.014,2.765-3.343,2.777c3.356-0.013,6.742,5.506,6.755,8.27
		c-0.058-11.06,6.639-13.85,9.963-19.393c6.771,11.037-3.282,13.839,0.119,22.121c-0.044-8.295,10.023-8.331,6.623-16.615
		c6.754,8.271,6.727,2.741,6.785,13.803c-0.074-13.826,3.341-2.777,6.652-11.085c6.739,5.506,0.073,13.825,6.754,8.271
		c6.727,2.74,0.046,8.296,0.046,8.296c6.712-0.024,3.296-11.073,3.266-16.603c6.697-2.791,3.401,8.282,6.785,13.801
		c6.698-2.79,10.007-11.098,13.365-11.11c0.015,2.767,0.015,2.767,0.028,5.53c6.666-8.319,16.777-0.061,20.075-11.133l0.014,2.766
		c-0.014-2.766-0.014-2.766-0.029-5.531l3.355-0.013c-0.016-2.765,3.341-2.776,3.327-5.542c0.014,2.766,0.045,8.295-3.312,8.307
		l0.014,2.768l0,0l0,0l-0.014-2.768l0,0c3.356-0.012,3.341-2.777,6.695-2.789l0,0c3.355-0.012,6.698-2.79,13.395-5.579
		c0.028,5.53-10.052,2.802-3.297,11.073l-10.082-2.73c6.785,13.802-3.354,0.014,0.073,13.826
		c10.082,2.729,10.037-5.565,20.119-2.837c3.327-5.543-0.044-8.296-0.073-13.826c13.38-8.344,10.2,24.85,20.208,13.753
		c3.327-5.542,3.283-13.838,6.639-13.85l0,0l0,0c0,0,3.355-0.014,3.369,2.752l-3.312,8.309c10.068-0.037,6.623-16.615,13.38-8.346
		c0.029,5.532-6.697,2.791-6.682,5.555c10.111,8.26,6.682-5.555,13.391-5.578l0.045,8.295c10.053-2.802,20.091-8.369,30.144-11.17
		c0.016,2.766-3.327,5.543,0.044,8.295c13.392-5.579,26.845-0.097,40.297,5.385l3.312-8.307c0,0,3.371,2.753,0.028,5.53
		c3.369,2.753,3.343-2.777,3.327-5.543l3.355-0.013c0.016,2.766,0.016,2.766,0.016,2.766c6.682-5.555,16.733-8.357,23.444-8.381
		c0,0,0.016,2.766,3.371,2.752c-0.016-2.765-0.016-2.765-0.016-2.765c3.355-0.013,3.355-0.013,6.727,2.741c0,0,0,0,0.016,2.766
		l0.015,2.766l3.355-0.013c6.725,2.741,6.681-5.556,10.022-8.332l0,0l0.016,2.765c3.355-0.012,6.711-0.024,6.711-0.024
		s0,0,0.016,2.767l-0.016-2.767l3.355-0.012c3.37,2.753,6.727,2.741,6.756,8.271c3.342-2.776,3.326-5.541-0.029-5.53l0,0
		c6.71-0.024,10.053-2.802,20.149,2.692l-0.016-2.766c3.354-0.013,6.726,2.74,10.098,5.494c-0.031-5.531,6.68-5.555,10.05-2.803
		c0.014,2.766-3.341,2.777-3.326,5.543c6.667-8.319,13.438,2.717,16.793,2.703l-3.34,2.778c3.34-2.778,3.34-2.778,6.696-2.79
		l-3.385-5.518c3.355-0.013,3.355-0.013,3.37,2.753l-0.015-2.766c3.354-0.013,3.37,2.753,6.727,2.741c0,0,0,0,3.34-2.777l0,0
		l0.016,2.765c3.37,2.753,0,0-0.016-2.765l-6.712,0.023l0,0l0,0l0,0l0,0l10.037-5.565c0,0,3.356-0.013,6.712-0.024
		c0.031,5.529,3.399,8.282,6.755,8.271c-3.355,0.013-0.014-2.765-0.028-5.53l0.016,2.766l3.342-2.777c0,0-3.371-2.754-3.387-5.52
		l0,0l3.358-0.012l0,0c6.71-0.024,10.108,8.26,10.124,11.024l13.379-8.344c0.016,2.765-3.326,5.543-3.326,5.543
		c6.667-8.321,0.045,8.296,10.066-0.037c-0.016-2.765-0.016-2.765-0.028-5.53c0,0,0,0,3.355-0.012l3.369,2.752
		c3.37,2.754,3.37,2.754,6.713-0.023l0,0c3.355-0.014,3.355-0.014,6.71-0.025l0.029,5.531c10.081,2.729,23.474-2.851,33.542-2.887
		c-3.371-2.754-3.429-13.814-0.073-13.826l0.045,8.295c3.325-5.543-0.016-2.766-0.029-5.53c0.015,2.765,0.015,2.765,3.384,5.519
		c0,0-0.016-2.766,3.34-2.778c0.016,2.767,0.031,5.532-3.324,5.544l6.696-2.79c0.016,2.765,0.016,2.765,0.044,8.296
		c3.326-5.543,10.111,8.259,13.424-0.049l0.013,2.765c13.424-0.048,16.765-2.826,26.831-2.862
		c-0.044-8.296,3.327-5.543,6.651-11.086c6.729,2.742,16.824,8.235,23.535,8.211c6.697-2.79,3.326-5.543,3.297-11.073
		c0.045,8.297,10.097,5.494,3.414,11.048c10.066-0.036,13.406-2.813,26.8-8.393c-0.015-2.766-3.384-5.52-3.384-5.52
		c3.354-0.012,6.724,2.742,6.741,5.507l0,0c13.362-11.108,33.66,19.235,47.009,5.36l0,0l13.377-8.345
		c6.711-0.024-3.326,5.542,0.061,11.061c6.666-8.321,16.806,5.469,26.829-2.862c10.186,22.084,30.187-2.875,40.326,10.912
		l-0.029-5.529c3.325-5.542,3.371,2.753,6.727,2.74c-0.016-2.766-3.387-5.518-0.045-8.295c23.46-5.616,50.377,8.112,77.239,10.779
		c3.354-0.012,6.697-2.789,6.681-5.555c0.017,2.766,0.03,5.531,3.386,5.518c-0.028-5.529-0.044-8.295,6.683-5.555l0.015,2.766
		c-3.355,0.012,0,0,3.34-2.777c3.372,2.754,3.372,2.754,6.712-0.023l-3.327,5.543c3.343-2.778,13.425-0.049,20.105-5.604
		c3.356-0.013,3.356-0.013,6.711-0.025l0,0c3.356-0.012,6.712-0.023,10.052-2.802c3.356-0.012,6.697-2.789,6.697-2.789
		c0.014,2.765,0.029,5.53-3.325,5.542c3.384,5.518,13.421-0.049,13.392-5.579c3.356-0.013,0.029,5.53,3.4,8.282
		c3.372,2.753,10.024-8.331,13.409-2.813c0,0,0.016,2.765-3.341,2.777c3.341-2.777,13.423-0.049,10.037-5.566l0,0l0,0
		c3.37,2.753,10.065-0.037,13.407-2.813c3.355-0.012,3.355-0.012,6.728,2.74c3.31-8.308,10.079,2.729,13.377-8.344l0.015,2.766
		c0.031,5.531,3.387,5.518,6.743,5.506c0.016,2.766,3.384,5.519,6.739,5.506l0.016,2.766c6.71-0.024,13.409-2.814,20.104-5.604
		c6.711-0.024,13.363-11.109,16.793,2.704c3.34-2.778,10.052-2.802,13.393-5.579c3.356-0.013,10.082,2.729,16.794,2.703l0.017,2.766
		c3.355-0.012,3.338-2.777,6.695-2.789c3.355-0.013,6.725,2.74,10.08,2.729c-3.369-2.753-0.044-8.296,3.296-11.072
		c3.369,2.752,10.024-8.333,6.728,2.74l0,0c-3.298,11.072,3.398,8.283,10.11,8.259l-0.044-8.296c3.354-0.012,6.71-0.023,6.71-0.023
		c3.372,2.752,10.082,2.729,13.423-0.049l0,0c0,0,0,0,3.355-0.012l3.355-0.013c3.357-0.013,10.053-2.802,13.424-0.049l0,0l0,0
		c0,0,0.016,2.766,0.028,5.53c3.327-5.542,10.038-5.566,10.022-8.332l0,0l3.356-0.012l0,0l0.046,8.295
		c10.08,2.729,13.436,2.717,23.488-0.086l-3.326,5.543c6.711-0.024,6.593-22.145,13.306-22.17l3.413,11.049
		c10.068-0.037,23.549,10.975,33.557-0.122c0.014,2.765,0.028,5.53-3.327,5.543c6.713-0.024,20.18,8.222,16.733-8.355
		c0.061,11.06,10.068-0.038,16.766-2.827l0.045,8.296c3.295-11.073,6.636-13.851,13.332-16.64c0,0,0.016,2.766,0.029,5.531
		c3.356-0.014,3.312-8.309,10.053-2.803l-3.325,5.543c3.354-0.012,3.354-0.012,6.694-2.791l3.369,2.754l-0.026-5.53l-3.358,0.013
		l-0.014-2.766c3.341-2.777,6.71-0.024,6.726,2.74c0.029,5.531-6.712,0.025-3.312,8.309c3.356-0.013,6.712-0.025,6.697-2.79l0,0
		c0,0,0,0-0.014-2.766c3.354-0.013,3.339-2.776,6.694-2.79c0,0,0,0,0.016,2.766c10.098,5.494,13.38-8.344,20.118-2.838
		c0.016,2.765,0.016,2.765,0.03,5.531c-6.71,0.023-13.423,0.048-13.423,0.048c0.043,8.296,6.757,8.271,0.104,19.356
		c3.326-5.543,13.334-16.64,20.06-13.899c0,0,0,0,0.015,2.765l0,0l3.355-0.012c3.356-0.012,3.369,2.753,3.369,2.753
		c0.031,5.531,6.728,2.741,10.082,2.729c-0.044-8.296,3.327-5.542-0.073-13.825c0,0,0,0-3.354,0.012l0,0l0,0
		c-3.355,0.013-3.355,0.013-6.712,0.025c-0.017-2.767,3.339-2.778,3.339-2.778l3.357-0.012c0,0,0,0,3.369,2.753l-0.016-2.766
		c3.357-0.012,3.343-2.776,6.697-2.789c3.385,5.518,10.127,11.024,10.157,16.554c6.696-2.79,20.116-2.837,26.771-13.923
		c3.356-0.012,3.356-0.012,6.712-0.024l0.015,2.766c0.016,2.765-3.357,0.012-3.34,2.776c6.695-2.789,13.407-2.813,16.718-11.121l0,0
		c6.742,5.506-3.311,8.307,6.756,8.27l0.016,2.766c16.866,16.531,30.067-24.996,50.304-5.713l-3.369-2.753
		c3.354-0.012,6.727,2.741,10.082,2.729l0.029,5.532l0.028,5.529l0,0l6.712-0.023l-3.385-5.52l-0.016-2.766
		c6.713-0.024,10.053-2.802,16.764-2.826c0,0,0,0,0.016,2.766c3.369,2.754,6.74,5.506,3.4,8.283
		c3.326-5.542,6.739,5.506,10.037-5.566c0.014,2.766,3.355-0.012,3.4,8.283c3.339-2.778-0.031-5.531-0.045-8.297
		c6.667-8.319,16.837,11,26.831-2.862l0,0l0.015,2.766l3.326-5.544l3.341-2.777c6.682-5.554,13.511,16.543,23.549,10.977
		l0.016,2.765l0,0l-0.016-2.765c0,0,3.354-0.012,3.34-2.777l-0.028-5.531l0,0l3.355-0.012c0.014,2.765,0.029,5.53-3.313,8.309
		c3.342-2.778,6.683-5.556,10.023-8.333c0,0,0,0,0.015,2.765l0,0c0.015,2.767-3.324,5.544-3.312,8.309
		c3.342-2.777,10.054-2.801,13.379-8.344l13.348-13.875l0,0c0.016,2.766,0.045,8.296,0.061,11.061
		c-0.016-2.766,3.325-5.543,3.325-5.543c0.029,5.531,0.059,11.061,6.772,11.036c3.354-0.012,3.339-2.776,6.68-5.555l0,0l3.342-2.776
		C1722.422,1434.847,1722.406,1432.083,1722.406,1432.083z M322.868,1392.921L322.868,1392.921l-0.016-2.766
		c3.358-0.013,3.358-0.013,3.372,2.754L322.868,1392.921z M1443.978,1449.686
		C1443.978,1449.686,1447.334,1449.673,1443.978,1449.686l0.016,2.765c-3.355,0.014-3.355,0.014-3.369-2.753
		C1443.978,1449.686,1443.978,1449.686,1443.978,1449.686z M1537.714,1407.867L1537.714,1407.867
		c-3.369-2.753-0.028-5.531-0.028-5.531S1537.698,1405.101,1537.714,1407.867z M1430.289,1399.961
		C1430.289,1399.961,1433.645,1399.949,1430.289,1399.961C1433.645,1399.949,1433.645,1399.949,1430.289,1399.961L1430.289,1399.961
		z M1423.577,1399.986c0.016,2.766,0.03,5.53,0.03,5.53c-0.016-2.765-3.369-2.753-6.74-5.507
		C1420.223,1399.998,1420.223,1399.998,1423.577,1399.986z M806.052,1385.636l3.385,5.519l-3.341,2.777c0,0-3.355,0.012-3.37-2.754
		L806.052,1385.636z M78.01,1413.167L78.01,1413.167l-0.014-2.766C77.997,1410.402,77.997,1410.402,78.01,1413.167z
		 M71.285,1410.427L71.285,1410.427c3.34-2.777,3.34-2.777,3.34-2.777L71.285,1410.427z M229.132,1434.741
		C229.132,1434.741,232.49,1434.73,229.132,1434.741c3.371,2.753,0.031,5.53,0.031,5.53S229.147,1437.505,229.132,1434.741z
		 M336.572,1445.412C336.572,1445.412,333.217,1445.423,336.572,1445.412C333.217,1445.423,336.572,1445.412,336.572,1445.412
		L336.572,1445.412z M343.284,1445.387c-0.016-2.767-0.029-5.531-0.029-5.531c0.014,2.765,3.368,2.753,3.384,5.519
		C346.639,1445.375,346.639,1445.375,343.284,1445.387z M964.151,1456.958l-3.384-5.519l3.339-2.777c0,0,3.356-0.013,3.37,2.753
		L964.151,1456.958z M1688.836,1429.44L1688.836,1429.44l0.016,2.765C1688.852,1432.205,1688.852,1432.205,1688.836,1429.44z
		 M1695.578,1434.945c0.013,2.766-3.342,2.777-3.342,2.777L1695.578,1434.945
		C1695.561,1432.179,1695.561,1432.179,1695.578,1434.945z"/>
	<path fill="#FFFFFF" d="M1296.019,1392.154L1296.019,1392.154L1296.019,1392.154z"/>
	<path fill="#FFFFFF" d="M1672.131,1443.326C1675.487,1443.313,1675.474,1440.549,1672.131,1443.326
		C1675.474,1440.549,1675.474,1440.549,1672.131,1443.326C1672.118,1440.561,1672.131,1443.326,1672.131,1443.326z"/>
	<path fill="#FFFFFF" d="M44.5,1421.585L44.5,1421.585c-0.015-2.766-0.015-2.766-0.031-5.531L44.5,1421.585z"/>
	<path fill="#FFFFFF" d="M1248.981,1381.263C1248.996,1384.028,1248.996,1384.028,1248.981,1381.263
		C1252.336,1381.25,1248.981,1381.263,1248.981,1381.263z"/>
	<path fill="#FFFFFF" d="M232.607,1456.851c-0.015-2.766-0.03-5.531-3.402-8.284
		C232.607,1456.851,225.896,1456.875,232.607,1456.851z"/>
	<path fill="#FFFFFF" d="M1074.903,1459.321c-0.019-2.765-3.386-5.519-3.386-5.519s0,0,0.016,2.766L1074.903,1459.321z"/>
	<path fill="#FFFFFF" d="M396.752,1403.714L396.752,1403.714L396.752,1403.714z"/>
	<path fill="#FFFFFF" d="M319.557,1401.23L319.557,1401.23C319.557,1401.23,319.572,1403.996,319.557,1401.23L319.557,1401.23
		L319.557,1401.23z"/>
	<path fill="#FFFFFF" d="M1594.938,1440.841l-0.016-2.766l0,0L1594.938,1440.841z"/>
	<path fill="#FFFFFF" d="M1695.622,1443.241L1695.622,1443.241L1695.622,1443.241L1695.622,1443.241z"/>
	<path fill="#FFFFFF" d="M1698.963,1440.464L1698.963,1440.464L1698.963,1440.464z"/>
	<path fill="#FFFFFF" d="M1655.339,1440.623c3.354-0.013,6.742,5.505,10.098,5.494l-0.018-2.766
		C1662.081,1446.128,1655.311,1435.091,1655.339,1440.623z"/>
	<polygon fill="#FFFFFF" points="1363.104,1386.378 1356.405,1389.168 1363.117,1389.143 	"/>
	<polygon fill="#FFFFFF" points="561.09,1386.526 557.75,1389.304 557.75,1389.304 	"/>
	<path fill="#FFFFFF" d="M470.828,1450.454L470.828,1450.454C470.828,1450.454,470.843,1453.22,470.828,1450.454z"/>
	<path fill="#FFFFFF" d="M94.73,1402.046C94.73,1402.046,91.375,1402.058,94.73,1402.046
		C91.375,1402.058,94.73,1402.046,94.73,1402.046L94.73,1402.046z"/>
	<path fill="#FFFFFF" d="M1722.348,1421.023L1722.348,1421.023c0.016,2.765,0.016,2.765,0.029,5.53L1722.348,1421.023z"/>
	<path fill="#FFFFFF" d="M517.865,1461.344L517.865,1461.344L517.865,1461.344z"/>
	<path fill="#FFFFFF" d="M1534.241,1385.757c0.014,2.765,0.029,5.53,3.399,8.283
		C1537.61,1388.51,1540.951,1385.733,1534.241,1385.757z"/>
	<path fill="#FFFFFF" d="M691.945,1383.286c0.016,2.765,3.385,5.519,3.385,5.519s0,0-0.015-2.766L691.945,1383.286z"/>
	<path fill="#FFFFFF" d="M1370.109,1441.658L1370.109,1441.658L1370.109,1441.658z"/>
	<path fill="#FFFFFF" d="M1447.305,1444.142C1447.289,1441.377,1450.645,1441.365,1447.305,1444.142
		C1447.289,1441.377,1447.289,1441.377,1447.305,1444.142C1447.289,1441.377,1447.289,1441.377,1447.305,1444.142L1447.305,1444.142
		z"/>
	<path fill="#FFFFFF" d="M175.279,1404.519l0.016,2.766l0,0L175.279,1404.519z"/>
	<path fill="#FFFFFF" d="M71.226,1399.367C71.226,1399.367,71.241,1402.131,71.226,1399.367L71.226,1399.367L71.226,1399.367z"/>
	<path fill="#FFFFFF" d="M67.899,1404.909L67.899,1404.909C71.241,1402.131,67.886,1402.144,67.899,1404.909z"/>
	<path fill="#FFFFFF" d="M114.865,1401.973c-3.357,0.013-6.742-5.507-10.082-2.729l0.015,2.765
		C104.768,1396.479,111.538,1407.516,114.865,1401.973z"/>
	<polygon fill="#FFFFFF" points="403.744,1456.229 410.44,1453.439 407.101,1456.216 	"/>
	<polygon fill="#FFFFFF" points="1205.771,1458.846 1212.471,1456.056 1209.114,1456.07 	"/>
</g>
</svg>
