<?xml version="1.0" encoding="utf-8"?>
<!-- Generator: Adobe Illustrator 15.0.2, SVG Export Plug-In . SVG Version: 6.00 Build 0)  -->
<!DOCTYPE svg PUBLIC "-//W3C//DTD SVG 1.1//EN" "http://www.w3.org/Graphics/SVG/1.1/DTD/svg11.dtd">
<svg version="1.1" id="Capa_1" xmlns="http://www.w3.org/2000/svg" xmlns:xlink="http://www.w3.org/1999/xlink" x="0px" y="0px"
	 width="89.07px" height="89.07px" viewBox="0 0 89.07 89.07" enable-background="new 0 0 89.07 89.07" xml:space="preserve">
<g>
	<g id="_x37__1_">
		<g>
			<path fill="#BCBCBC" d="M87.534,42.9h-3.761v-6.028c0-3.59-1.646-6.867-4.512-8.994c-0.162-0.122-0.227-0.32-0.162-0.509
				c0.241-0.714,0.364-1.457,0.364-2.205c0-2.033-0.876-3.938-2.382-5.245v-6.847c0-0.164-0.032-0.319-0.08-0.468h0.692v-1.553
				c0-0.966-0.954-1.749-2.133-1.749h-6.035c-1.178,0-2.131,0.783-2.131,1.749v1.553h0.771c-0.048,0.147-0.08,0.304-0.08,0.468
				v6.791c-1.554,1.31-2.459,3.234-2.459,5.301c0,0.757,0.114,1.494,0.339,2.194c0.061,0.183-0.006,0.378-0.168,0.495
				c-2.877,2.108-4.592,5.479-4.592,9.019V42.9h-5.621v-6.028c0-3.59-1.644-6.867-4.511-8.994c-0.162-0.122-0.227-0.32-0.162-0.509
				c0.243-0.714,0.365-1.457,0.365-2.205c0-2.033-0.877-3.938-2.381-5.245v-6.847c0-0.164-0.032-0.319-0.08-0.468h0.69v-1.553
				c0.002-0.966-0.952-1.749-2.131-1.749h-6.035c-1.178,0-2.132,0.783-2.132,1.749v1.553h0.772c-0.048,0.147-0.08,0.304-0.08,0.468
				v6.791c-1.554,1.312-2.46,3.237-2.46,5.301c0,0.757,0.114,1.494,0.339,2.194c0.061,0.185-0.006,0.38-0.162,0.495
				c-2.879,2.106-4.598,5.479-4.598,9.019V42.9h-5.621v-5.938c0-3.536-1.687-6.898-4.508-8.993
				c-0.165-0.122-0.229-0.323-0.165-0.511c0.242-0.714,0.365-1.456,0.365-2.203c0-2.037-0.876-3.941-2.382-5.246v-6.846
				c0-0.165-0.031-0.32-0.08-0.469h0.693v-1.55c0-0.966-0.955-1.749-2.133-1.749h-6.035c-1.178,0-2.133,0.783-2.133,1.749v1.551
				h0.771c-0.048,0.147-0.08,0.304-0.08,0.469v6.79c-1.554,1.313-2.46,3.237-2.46,5.302c0,0.765,0.117,1.503,0.34,2.188
				c0.061,0.188-0.007,0.385-0.164,0.502c-2.878,2.108-4.597,5.48-4.597,9.019v5.938h-3.3C0.688,42.9,0,43.586,0,44.436v33.797
				c0,0.85,0.688,1.535,1.536,1.535h85.998c0.849,0,1.536-0.688,1.536-1.535V44.436C89.07,43.586,88.383,42.9,87.534,42.9z
				 M64.279,36.871c0-2.563,1.248-5.009,3.339-6.54c1.229-0.901,1.739-2.478,1.271-3.916c-0.125-0.393-0.188-0.813-0.188-1.252
				c0-1.313,0.656-2.525,1.761-3.242c0.436-0.282,0.698-0.769,0.698-1.289v-6.023h2.854v6.064c0,0.513,0.254,0.99,0.68,1.275
				c1.064,0.715,1.701,1.917,1.701,3.215c0,0.41-0.068,0.818-0.203,1.216c-0.492,1.452,0.006,3.046,1.24,3.964
				c2.078,1.542,3.271,3.923,3.271,6.528v6.028H64.279V36.871z M36.095,36.871c0-2.563,1.247-5.009,3.345-6.543
				c1.224-0.902,1.729-2.476,1.266-3.913c-0.126-0.393-0.188-0.813-0.188-1.252c0-1.313,0.659-2.524,1.761-3.244
				c0.436-0.283,0.699-0.768,0.699-1.287v-6.023h2.853v6.064c0,0.513,0.255,0.99,0.683,1.275c1.063,0.715,1.698,1.917,1.698,3.215
				c0,0.41-0.067,0.818-0.203,1.216c-0.491,1.452,0.007,3.046,1.241,3.964c2.078,1.542,3.271,3.923,3.271,6.528v6.028H36.095V36.871
				z M7.91,36.963c0-2.562,1.247-5.008,3.341-6.542c1.225-0.896,1.733-2.47,1.271-3.923c-0.129-0.386-0.192-0.805-0.192-1.242
				c0-1.312,0.66-2.525,1.762-3.245c0.436-0.282,0.698-0.768,0.698-1.286V14.7h2.854v6.065c0,0.513,0.255,0.991,0.681,1.275
				c1.065,0.713,1.701,1.915,1.701,3.214c0,0.409-0.069,0.817-0.204,1.215c-0.492,1.454,0.009,3.048,1.244,3.966
				c2.076,1.542,3.267,3.92,3.267,6.526v5.938H7.91V36.963z M85.998,76.695H3.071V45.972h52.504
				c0.004,0.004,0.009,0.008,0.013,0.013v-0.013h30.41V76.695z M51.506,51.574H39.865c-2.241,0-4.062,1.822-4.062,4.062v2.91
				c0,2.239,1.819,4.063,4.062,4.063h11.641c2.24,0,4.062-1.822,4.062-4.063v-2.91C55.566,53.396,53.746,51.574,51.506,51.574z
				 M52.495,58.546c0,0.546-0.443,0.989-0.989,0.989H39.865c-0.546,0-0.99-0.443-0.99-0.989v-2.91c0-0.546,0.444-0.989,0.99-0.989
				h11.641c0.546,0,0.989,0.443,0.989,0.989V58.546z"/>
		</g>
	</g>
</g>
</svg>
