<?xml version="1.0" encoding="utf-8"?>
<!-- Generator: Adobe Illustrator 16.0.0, SVG Export Plug-In . SVG Version: 6.00 Build 0)  -->
<!DOCTYPE svg PUBLIC "-//W3C//DTD SVG 1.1//EN" "http://www.w3.org/Graphics/SVG/1.1/DTD/svg11.dtd">
<svg version="1.1" xmlns="http://www.w3.org/2000/svg" xmlns:xlink="http://www.w3.org/1999/xlink" x="0px" y="0px"
	 width="35.625px" height="35.879px" viewBox="0 0 35.625 35.879" enable-background="new 0 0 35.625 35.879" xml:space="preserve">
<g id="Слой_1">
	<g>
		<g opacity="0.5">
			<path fill-rule="evenodd" clip-rule="evenodd" fill="#4F4F4F" d="M34.512,18.383c-0.034,9.414-7.576,16.857-17.042,16.818
				C8.302,35.164,0.71,27.517,0.774,18.311C0.844,8.414,8.995,1.276,18.037,1.449C27.107,1.624,34.547,9.156,34.512,18.383z
				 M25.91,17.907c0-2.069,0.006-4.138-0.002-6.208c-0.004-1.297-0.719-2.061-1.991-2.064c-4.164-0.012-8.328-0.012-12.492,0.002
				c-1.227,0.002-2.049,0.742-2.058,1.953c-0.031,4.189-0.033,8.378,0.002,12.566c0.011,1.313,0.819,2.021,2.137,2.022
				c4.089,0.005,8.179,0.003,12.266,0c1.436-0.001,2.132-0.7,2.137-2.138C25.914,21.996,25.91,19.952,25.91,17.907z"/>
			<path fill-rule="evenodd" clip-rule="evenodd" fill="#4F4F4F" d="M12.648,16.738c0,0.703-0.089,1.391,0.015,2.047
				c0.422,2.646,2.828,4.453,5.515,4.201c2.536-0.237,4.534-2.436,4.549-5.006c0.001-0.227,0.008-0.457-0.022-0.68
				c-0.067-0.495,0.128-0.68,0.627-0.67c0.451,0.006,0.703,0.092,0.699,0.623c-0.022,2.043-0.015,4.086-0.007,6.131
				c0.004,0.831-0.546,0.913-1.173,0.913c-2.497,0-4.995,0-7.492-0.001c-0.959-0.001-1.917,0.002-2.875-0.004
				c-1.03-0.01-1.155-0.139-1.156-1.202c-0.003-1.817-0.001-3.632,0-5.448C11.329,16.566,11.383,16.527,12.648,16.738z"/>
			<path fill-rule="evenodd" clip-rule="evenodd" fill="#4F4F4F" d="M17.723,14.781c1.735,0.01,3.11,1.383,3.119,3.117
				c0.008,1.761-1.485,3.236-3.237,3.197c-1.753-0.041-3.113-1.465-3.096-3.242C14.528,16.066,15.883,14.771,17.723,14.781z"/>
			<path fill-rule="evenodd" clip-rule="evenodd" fill="#4F4F4F" d="M20.87,13.095c0-0.201-0.001-0.403,0.001-0.604
				c0.001-0.127-0.023-0.267,0.023-0.375c0.442-1.012,1.347-0.496,2.055-0.585c0.483-0.061,0.986,0.036,1.062,0.685
				c0.021,0.174,0.012,0.352,0.014,0.529c0.011,2.012-0.069,2.09-2.062,2.01c-0.92-0.037-1.081-0.205-1.093-1.13
				C20.868,13.446,20.87,13.271,20.87,13.095z"/>
		</g>
	</g>
</g>
<g id="Слой_2" display="none">
</g>
</svg>
