<?xml version="1.0" encoding="utf-8"?>
<!-- Generator: Adobe Illustrator 15.0.2, SVG Export Plug-In . SVG Version: 6.00 Build 0)  -->
<!DOCTYPE svg PUBLIC "-//W3C//DTD SVG 1.1//EN" "http://www.w3.org/Graphics/SVG/1.1/DTD/svg11.dtd">
<svg version="1.1" id="Слой_1" xmlns="http://www.w3.org/2000/svg" xmlns:xlink="http://www.w3.org/1999/xlink" x="0px" y="0px"
	 width="216px" height="1921.052px" viewBox="848.5 2039.476 216 1921.052" enable-background="new 848.5 2039.476 216 1921.052"
	 xml:space="preserve">
<g>
	<path fill="#FFFFFF" d="M945.031,3960.075L945.031,3960.075c0,0,3.823-3.856,11.503-3.891l3.857,3.823
		c19.2-0.085,34.576,3.688,49.885-7.899l-11.554-7.63l7.663-3.874l0.034,7.681c7.663-3.873-0.034-7.681-3.874-7.664
		c3.84-0.017,7.68-0.033,7.663-3.873l-15.395-7.612c7.681-0.034,15.378,3.772,19.2-0.085c-7.696-3.806-15.343,3.908-19.217-3.755
		c3.823-3.857,11.504-3.892,3.806-7.697c3.841-0.017,7.681-0.034,7.698,3.806c-3.857-3.822-3.891-11.502-11.571-11.469
		c11.503-3.891-3.891-11.502,15.31-11.587c-3.84,0.017-11.555-7.63-15.411-11.452c19.233,7.596-0.068-15.36,22.989-11.622
		c-19.218-3.755-7.765-19.165-19.319-26.794c0,0,3.841-0.018,3.858,3.822c-0.018-3.84,7.646-7.714,11.485-7.731
		c-15.36,0.068-19.234-7.595-26.931-11.4c15.326-7.749,19.217,3.755,30.72-0.136c-11.52,0.051-11.57-11.47-23.073-7.579
		c7.663-3.874,3.822-3.856,15.326-7.747c-19.2,0.084-3.857-3.823-15.395-7.612c7.647-7.714,19.2-0.084,11.486-7.731
		c11.469-11.57,19.184-3.924,19.184-3.924c-0.034-7.68-15.377-3.772-23.057-3.738c-3.875-7.663,11.502-3.891,19.165-7.765
		c-3.856-3.822-15.41-11.452-15.427-15.292c3.84-0.018,3.84-0.018,7.68-0.034c-11.554-7.629-0.085-19.2-15.462-22.972l3.841-0.018
		c-3.841,0.018-3.841,0.018-7.681,0.034l-0.017-3.84c-3.84,0.017-3.891-11.503-7.73-11.485c3.84-0.018,7.662-3.875,7.662-3.875
		l7.681-0.033l0.085,19.199c0,0-3.841,0.018,0,0l-3.841,0.018l0,0c-0.017-3.84-3.856-3.823-3.874-7.663l0,0
		c-0.017-3.84-7.73-11.486-7.747-15.326c7.68-0.034,3.891,11.503,15.377,3.772l-3.807,7.697c19.166-7.766,0.017,3.84,19.2-0.085
		c3.789-11.537-7.73-11.486-3.941-23.022c-7.696-3.807-11.52,0.051-19.2,0.084c-11.587-15.309,34.51-11.672,15.259-23.107
		c-7.696-3.806-19.217-3.755-19.234-7.596l0,0l0,0c0,0-0.017-3.84,3.823-3.856l15.377,3.771
		c-0.051-11.519-23.073-7.578-11.588-15.308c7.681-0.034,3.875,7.662,7.715,7.646c11.485-7.73-7.698-3.806-7.731-11.485
		l11.521-0.051c-3.891-11.504-11.622-22.989-15.513-34.493c3.84-0.017,7.697,3.806,11.521-0.051
		c-7.749-15.325-0.136-30.72,7.477-46.113l-11.537-3.789c0,0,3.823-3.856,7.68-0.034c3.823-3.856-3.856-3.822-7.696-3.806
		l-0.017-3.84c3.84-0.017,3.84-0.017,3.84-0.017c-7.715-7.646-11.588-15.31-11.639-26.829c0,0,3.839-0.017,3.822-3.856
		c-3.84,0.017-3.84,0.017-3.84,0.017c-0.017-3.84-0.017-3.84,3.806-7.697c0,0,0,0,3.841-0.017l3.84-0.018l-0.017-3.84
		c3.806-7.696-7.714-7.646-11.571-11.469l0,0l3.84-0.017c-0.017-3.84-0.033-7.68-0.033-7.68s0,0,3.84-0.017l-3.84,0.017l-0.018-3.84
		c3.824-3.857,7.646-7.714,11.486-7.731c-3.856-3.822-7.696-3.806-7.68,0.034l0,0c-0.033-7.68-3.891-11.503-0.102-23.04l-3.84,0.017
		c-0.018-3.839,3.807-7.696,7.629-11.553c-7.68,0.034-7.714-7.646-3.891-11.504c3.84-0.017,3.857,3.824,7.697,3.808
		c-7.714-7.647,3.771-15.377,7.595-19.235l3.856,3.824c-3.856-3.824-3.856-3.824-3.873-7.664l-7.663,3.874
		c-0.017-3.84-0.017-3.84,3.823-3.857l-3.84,0.018c-0.018-3.84,3.822-3.857,3.806-7.697c0,0,0,0-3.856-3.822l0,0l3.84-0.018
		c3.822-3.856,0,0-3.857-3.822l0.018,3.84l-3.84,0.017l0,0l0,0l0,0l-7.715-7.646l-0.017-3.84c7.681-0.034,11.503-3.892,11.503-3.892
		c0.018,3.841-3.822,3.857-7.679,0.034l3.839-0.018l-3.856-3.822c0,0-3.823,3.856-7.663,3.873l0,0l-0.018-3.84l0,0
		c-0.033-7.68,7.63-11.553,11.47-11.57l-11.588-15.309c3.84-0.018,7.697,3.806,7.697,3.806c-11.554-7.629,11.52-0.051-0.051-11.52
		c-3.841,0.017-3.841,0.017-7.681,0.034c0,0,0,0-0.017-3.84l3.823-3.857c3.823-3.856,3.823-3.856-0.034-7.68l0,0
		c-0.017-3.84-0.017-3.84-0.034-7.68l7.681-0.034c3.789-11.537-3.958-26.862-4.009-38.383c-3.824,3.856-19.184,3.924-19.2,0.084
		l11.52-0.051c-7.696-3.806-3.84,0.018-7.68,0.034c3.84-0.017,3.84-0.017,7.663-3.873c0,0-3.84,0.017-3.857-3.823
		c3.84-0.017,7.68-0.034,7.697,3.806l-3.874-7.662c3.84-0.018,3.84-0.018,11.521-0.051c-7.697-3.807,11.469-11.572-0.067-15.36
		l3.84-0.018c-0.068-15.358-3.925-19.183-3.976-30.702c-11.521,0.051-7.697-3.806-15.395-7.613
		c3.807-7.696,11.437-19.25,11.402-26.93c-3.875-7.663-7.697-3.807-15.377-3.772c11.52-0.051,7.629-11.554,15.343-3.907
		c-0.051-11.521-3.908-15.344-11.655-30.669c-3.84,0.017-7.663,3.874-7.663,3.874c-0.017-3.84,3.807-7.697,7.646-7.714l0,0
		c-15.429-15.292,26.71-38.519,7.442-53.794l0,0l-11.587-15.309c-0.034-7.681,7.696,3.806,15.36-0.067
		c-15.429-15.293,3.738-23.057-7.833-34.526c30.669-11.655-3.992-34.543,15.157-46.147l-7.68,0.034
		c-7.698-3.807,3.822-3.857,3.806-7.697c-3.84,0.018-7.664,3.874-11.521,0.051c-7.798-26.846,11.267-57.649,14.971-88.387
		c15.344-3.908,11.503-3.891,3.807-7.697c3.84-0.017,7.68-0.034,7.662-3.875c-7.68,0.034-11.52,0.051-7.713-7.646l3.84-0.018
		c-3.857-3.822-3.874-7.662-3.891-11.502c3.822-3.857,3.822-3.857-0.034-7.681l7.696,3.807c-3.856-3.824-0.067-15.36-7.781-23.007
		c-0.017-3.84-0.017-3.84-0.033-7.68l0,0c-0.018-3.84-0.034-7.68-3.891-11.502c-0.018-3.839-3.874-7.664-3.874-7.664
		c3.84-0.017,7.68-0.034,7.696,3.807c7.663-3.874-0.067-15.36-7.747-15.326c-0.017-3.84,7.68-0.034,11.503-3.891
		c3.822-3.857-11.57-11.47-3.908-15.343c0,0,3.84-0.018,3.857,3.822c-3.857-3.822-0.068-15.359-7.73-11.485l0,0l0,0
		c3.822-3.856-0.051-11.521-3.908-15.343c-0.017-3.84-0.017-3.84,3.807-7.697c-11.537-3.789,3.789-11.537-11.588-15.309l3.84-0.017
		c7.68-0.034,7.663-3.874,7.646-7.713c3.822-3.857,3.822-3.857,3.806-7.697l3.84-0.017c-0.034-7.681-3.907-15.343-7.781-23.007
		c-0.034-7.68-15.428-15.292,3.755-19.216c-3.856-3.823-3.891-11.504-7.747-15.327c-0.017-3.84,3.789-11.537,3.756-19.217
		l3.839-0.017c-0.017-3.84-3.856-3.823-3.873-7.663s3.806-7.697,3.789-11.537c-3.823,3.857-11.52,0.051-15.377-3.773
		c3.823-3.857-11.57-11.468,3.807-7.697l0,0c15.342-3.907,11.469-11.571,11.452-15.411l-11.52,0.051
		c-0.018-3.84-0.034-7.68-0.034-7.68c3.823-3.857,3.789-11.537-0.067-15.36l0,0l-0.018-3.84l-0.017-3.84
		c-0.017-3.84-3.892-11.504-0.067-15.36l0,0l0,0c0,0,3.822-3.856,7.662-3.874c-3.806,7.698-3.84,0.018-7.68,0.034l0,0l0,0l0,0
		l11.52-0.051c3.789-11.536,3.772-15.376-0.118-26.88l7.696,3.806c-0.033-7.679-30.753-7.544-30.787-15.224l15.344-3.907
		c-0.051-11.521,15.24-26.947-0.17-38.4c3.84-0.017,7.68-0.034,7.697,3.806c-0.034-7.68,11.419-23.091-11.604-19.149
		c15.359-0.068-0.051-11.52-3.925-19.182l11.52-0.051c-15.377-3.773-19.233-7.596-23.107-15.259c0,0,3.84-0.017,7.68-0.034
		c-0.017-3.84-11.536-3.789-3.891-11.504l7.697,3.808c-0.018-3.841-0.018-3.841-3.874-7.664l3.823-3.856l-11.537-3.789l0.018,3.84
		l-3.84,0.017c-3.857-3.823-0.034-7.68,3.789-11.536c7.68-0.034,0.033,7.68,11.536,3.789c-0.017-3.84-0.034-7.68-3.874-7.663l0,0
		c0,0,0,0-3.84,0.017c-0.017-3.84-3.856-3.824-3.873-7.664c0,0,0,0,3.84-0.017c7.629-11.554-11.588-15.31-0.102-23.04
		c3.84-0.017,3.84-0.017,7.68-0.034c0.033,7.68,0.067,15.36,0.067,15.36c11.521-0.051,11.486-7.731,26.881-0.118
		c-11.555-7.63-30.806-19.065-23.142-22.938c0,0,0,0,3.84-0.017l0,0l-0.017-3.84c-0.018-3.84,3.822-3.857,3.822-3.857
		c7.68-0.034,3.807-7.698,3.789-11.538c-11.52,0.051-7.696-3.806-19.2,0.085c0,0,0,0,0.018,3.84l0,0l0,0
		c0.017,3.84,0.017,3.84,0.033,7.681c-3.84,0.017-3.856-3.824-3.856-3.824l-0.017-3.84c0,0,0,0,3.822-3.856l-3.84,0.017
		c-3.856-3.823-3.873-7.663-7.713-7.646c11.485-7.731,15.309-11.588,22.989-11.622c-3.891-11.502-3.941-23.022-19.336-30.635
		l-0.017-3.84l3.84-0.017c3.84-0.017,0.017,3.84,3.856,3.822c-3.874-7.663-0.085-19.2-15.443-19.132l0,0
		c7.646-7.714,15.376,3.772,11.485-7.73l3.84-0.017c22.955-19.301-34.695-30.568-7.917-53.726l-3.822,3.857
		c3.822-3.857,3.806-7.697,3.789-11.537l7.68-0.033l7.68-0.034l0,0l-3.892-11.503l-7.662,3.874l-3.84,0.017
		c3.806-7.697-0.067-15.36-0.102-23.04c0,0,0,0,3.84-0.017c0,0,3.823-3.857,7.663-3.874c-11.537-3.789,7.646-7.714-7.73-11.486
		c3.84-0.017-0.018-3.84,11.503-3.891c-3.857-3.823-7.681,0.034-11.521,0.051c-15.394-7.612,15.275-19.267-3.975-30.702l0,0
		l3.84-0.018l-7.714-7.646l-3.856-3.823c-7.715-7.646,19.131-15.444,11.4-26.931l3.84-0.017l0,0l-3.84,0.017
		c0,0-0.017-3.84-3.856-3.823l-7.68,0.034l0,0l-0.017-3.84c3.84-0.017,7.68-0.034,11.536,3.789c-0.017-3.84-7.714-7.646-11.57-11.47
		c0,0,0,0,3.84-0.017l0,0c3.84-0.017,7.696,3.807,11.536,3.79c-3.873-7.663-7.747-15.327-15.427-15.292l-3.857-3.823l0,0
		c3.841-0.017,11.521-0.051,15.36-0.067c-3.857-3.823-3.857-3.823-7.714-7.646c7.68-0.034,15.359-0.068,15.325-7.748
		c-0.017-3.84-3.856-3.823-7.713-7.646l0,0l-3.857-3.822c0,0-3.84,0.017-7.68,0.033l0,0c0.018,3.84-3.823,3.857-11.503,3.891
		l-0.017-3.84c-19.2,0.085-38.416-3.67-49.885,7.9l11.554,7.629l-7.664,3.874l-0.034-7.68c-7.663,3.874,0.034,7.68,3.874,7.664
		c-3.84,0.017-7.679,0.033-7.663,3.873l15.394,7.612c-7.681,0.034-15.377-3.772-19.2,0.084c7.713,7.646,15.36-0.068,19.217,3.756
		c-7.664,3.874-15.343,3.908-7.647,7.713c-3.84,0.017-7.679,0.034-7.696-3.806c3.856,3.822,3.891,11.503,11.571,11.469
		c-11.503,3.891,3.891,11.503-15.309,11.588c3.84-0.017,11.553,7.629,15.411,11.452c-19.233-7.596,0.068,15.359-22.989,11.621
		c19.233,7.596,7.781,23.006,19.334,30.636c0,0-3.84,0.017-3.857-3.823c0.017,3.84-7.646,7.714-11.485,7.73
		c15.359-0.067,19.234,7.595,26.93,11.401c-15.326,7.747-19.217-3.756-30.719,0.136c11.52-0.051,11.57,11.469,23.074,7.578
		c-11.487,7.73-3.807,7.697-19.167,7.765c19.2-0.085,3.857,3.823,15.393,7.612c-7.646,7.713-19.199,0.084-11.485,7.73
		c-3.806,7.697-11.521,0.051-11.521,0.051c0.034,7.68,15.377,3.772,23.057,3.738c3.875,7.663-11.502,3.891-19.165,7.765
		c3.874,7.663,15.41,11.452,15.427,15.292c-3.84,0.018-3.84,0.018-7.679,0.034c11.553,7.629,0.084,19.199,15.461,22.972
		l-3.841,0.017c3.841-0.017,3.841-0.017,7.681-0.034l0.017,3.84c3.84-0.017,3.856,3.823,7.696,3.806
		c-3.84,0.017-11.519,0.051-11.536-3.789l-3.841,0.017l0,0l0,0l3.841-0.017l0,0c0.017,3.84,3.857,3.823,3.874,7.663l0,0
		c0.017,3.84,3.874,7.663,7.748,15.326c-7.68,0.034-3.891-11.503-15.377-3.772l3.79-11.537c-19.166,7.765-0.017-3.839-19.2,0.085
		c-3.789,11.537,7.73,11.486,3.941,23.023c7.697,3.806,11.52-0.051,19.2-0.084c11.587,15.31-34.509,11.672-19.099,23.124
		c7.697,3.807,19.217,3.756,19.234,7.596l0,0l0,0c0,0,0.017,3.84-3.823,3.856l-11.537-3.789c0.051,11.521,23.073,7.579,11.588,15.31
		c-7.681,0.033-3.875-7.663-7.714-7.646c-11.469,11.57,7.714,7.646,7.748,15.325l-11.52,0.051
		c3.891,11.503,11.622,22.989,15.512,34.493c-3.84,0.017-7.697-3.806-11.52,0.051c7.748,15.325,0.135,30.719-7.477,46.113
		l11.536,3.789c0,0-3.823,3.857-7.68,0.034c-3.823,3.856,3.857,3.823,7.697,3.806l0.017,3.84c-3.84,0.017-3.84,0.017-3.84,0.017
		c7.714,7.647,11.605,19.149,11.639,26.829c0,0-3.84,0.017-3.823,3.857c3.84-0.017,3.84-0.017,3.84-0.017
		c0.017,3.84,0.017,3.84-3.806,7.696c0,0,0,0-3.841,0.018l-3.84,0.017l0.017,3.84c-3.806,7.696,7.714,7.646,11.571,11.47l0,0
		l-3.84,0.017c0.017,3.84,0.034,7.68,0.034,7.68s0,0-3.841,0.017l3.841-0.017l0.017,3.84c-3.824,3.856-3.807,7.696-11.486,7.73
		c3.856,3.824,7.696,3.807,7.68-0.034l0,0c0.034,7.681,3.892,11.504-3.738,23.057l3.84-0.017c0.017,3.84-3.806,7.697-7.629,11.554
		c7.68-0.034,7.713,7.646,3.891,11.502c-3.84,0.017-3.857-3.823-7.697-3.806c11.553,7.629-3.772,15.377-3.755,19.217l-3.857-3.823
		c3.857,3.823,3.857,3.823,3.874,7.663l7.663-3.874c0.017,3.84,0.017,3.84-3.823,3.857l3.84-0.017
		c0.017,3.84-3.823,3.857-3.806,7.697c0,0,0,0,3.857,3.823l0,0l-3.84,0.017c-3.823,3.858,0,0,3.84-0.017l-0.034-7.68l0,0l0,0l0,0
		l0,0l7.73,11.487c0,0,0.017,3.84,0.034,7.68c-7.68,0.034-11.502,3.89-11.486,7.73c-0.017-3.84,3.84-0.017,7.68-0.033l-3.84,0.017
		l3.857,3.824c0,0,3.823-3.858,7.664-3.875l0,0l0.017,3.841l0,0c0.034,7.68-11.47,11.57-15.31,11.587l11.587,15.31
		c-3.84,0.017-7.697-3.807-7.697-3.807c11.554,7.63-11.52,0.051,0.051,11.52c3.84-0.017,3.84-0.017,7.68-0.034c0,0,0,0,0.017,3.84
		l-3.823,3.856c-3.823,3.857-3.823,3.857,0.034,7.681l0,0c0.017,3.84,0.017,3.84,0.034,7.68l-7.68,0.034
		c-3.789,11.536,3.958,26.862,4.009,38.383c3.823-3.857,19.183-3.925,19.2-0.085l-11.521,0.051c7.698,3.807,3.841-0.017,7.681-0.033
		c-3.84,0.017-3.84,0.017-7.664,3.873c0,0,3.841-0.017,3.858,3.823c-3.841,0.017-7.681,0.034-7.698-3.806l3.874,7.663
		c-3.84,0.017-3.84,0.017-11.519,0.051c7.696,3.806-11.47,11.57,0.067,15.36l-3.84,0.017c0.068,15.359,3.925,19.183,3.976,30.703
		c11.519-0.051,7.696,3.806,15.394,7.611c-3.807,7.698-11.436,19.251-11.402,26.931c3.874,7.664,7.697,3.807,15.377,3.773
		c-11.521,0.051-7.63,11.553-15.343,3.907c0.051,11.52,3.907,15.342,11.656,30.669c3.84-0.018,7.663-3.874,7.663-3.874
		c0.017,3.84-3.806,7.696-7.646,7.714l0,0c15.427,15.292-26.711,38.518-7.443,53.793l0,0l11.588,15.31
		c0.034,7.679-7.697-3.807-15.36,0.067c11.555,7.629-7.595,19.234,3.976,30.702c-30.669,11.656,3.992,34.544-15.156,46.147
		l7.68-0.034c7.696,3.806-3.823,3.857-3.806,7.698c3.84-0.017,7.663-3.875,11.52-0.051c7.799,26.846-11.266,57.649-14.97,88.386
		c0.017,3.84,3.874,7.664,7.714,7.646c-3.84,0.018-7.68,0.034-7.663,3.874c7.68-0.034,11.52-0.051,7.714,7.646l-3.84,0.018
		c-0.017-3.84,0,0,3.856,3.822c-3.823,3.857-3.823,3.857,0.034,7.68l-7.697-3.806c3.857,3.823,0.068,15.36,7.781,23.006
		c0.017,3.841,0.017,3.841,0.034,7.681l0,0c0.017,3.84,0.034,7.68,3.891,11.502c0.017,3.84,3.874,7.663,3.874,7.663
		c-3.84,0.017-7.68,0.034-7.696-3.806c-7.663,3.873,0.067,15.36,7.747,15.326c0.017,3.84-7.68,0.034-11.502,3.891
		s11.57,11.47,3.908,15.344c0,0-3.84,0.017-3.857-3.823c3.857,3.823,0.068,15.359,7.73,11.485l0,0l0,0
		c-3.823,3.857,0.051,11.52,3.907,15.344c0.017,3.84,0.017,3.84-3.806,7.696c11.537,3.789-3.789,11.536,11.588,15.31l-3.841,0.017
		c-7.68,0.034-7.663,3.874-7.646,7.714c-3.84,0.017-7.663,3.873-7.646,7.713l-3.84,0.018c0.034,7.68,3.908,15.343,7.781,23.006
		c0.034,7.68,15.428,15.292-3.755,19.217c3.857,3.822,3.891,11.502,7.748,15.326c0.017,3.84-3.789,11.536-3.755,19.217l-3.84,0.018
		c0.017,3.84,3.857,3.822,3.874,7.662c0.017,3.84-3.806,7.696-3.789,11.536c3.823-3.856,11.52-0.051,15.376,3.772
		c-3.823,3.856,11.571,11.47-3.806,7.697l0,0c-15.376-3.773-11.503,3.891-11.469,11.57l11.52-0.051
		c0.017,3.84,0.034,7.681,0.034,7.681c-3.823,3.856-3.789,11.536,0.067,15.359l0,0c0,0,0,0,0.017,3.84l0.017,3.84
		c0.017,3.84,3.891,11.503,0.067,15.36l0,0l0,0c0,0-3.84,0.017-7.679,0.033c7.696,3.807,7.73,11.486,11.57,11.47l0,0l0.017,3.84l0,0
		l-11.52,0.051c-3.789,11.536-3.772,15.376,0.119,26.88l-7.697-3.807c0.034,7.68,30.753,7.545,30.787,15.226l-15.343,3.907
		c0.051,11.52-15.241,26.947,0.169,38.399c-3.84,0.017-7.68,0.033-7.697-3.807c0.034,7.681-11.418,23.091,11.604,19.149
		c-15.359,0.068,0.051,11.52,3.926,19.184l-11.521,0.051c15.377,3.771,19.234,7.595,23.107,15.258c0,0-3.84,0.017-7.68,0.033
		c0.017,3.841,11.537,3.79,3.891,11.504l-7.697-3.807c0.017,3.84,0.017,3.84,3.875,7.663l-3.824,3.856l7.68-0.033l-0.017-3.84
		l3.84-0.018c3.856,3.823,0.034,7.68-3.806,7.697c-7.681,0.033-0.034-7.68-11.537-3.789c0.017,3.84,0.034,7.68,3.874,7.663l0,0
		c0,0,0,0,3.841-0.017c0.017,3.84,3.856,3.822,3.874,7.662c0,0,0,0-3.84,0.018c-7.63,11.554,11.587,15.31,3.941,23.022
		c-3.84,0.017-3.84,0.017-7.681,0.034c-0.034-7.68-0.067-15.36-0.067-15.36c-11.52,0.051-11.486,7.731-26.88,0.118
		c7.697,3.807,23.107,15.259,19.302,22.955c0,0,0,0-3.84,0.018l0,0l0.017,3.84c0.017,3.84-3.823,3.856-3.823,3.856
		c-7.681,0.034-3.806,7.697-3.789,11.537c11.52-0.051,7.697,3.806,19.199-0.084c0,0,0,0-0.017-3.84l0,0l0,0
		c-0.017-3.841-0.017-3.841-0.034-7.681c3.841-0.018,3.857,3.822,3.857,3.822l0.017,3.84c0,0,0,0-3.824,3.857l3.841-0.018
		c0.017,3.841,3.856,3.824,3.874,7.664c-7.664,3.873-15.31,11.588-22.989,11.622c3.874,7.662,3.941,23.021,19.335,30.635
		c0.017,3.84,0.017,3.84,0.034,7.68l-3.84,0.017c-3.84,0.018-0.017-3.84-3.857-3.822c3.874,7.662,3.908,15.343,15.445,19.132l0,0
		c-7.646,7.714-11.536-3.789-11.485,7.73l-3.841,0.017c-22.956,19.302,34.712,34.408,7.934,57.565l3.823-3.856
		c0.017,3.84-3.806,7.697-3.789,11.537l-7.681,0.033l-7.68,0.034l0,0l0.034,7.68l7.663-3.874l3.841-0.017
		c0.034,7.681,3.891,11.504,3.925,19.184c0,0,0,0-3.84,0.017c-3.824,3.856-7.647,7.713-11.503,3.891
		c7.696,3.806-7.646,7.713,7.73,11.485c-3.84,0.017,0.017,3.84-11.502,3.891c3.857,3.823,7.68-0.034,11.52-0.051
		c11.554,7.63-15.274,19.268,3.976,30.704l0,0l-3.841,0.017l7.698,3.806l3.857,3.823c7.713,7.646-22.973,15.462-15.242,26.947
		l-3.84,0.017l0,0l3.84-0.017c0,0,0.017,3.84,3.857,3.823l7.681-0.034l0,0l0.017,3.84c-3.84,0.017-7.681,0.034-11.538-3.789
		c3.857,3.823,7.714,7.646,11.571,11.47c0,0,0,0-3.84,0.017l0,0c-3.841,0.017-7.698-3.806-11.538-3.789
		c3.857,3.823,3.891,11.503,11.588,15.309l19.267,15.275l0,0c-3.84,0.017-11.52,0.051-15.359,0.067
		c3.84-0.017,7.697,3.807,7.697,3.807c-7.68,0.033-15.36,0.067-15.326,7.748c0.017,3.84,3.857,3.822,7.714,7.646l0,0l3.856,3.823
		C941.191,3960.092,945.031,3960.075,945.031,3960.075z M999.414,2358.54L999.414,2358.54l3.84-0.017
		c0.017,3.84,0.017,3.84-3.823,3.857L999.414,2358.54z M920.586,3641.46C920.586,3641.46,920.604,3645.3,920.586,3641.46
		l-3.84,0.018c-0.017-3.84-0.017-3.84,3.823-3.857C920.586,3641.46,920.586,3641.46,920.586,3641.46z M978.66,3748.725
		L978.66,3748.725c3.823-3.856,7.68-0.033,7.68-0.033S982.5,3748.708,978.66,3748.725z M989.638,3625.795
		C989.638,3625.795,989.655,3629.635,989.638,3625.795C989.655,3629.635,989.655,3629.635,989.638,3625.795L989.638,3625.795z
		 M989.604,3618.115c-3.84,0.018-7.68,0.034-7.68,0.034c3.84-0.017,3.823-3.856,7.646-7.713
		C989.587,3614.276,989.587,3614.276,989.604,3618.115z M1009.53,2911.461l-7.663,3.873l-3.856-3.822c0,0-0.017-3.84,3.823-3.857
		L1009.53,2911.461z M971.299,2078.341L971.299,2078.341l3.84-0.017C975.139,2078.324,975.139,2078.324,971.299,2078.341z
		 M975.104,2070.645L975.104,2070.645c3.856,3.823,3.856,3.823,3.856,3.823L975.104,2070.645z M941.34,2251.275
		C941.34,2251.275,941.356,2255.115,941.34,2251.275c-3.823,3.856-7.68,0.034-7.68,0.034S937.5,2251.292,941.34,2251.275z
		 M926.522,2374.222C926.522,2374.222,926.505,2370.382,926.522,2374.222C926.505,2370.382,926.522,2374.222,926.522,2374.222
		L926.522,2374.222z M926.556,2381.901c3.84-0.017,7.68-0.034,7.68-0.034c-3.84,0.017-3.823,3.857-7.663,3.874
		C926.573,2385.741,926.573,2385.741,926.556,2381.901z M910.487,3092.379l7.663-3.873l3.857,3.822c0,0,0.017,3.84-3.823,3.857
		L910.487,3092.379z M948.701,3921.658L948.701,3921.658l-3.84,0.018C944.861,3921.676,944.861,3921.676,948.701,3921.658z
		 M941.056,3929.373c-3.84,0.017-3.857-3.823-3.857-3.823L941.056,3929.373C944.896,3929.355,944.896,3929.355,941.056,3929.373z"/>
	<path fill="#FFFFFF" d="M1000.481,3472.146L1000.481,3472.146L1000.481,3472.146z"/>
	<path fill="#FFFFFF" d="M929.418,3902.544C929.435,3906.384,933.274,3906.367,929.418,3902.544
		C933.274,3906.367,933.274,3906.367,929.418,3902.544C933.258,3902.527,929.418,3902.544,929.418,3902.544z"/>
	<path fill="#FFFFFF" d="M959.609,2039.992L959.609,2039.992c3.84-0.017,3.84-0.017,7.68-0.034L959.609,2039.992z"/>
	<path fill="#FFFFFF" d="M1015.604,3418.319C1011.764,3418.336,1011.764,3418.336,1015.604,3418.319
		C1015.621,3422.159,1015.604,3418.319,1015.604,3418.319z"/>
	<path fill="#FFFFFF" d="M910.637,2255.25c3.84-0.017,7.68-0.034,11.503-3.891C910.637,2255.25,910.604,2247.57,910.637,2255.25z"/>
	<path fill="#FFFFFF" d="M907.206,3219.115c3.84-0.018,7.663-3.874,7.663-3.874s0,0-3.84,0.017L907.206,3219.115z"/>
	<path fill="#FFFFFF" d="M984.426,2443.087L984.426,2443.087L984.426,2443.087z"/>
	<path fill="#FFFFFF" d="M987.876,2354.751L987.876,2354.751C987.876,2354.751,984.036,2354.768,987.876,2354.751L987.876,2354.751
		L987.876,2354.751z"/>
	<path fill="#FFFFFF" d="M932.868,3814.207l3.84-0.017l0,0L932.868,3814.207z"/>
	<path fill="#FFFFFF" d="M929.536,3929.424L929.536,3929.424L929.536,3929.424L929.536,3929.424z"/>
	<path fill="#FFFFFF" d="M933.393,3933.246L933.393,3933.246L933.393,3933.246z"/>
	<path fill="#FFFFFF" d="M933.173,3883.327c0.017,3.84-7.646,7.714-7.63,11.554l3.841-0.018
		C925.526,3891.041,940.853,3883.293,933.173,3883.327z"/>
	<polygon fill="#FFFFFF" points="1008.5,3548.912 1004.626,3541.248 1004.66,3548.929 	"/>
	<polygon fill="#FFFFFF" points="1008.295,2631.144 1004.438,2627.32 1004.438,2627.32 	"/>
	<path fill="#FFFFFF" d="M919.519,2527.854L919.519,2527.854C919.519,2527.854,915.679,2527.871,919.519,2527.854z"/>
	<path fill="#FFFFFF" d="M986.742,2097.474C986.742,2097.474,986.726,2093.633,986.742,2097.474
		C986.726,2093.633,986.742,2097.474,986.742,2097.474L986.742,2097.474z"/>
	<path fill="#FFFFFF" d="M960.391,3960.008L960.391,3960.008c-3.84,0.017-3.84,0.017-7.681,0.033L960.391,3960.008z"/>
	<path fill="#FFFFFF" d="M904.396,2581.681L904.396,2581.681L904.396,2581.681z"/>
	<path fill="#FFFFFF" d="M1009.362,3744.75c-3.839,0.017-7.679,0.033-11.503,3.891
		C1005.54,3748.606,1009.396,3752.43,1009.362,3744.75z"/>
	<path fill="#FFFFFF" d="M1012.795,2780.885c-3.84,0.017-7.663,3.874-7.663,3.874s0,0,3.84-0.017L1012.795,2780.885z"/>
	<path fill="#FFFFFF" d="M931.734,3556.93L931.734,3556.93L931.734,3556.93z"/>
	<path fill="#FFFFFF" d="M928.284,3645.266C932.124,3645.249,932.141,3649.089,928.284,3645.266
		C932.124,3645.249,932.124,3645.249,928.284,3645.266C932.124,3645.249,932.124,3645.249,928.284,3645.266L928.284,3645.266z"/>
	<path fill="#FFFFFF" d="M983.309,2189.649l-3.84,0.017l0,0L983.309,2189.649z"/>
	<path fill="#FFFFFF" d="M990.464,2070.576C990.464,2070.576,986.624,2070.594,990.464,2070.576L990.464,2070.576L990.464,2070.576z
		"/>
	<path fill="#FFFFFF" d="M982.768,2066.771L982.768,2066.771C986.624,2070.594,986.607,2066.754,982.768,2066.771z"/>
	<path fill="#FFFFFF" d="M986.844,2120.514c-0.017-3.841,7.646-7.714,3.789-11.537l-3.84,0.017
		C994.474,2108.959,979.147,2116.707,986.844,2120.514z"/>
	<polygon fill="#FFFFFF" points="911.5,2451.088 915.374,2458.751 911.517,2454.928 	"/>
	<polygon fill="#FFFFFF" points="907.865,3368.873 911.739,3376.537 911.722,3372.697 	"/>
</g>
</svg>
