<?xml version="1.0" encoding="utf-8"?>
<!-- Generator: Adobe Illustrator 15.0.2, SVG Export Plug-In . SVG Version: 6.00 Build 0)  -->
<!DOCTYPE svg PUBLIC "-//W3C//DTD SVG 1.1//EN" "http://www.w3.org/Graphics/SVG/1.1/DTD/svg11.dtd">
<svg version="1.1" id="Слой_1" xmlns="http://www.w3.org/2000/svg" xmlns:xlink="http://www.w3.org/1999/xlink" x="0px" y="0px"
	 width="1920.592px" height="125.276px" viewBox="-0.587 2937.363 1920.592 125.276"
	 enable-background="new -0.587 2937.363 1920.592 125.276" xml:space="preserve">
<g>
	<path fill="#FFFFFF" d="M-0.028,2982.24L-0.028,2982.24c0,0,3.845,3.834,3.857,11.515l-3.834,3.846
		c0.029,19.2-3.788,34.564,7.754,49.907l7.664-11.531l3.852,7.675l-7.681,0.012c3.851,7.675,7.681-0.012,7.675-3.852
		c0.005,3.84,0.011,7.68,3.851,7.674l7.657-15.372c0.012,7.681-3.817,15.367,0.029,19.2c3.828-7.685-3.864-15.354,3.811-19.206
		c3.846,3.835,3.858,11.516,7.686,3.828c0.005,3.842,0.012,7.682-3.828,7.688c3.833-3.846,11.513-3.857,11.502-11.538
		c3.857,11.515,11.513-3.856,11.542,15.344c-0.005-3.84,7.664-11.532,11.497-15.378c-7.652,19.211,15.36-0.023,11.555,23.022
		c3.811-19.206,19.188-7.708,26.85-19.241c0,0,0.006,3.841-3.833,3.848c3.84-0.007,7.691,7.668,7.698,11.508
		c-0.023-15.36,7.651-19.213,11.479-26.897c7.705,15.349-3.811,19.206,0.046,30.72c-0.017-11.52,11.503-11.537,7.646-23.051
		c3.852,7.674,3.845,3.833,7.702,15.349c-0.028-19.2,3.834-3.847,7.657-15.372c7.691,7.67,0.028,19.2,7.698,11.508
		c11.537,11.503,3.868,19.195,3.868,19.195c7.68-0.012,3.817-15.365,3.806-23.046c7.674-3.853,3.857,11.514,7.708,19.188
		c3.833-3.846,11.497-15.377,15.337-15.383c0.006,3.84,0.006,3.84,0.012,7.68c7.663-11.531,19.201-0.029,23.017-15.395l0.006,3.84
		c-0.006-3.84-0.006-3.84-0.012-7.68l3.84-0.006c-0.005-3.84,11.514-3.857,11.508-7.697c0.006,3.84,3.853,7.674,3.853,7.674
		l0.011,7.681l-19.2,0.028c0,0-0.006-3.84,0,0l-0.006-3.84l0,0c3.84-0.006,3.834-3.846,7.674-3.853l0,0
		c3.84-0.005,11.509-7.696,15.349-7.702c0.012,7.68-11.514,3.857-3.817,15.366l-7.687-3.829c7.71,19.188-3.84,0.006,0.029,19.2
		c11.526,3.822,11.509-7.697,23.034-3.874c3.829-7.686-0.017-11.52-0.028-19.201c15.342-11.542,11.571,34.544,23.063,15.326
		c3.828-7.686,3.811-19.205,7.651-19.212l0,0l0,0c0,0,3.84-0.006,3.845,3.834l-3.816,15.366
		c11.519-0.018,7.645-23.051,15.341-11.543c0.012,7.681-7.673,3.853-7.668,7.692c7.697,11.508,3.828-7.688,11.508-7.698
		l0.017,11.521c11.515-3.856,23.023-11.555,34.538-15.412c0.005,3.84-3.828,7.687,0.018,11.521
		c15.348-7.704,30.72-0.047,46.091,7.61l3.822-11.525c0,0,3.846,3.834,0.012,7.68c3.845,3.834,3.833-3.846,3.828-7.686l3.84-0.005
		c0.006,3.84,0.006,3.84,0.006,3.84c7.669-7.693,15.343-11.544,26.863-11.561c0,0,0.005,3.838,3.845,3.833
		c-0.005-3.84-0.005-3.84-0.005-3.84c3.84-0.006,3.84-0.006,7.686,3.828c0,0,0,0,0.005,3.841l0.006,3.84l3.84-0.006
		c7.686,3.828,7.668-7.691,11.502-11.537l0,0l0.005,3.84c3.84-0.006,7.68-0.012,7.68-0.012s0,0,0.006,3.84l-0.006-3.84l3.84-0.006
		c3.846,3.835,7.691,7.669,7.698,11.509c3.833-3.846,3.828-7.686-0.012-7.68l0,0c7.68-0.011,11.514-3.857,23.04-0.035l-0.005-3.84
		c3.839-0.006,7.685,3.829,11.531,7.663c-0.012-7.68,7.667-7.691,11.515-3.857c0.005,3.84-3.835,3.846-3.83,7.686
		c7.67-7.691,15.366,3.816,19.213,7.651l-3.835,3.845c3.835-3.845,3.835-3.845,7.676-3.851l-3.852-7.674
		c3.84-0.006,3.84-0.006,3.846,3.834l-0.006-3.84c3.84-0.006,3.846,3.834,7.686,3.828c0,0,0,0,3.833-3.845l0,0l0.007,3.84
		c3.845,3.833,0,0,3.833-3.847l-3.84,0.007l-0.005-3.84l0,0l0,0l0,0l7.668-7.693l3.84-0.005c0.012,7.681,3.858,11.514,3.858,11.514
		c-3.841,0.007-3.847-3.833-0.012-7.679l0.007,3.839l3.833-3.845c0,0-3.846-3.835-3.851-7.675l0,0l3.84-0.007l0,0
		c7.68-0.01,11.531,7.664,11.537,11.504l15.342-11.543c0.006,3.84-3.828,7.686-3.828,7.686c7.663-11.531,0.017,11.52,11.52-0.018
		c-0.005-3.84-0.005-3.84-0.012-7.68c0,0,0,0,3.84-0.006l3.846,3.834c3.845,3.835,3.845,3.835,7.68-0.012l0,0
		c3.84-0.005,3.84-0.005,7.68-0.012l0.012,7.681c11.526,3.823,26.874-3.88,38.394-3.897c-3.845-3.835-3.868-19.194-0.028-19.2
		l0.017,11.521c3.828-7.686-0.006-3.841-0.012-7.681c0.005,3.84,0.005,3.84,3.851,7.675c0,0-0.005-3.84,3.834-3.847
		c0.005,3.84,0.012,7.68-3.828,7.687l7.673-3.852c0.006,3.84,0.006,3.84,0.017,11.521c3.829-7.687,11.539,11.502,15.361-0.022
		l0.006,3.84c15.358-0.024,19.194-3.869,30.713-3.887c-0.017-11.521,3.828-7.687,7.658-15.372
		c7.685,3.829,19.217,11.492,26.896,11.48c7.674-3.853,3.829-7.687,3.817-15.366c0.018,11.52,11.532,7.662,3.863,15.354
		c11.521-0.018,15.355-3.864,30.703-11.566c-0.005-3.84-3.852-7.675-3.852-7.675c3.84-0.005,7.686,3.83,7.691,7.67l0,0
		c15.337-15.385,38.441,26.821,53.772,7.599l0,0l15.342-11.543c7.681-0.012-3.828,7.686,0.023,15.36
		c15.337-15.384,23.045,3.806,34.549-7.732c11.566,30.703,34.555-3.892,46.103,15.291l-0.012-7.68
		c3.829-7.687,3.846,3.834,7.687,3.828c-0.007-3.84-3.852-7.675-0.018-11.521c26.868-7.72,57.616,11.435,88.343,15.228
		c3.863,15.355,3.857,11.515,7.686,3.829c0.006,3.841,0.012,7.681,3.853,7.674c-0.012-7.68-0.018-11.52,7.668-7.69l0.006,3.84
		c3.834-3.847,7.674-3.852,11.514-3.857c3.846,3.834,3.846,3.834,7.681-0.012l-3.829,7.686c3.835-3.846,15.36-0.023,23.029-7.715
		c3.84-0.006,3.84-0.006,7.68-0.011l0,0c3.84-0.007,7.68-0.012,11.514-3.857c3.84-0.007,7.675-3.852,7.675-3.852
		c0.006,3.84,0.012,7.68-3.829,7.685c3.852,7.675,15.36-0.022,15.349-7.702c3.84-0.005,0.012,7.68,3.857,11.515
		c3.847,3.833,11.503-11.537,15.354-3.863c0,0,0.006,3.84-3.834,3.846c3.834-3.846,15.359-0.023,11.508-7.697l0,0l0,0
		c3.846,3.834,11.521-0.017,15.354-3.863c3.84-0.006,3.84-0.006,7.686,3.829c3.823-11.526,11.526,3.822,15.343-11.544l0.006,3.84
		c0.012,7.681,3.852,7.675,7.691,7.67c3.846,3.833,3.846,3.833,7.686,3.828l0.006,3.84c7.681-0.013,15.354-3.863,23.029-7.715
		c7.68-0.012,15.337-15.383,19.205,3.811c3.834-3.845,11.515-3.857,15.349-7.702c3.84-0.006,11.525,3.822,19.206,3.812l0.006,3.839
		c3.84-0.005,3.834-3.845,7.674-3.851s7.686,3.828,11.525,3.822c-3.846-3.834-0.018-11.52,3.817-15.365
		c3.846,3.834,11.502-11.537,7.686,3.828l0,0c3.863,15.354,11.538,11.503,15.378,11.497l-0.018-11.52
		c3.84-0.006,7.68-0.012,7.68-0.012c3.846,3.835,11.525,3.823,15.36-0.022l0,0l3.84-0.007l3.84-0.005
		c3.84-0.006,11.515-3.858,15.36-0.023l0,0l0,0c0,0,3.846,3.834,3.852,7.674c-7.687-3.828-0.006-3.84-0.012-7.68l0,0l0,0l0,0
		l0.018,11.52c11.524,3.822,15.364,3.817,26.88-0.04l-3.829,7.686c7.68-0.011,7.635-30.731,15.314-30.743l3.862,15.355
		c11.521-0.018,26.903,15.318,38.4-0.059c0.006,3.84,0.011,7.68-3.829,7.687c7.68-0.013,23.058,11.485,19.184-11.549
		c0.023,15.359,11.52-0.018,19.193-3.869l0.018,11.52c3.817-15.366,7.651-19.211,15.325-23.063c0,0,0.007,3.84,0.012,7.68
		c3.84-0.005,3.822-11.524,11.515-3.856l-3.829,7.687c3.841-0.007,3.841-0.007,7.675-3.853l3.846,3.835l3.822-11.526l-3.84,0.007
		l-0.006-3.84c3.834-3.847,7.68-0.012,11.525,3.822c0.012,7.68-7.68,0.011-3.822,11.525c3.84-0.006,7.68-0.012,7.674-3.852l0,0
		c0,0,0,0-0.006-3.84c3.841-0.006,3.835-3.846,7.675-3.852c0,0,0,0,0.006,3.84c11.531,7.663,15.343-11.543,23.04-0.034
		c0.006,3.84,0.006,3.84,0.012,7.68c-7.68,0.011-15.36,0.022-15.36,0.022c0.018,11.521,7.698,11.509,0.04,26.881
		c7.663-11.532,19.154-30.75,23.006-23.074c0,0,0,0,0.005,3.84l0,0l3.84-0.006c3.84-0.006,3.847,3.834,3.847,3.834
		c0.011,7.68,7.687,3.829,11.526,3.822c-0.018-11.52,3.828-7.686-0.029-19.2c0,0,0,0-3.84,0.007l0,0l0,0
		c-3.84,0.005-3.84,0.005-7.681,0.011c-0.006-3.84,3.835-3.846,3.835-3.846l3.84-0.005c0,0,0,0,3.846,3.833l-0.006-3.84
		c3.834-3.846,7.674-3.851,7.668-7.69c7.698,11.508,11.544,15.342,11.556,23.022c11.514-3.856,23.033-3.874,30.69-19.247l3.84-0.005
		l0.006,3.84c0.006,3.84-3.84,0.005-3.834,3.845c7.675-3.852,19.2-0.028,19.177-15.387l0,0c7.691,7.668-3.817,15.364,7.697,11.508
		l0.006,3.84c19.234,23.011,30.669-34.606,53.749-7.761l-3.847-3.834c3.847,3.834,7.687,3.828,11.526,3.823l0.011,7.68l0.012,7.68
		l0,0l11.515-3.858l-3.852-7.673l-0.006-3.84c7.687,3.827,15.36-0.023,23.04-0.035c0,0,0,0,0.006,3.84c0,0,3.846,3.834,3.852,7.674
		c3.822-11.525,7.691,7.67,11.508-7.696c0.006,3.84,3.841-0.007,3.858,11.514c3.834-3.846-0.013-7.681-0.018-11.521
		c7.656-15.371,19.223,15.332,30.714-3.885l0,0l0.006,3.84l7.669-7.691l3.834-3.846c7.669-7.692,15.388,19.176,26.897,11.479
		l0.005,3.84l0,0l-0.005-3.84c0,0,3.84-0.006,3.834-3.846l-0.012-7.68l0,0l3.84-0.005c0.006,3.84,0.012,7.68-3.822,11.524
		c3.84-0.005,7.668-7.691,11.503-11.536c0,0,0,0,0.005,3.84l0,0c0.006,3.84-3.828,7.685-3.822,11.524
		c7.674-3.851,15.349-7.702,15.337-15.382l3.835-3.847l0,0c0.005,3.842,0.017,11.521,0.022,15.361
		c3.834-3.847,3.834-3.847,7.668-7.692c0.012,7.68,0.022,15.36,7.703,15.348c3.841-0.005,3.835-3.845,7.669-7.69l0,0l3.834-3.846
		c0,0-0.006-3.84-0.012-7.68l0,0c-3.84,0.006-3.846-3.835-3.856-11.515l3.84-0.006c-0.029-19.2,3.782-38.405-7.755-49.908
		l-7.663,11.532l-3.852-7.676l7.68-0.011c-3.851-7.674-7.68,0.011-7.675,3.851c-0.005-3.84-0.011-7.679-3.851-7.674l-7.657,15.372
		c-0.011-7.681,3.817-15.366-0.028-19.2c-7.669,7.691,0.023,15.36-3.812,19.206c-3.852-7.675-3.863-15.354-7.691-7.669
		c-0.006-3.84-0.012-7.68,3.828-7.686c-3.834,3.846-11.515,3.857-11.502,11.537c-3.857-11.515-11.515,3.857-11.544-15.342
		c0.006,3.84-7.662,11.531-11.497,15.377c7.652-19.211-15.359,0.023-11.554-23.022c-7.651,19.21-23.028,7.714-30.692,19.245
		c0,0-0.005-3.84,3.835-3.846c-3.84,0.006-7.691-7.668-7.697-11.508c0.022,15.359-7.65,19.212-11.479,26.896
		c-7.702-15.349,3.812-19.206-0.047-30.719c0.018,11.52-11.502,11.537-7.645,23.051c-7.697-11.509-7.686-3.829-7.709-19.188
		c0.029,19.2-3.834,3.846-7.657,15.371c-7.691-7.667-0.028-19.199-7.697-11.507c-7.686-3.829-0.017-11.521-0.017-11.521
		c-7.68,0.012-3.817,15.366-3.806,23.045c-7.675,3.853-3.857-11.514-7.709-19.188c-7.675,3.852-11.497,15.377-15.337,15.383
		c-0.006-3.84-0.006-3.84-0.012-7.68c-7.662,11.531-19.199,0.029-23.017,15.395l-0.007-3.841c0.007,3.841,0.007,3.841,0.013,7.681
		l-3.84,0.006c0.005,3.84-3.835,3.846-3.829,7.686c-0.006-3.84-0.018-11.52,3.823-11.525l-0.007-3.841l0,0l0,0l0.007,3.841l0,0
		c-3.841,0.006-3.834,3.846-7.674,3.852l0,0c-3.841,0.006-7.675,3.851-15.349,7.703c-0.012-7.68,11.514-3.857,3.816-15.367
		l11.526,3.824c-7.709-19.188,3.839-0.006-0.029-19.2c-11.526-3.822-11.509,7.697-23.034,3.874c-3.828,7.686,0.018,11.52,0.028,19.2
		c-15.343,11.542-11.571-34.543-23.068-19.166c-3.829,7.686-3.812,19.207-7.651,19.211l0,0l0,0c0,0-3.84,0.006-3.846-3.834
		l3.823-11.525c-11.521,0.017-7.646,23.051-15.344,11.543c-0.011-7.681,7.675-3.853,7.669-7.692
		c-11.537-11.502-7.669,7.692-15.348,7.704l-0.018-11.521c-11.515,3.857-23.022,11.555-34.537,15.412
		c-0.006-3.84,3.828-7.687-0.018-11.521c-15.348,7.704-30.72,0.046-46.092-7.61l-3.822,11.525c0,0-3.846-3.834-0.012-7.68
		c-3.846-3.834-3.834,3.846-3.828,7.686l-3.84,0.005c-0.006-3.84-0.006-3.84-0.006-3.84c-7.669,7.692-19.183,11.549-26.862,11.562
		c0,0-0.006-3.84-3.847-3.835c0.006,3.84,0.006,3.84,0.006,3.84c-3.84,0.006-3.84,0.006-7.686-3.828c0,0,0,0-0.006-3.841
		l-0.006-3.84l-3.84,0.006c-7.686-3.829-7.668,7.692-11.503,11.538l0,0l-0.006-3.84c-3.84,0.006-7.68,0.012-7.68,0.012
		s0,0-0.006-3.841l0.006,3.841l-3.84,0.005c-3.846-3.834-7.686-3.829-7.697-11.508c-3.835,3.845-3.829,7.685,0.012,7.68l0,0
		c-7.681,0.011-11.515,3.858-23.046-3.805l0.006,3.84c-3.84,0.005-7.686-3.829-11.532-7.663c0.012,7.68-7.668,7.691-11.514,3.857
		c-0.006-3.84,3.834-3.846,3.828-7.686c-7.662,11.531-15.366-3.816-19.206-3.811l3.835-3.846c-3.835,3.846-3.835,3.846-7.675,3.851
		l3.853,7.674c-3.84,0.006-3.84,0.006-3.847-3.834l0.007,3.84c-3.84,0.006-3.847-3.834-7.687-3.829c0,0,0,0-3.834,3.846l0,0
		l-0.006-3.84c-3.847-3.834,0,0,0.006,3.84l7.681-0.011l0,0l0,0l0,0l0,0l-11.51,7.697c0,0-3.84,0.006-7.68,0.012
		c-0.012-7.68-3.856-11.514-7.696-11.508c3.84-0.005,0.005,3.84,0.011,7.68l-0.006-3.84l-3.835,3.846c0,0,3.848,3.833,3.853,7.675
		l0,0l-3.841,0.006l0,0c-7.68,0.011-11.537-11.504-11.542-15.344l-15.344,11.543c-0.005-3.84,3.829-7.686,3.829-7.686
		c-7.663,11.532-0.018-11.52-11.52,0.018c0.006,3.84,0.006,3.84,0.011,7.68c0,0,0,0-3.84,0.006l-3.845-3.835
		c-3.847-3.833-3.847-3.833-7.682,0.012l0,0c-3.84,0.005-3.84,0.005-7.68,0.011l-0.012-7.68c-11.524-3.822-26.873,3.88-38.395,3.897
		c3.847,3.834,3.87,19.194,0.029,19.2l-0.017-11.521c-3.829,7.687,0.005,3.841,0.011,7.681c-0.006-3.84-0.006-3.84-3.851-7.675
		c0,0,0.005,3.841-3.835,3.847c-0.006-3.841-0.012-7.681,3.828-7.687l-7.674,3.851c-0.006-3.84-0.006-3.84-0.017-11.519
		c-3.829,7.685-11.537-11.503-15.36,0.022l-0.006-3.84c-15.359,0.023-19.195,3.869-30.715,3.887
		c0.018,11.519-3.828,7.685-7.655,15.371c-7.687-3.829-19.218-11.491-26.897-11.48c-7.676,3.852-3.83,7.686-3.818,15.367
		c-0.018-11.521-11.53-7.664-3.862-15.354c-11.521,0.017-15.354,3.863-30.703,11.566c0.007,3.84,3.852,7.674,3.852,7.674
		c-3.84,0.006-7.685-3.829-7.691-7.668l0,0c-15.337,15.383-38.44-26.823-53.771-7.6l0,0l-15.343,11.543
		c-7.68,0.012,3.829-7.686-0.022-15.361c-7.663,11.533-19.212-7.65-30.714,3.887c-11.567-30.703-34.556,3.892-46.104-15.291
		l0.012,7.68c-3.828,7.685-3.846-3.834-7.687-3.829c0.006,3.84,3.853,7.674,0.017,11.52c-26.868,7.721-57.616-11.433-88.341-15.227
		c-3.84,0.006-7.675,3.852-7.669,7.691c-0.006-3.84-0.012-7.68-3.852-7.675c0.012,7.68,0.017,11.52-7.668,7.692l-0.006-3.84
		c3.84-0.006,0,0-3.833,3.845c-3.846-3.834-3.846-3.834-7.68,0.012l3.828-7.686c-3.834,3.846-15.36,0.023-23.028,7.714
		c-3.841,0.005-3.841,0.005-7.681,0.011l0,0c-3.84,0.006-7.68,0.012-11.513,3.857c-3.84,0.006-7.674,3.851-7.674,3.851
		c-0.005-3.84-0.012-7.68,3.828-7.685c-3.851-7.674-15.36,0.022-15.349,7.702c-3.84,0.006-0.012-7.68-3.857-11.514
		c-3.845-3.834-11.503,11.537-15.355,3.863c0,0-0.005-3.84,3.834-3.846c-3.834,3.846-15.359,0.023-11.508,7.697l0,0l0,0
		c-3.846-3.834-11.52,0.017-15.355,3.862c-3.84,0.006-3.84,0.006-7.685-3.828c-3.823,11.526-11.525-3.822-15.343,11.543
		l-0.005-3.841c-0.012-7.68-3.852-7.674-7.691-7.668c-0.006-3.84-3.851-7.674-7.691-7.668l-0.006-3.84
		c-7.68,0.012-15.354,3.863-23.028,7.714c-7.68,0.011-15.337,15.384-19.206-3.811c-3.833,3.846-11.513,3.857-15.349,7.703
		c-3.84,0.006-11.525-3.823-19.206-3.812l-0.006-3.84c-3.84,0.006-3.833,3.846-7.673,3.852s-7.685-3.828-11.525-3.822
		c3.846,3.834,0.018,11.52-3.817,15.365c-3.845-3.834-11.503,11.538-7.686-3.828l0,0c3.818-15.366-3.857-11.514-11.537-11.502
		l0.017,11.52c-3.84,0.006-7.681,0.012-7.681,0.012c-3.845-3.834-11.525-3.823-15.359,0.022l0,0c0,0,0,0-3.84,0.006l-3.84,0.006
		c-3.84,0.006-11.514,3.857-15.36,0.023l0,0l0,0c0,0-0.006-3.84-0.011-7.679c-3.829,7.685-11.509,7.696-11.503,11.536l0,0
		l-3.84,0.006l0,0l-0.017-11.52c-11.525-3.822-15.365-3.816-26.88,0.041l3.829-7.686c-7.68,0.012-7.634,30.731-15.315,30.743
		l-3.862-15.354c-11.52,0.018-26.903-15.319-38.4,0.058c-0.005-3.84-0.011-7.68,3.829-7.686
		c-7.681,0.012-23.058-11.485-19.183,11.548c-0.024-15.359-11.52,0.017-19.195,3.87l-0.018-11.521
		c-3.816,15.366-7.65,19.212-15.325,23.063c0,0-0.005-3.84-0.011-7.68c-3.841,0.006-3.823,11.525-11.515,3.856l3.829-7.686
		c-3.84,0.005-3.84,0.005-7.674,3.852l-3.845-3.835l0.011,7.68l3.84-0.005l0.006,3.84c-3.834,3.845-7.68,0.011-7.686-3.829
		c-0.011-7.681,7.68-0.011,3.823-11.526c-3.84,0.005-7.68,0.011-7.674,3.851l0,0c0,0,0,0,0.005,3.841
		c-3.84,0.006-3.833,3.846-7.673,3.852c0,0,0,0-0.006-3.84c-11.532-7.664-15.343,11.542-23.034,3.874
		c-0.006-3.84-0.006-3.84-0.012-7.681c7.68-0.011,15.361-0.022,15.361-0.022c-0.018-11.52-7.698-11.509-0.04-26.88
		c-3.829,7.686-15.326,23.063-23.011,19.235c0,0,0,0-0.006-3.84l0,0l-3.84,0.006c-3.84,0.006-3.845-3.834-3.845-3.834
		c-0.012-7.681-7.687-3.829-11.526-3.823c0.018,11.52-3.828,7.686,0.028,19.199c0,0,0,0,3.84-0.006l0,0l0,0
		c3.841-0.006,3.841-0.006,7.681-0.011c0.006,3.841-3.833,3.846-3.833,3.846l-3.84,0.006c0,0,0,0-3.846-3.835l0.006,3.841
		c-3.841,0.005-3.835,3.845-7.675,3.851c-3.851-7.675-11.543-15.343-11.555-23.022c-7.673,3.852-23.033,3.874-30.691,19.246
		c-3.84,0.006-3.84,0.006-7.68,0.011l-0.005-3.84c-0.006-3.84,3.84-0.006,3.833-3.846c-7.673,3.851-15.354,3.863-19.177,15.389l0,0
		c-7.691-7.668,3.823-11.525-7.697-11.508l-0.005-3.841c-19.235-23.012-34.509,34.612-57.588,7.767l3.846,3.834
		c-3.84,0.005-7.687-3.829-11.526-3.823l-0.011-7.681l-0.012-7.68l0,0l-7.68,0.011l3.852,7.674l0.005,3.841
		c-7.681,0.012-11.515,3.857-19.195,3.869c0,0,0,0-0.005-3.84c-3.845-3.835-7.691-7.669-3.857-11.515
		c-3.828,7.685-7.69-7.668-11.508,7.696c-0.005-3.84-3.84,0.006-3.857-11.514c-3.834,3.846,0.012,7.68,0.017,11.52
		c-7.663,11.532-19.223-15.33-30.715,3.887l0,0l-0.005-3.841l-3.828,7.687l-3.834,3.846c-7.668,7.691-15.395-23.018-26.903-15.321
		l-0.005-3.84l0,0l0.005,3.84c0,0-3.84,0.006-3.834,3.846l0.012,7.681l0,0l-3.84,0.006c-0.005-3.84-0.012-7.681,3.823-11.526
		c-3.834,3.846-7.669,7.692-11.503,11.538c0,0,0,0-0.005-3.84l0,0c-0.005-3.841,3.828-7.687,3.823-11.526
		c-3.834,3.846-11.514,3.857-15.342,11.544l-15.332,19.222l0,0c-0.005-3.84-0.017-11.52-0.022-15.359
		c0.005,3.84-3.829,7.686-3.829,7.686c-0.011-7.68-0.023-15.36-7.704-15.349c-3.84,0.006-3.833,3.847-7.668,7.692l0,0l-3.834,3.845
		C-0.033,2978.4-0.028,2982.24-0.028,2982.24z M1601.342,3041.28L1601.342,3041.28l0.007,3.84c-3.841,0.005-3.841,0.005-3.847-3.835
		L1601.342,3041.28z M318.657,2958.722C318.657,2958.722,314.817,2958.728,318.657,2958.722l-0.007-3.84
		c3.84-0.006,3.84-0.006,3.847,3.834C318.657,2958.722,318.657,2958.722,318.657,2958.722z M211.224,3016.483L211.224,3016.483
		c3.845,3.835,0.011,7.681,0.011,7.681S211.229,3020.324,211.224,3016.483z M334.121,3027.818
		C334.121,3027.818,330.281,3027.825,334.121,3027.818C330.281,3027.825,330.281,3027.825,334.121,3027.818L334.121,3027.818z
		 M341.801,3027.808c-0.006-3.84-0.012-7.68-0.012-7.68c0.005,3.84,3.845,3.835,7.69,7.668
		C345.64,3027.802,345.64,3027.802,341.801,3027.808z M1048.395,3049.788l-3.851-7.674l3.833-3.846c0,0,3.84-0.005,3.847,3.835
		L1048.395,3049.788z M1881.621,3013.979L1881.621,3013.979l0.007,3.84C1881.628,3017.819,1881.628,3017.819,1881.621,3013.979z
		 M1889.308,3017.808L1889.308,3017.808c-3.835,3.845-3.835,3.845-3.835,3.845L1889.308,3017.808z M1708.775,2983.518
		C1708.775,2983.518,1704.936,2983.523,1708.775,2983.518c-3.846-3.834-0.012-7.68-0.012-7.68S1708.77,2979.678,1708.775,2983.518z
		 M1585.873,2968.343C1585.873,2968.343,1589.713,2968.337,1585.873,2968.343
		C1589.713,2968.337,1585.873,2968.343,1585.873,2968.343L1585.873,2968.343z M1578.193,2968.354c0.006,3.84,0.012,7.68,0.012,7.68
		c-0.006-3.84-3.846-3.834-3.852-7.674C1574.354,2968.36,1574.354,2968.36,1578.193,2968.354z M867.765,2950.219l3.851,7.674
		l-3.833,3.846c0,0-3.84,0.005-3.846-3.834L867.765,2950.219z M38.378,2986.022L38.378,2986.022l-0.007-3.84
		C38.372,2982.182,38.372,2982.182,38.378,2986.022z M30.686,2978.354c-0.005-3.84,3.834-3.846,3.834-3.846L30.686,2978.354
		C30.692,2982.194,30.692,2982.194,30.686,2978.354z"/>
	<path fill="#FFFFFF" d="M487.737,3039.109L487.737,3039.109L487.737,3039.109z"/>
	<path fill="#FFFFFF" d="M57.548,2966.794C53.708,2966.8,53.714,2970.64,57.548,2966.794
		C53.714,2970.64,53.714,2970.64,57.548,2966.794C57.554,2970.634,57.548,2966.794,57.548,2966.794z"/>
	<path fill="#FFFFFF" d="M1920.005,3002.401L1920.005,3002.401c0.005,3.84,0.005,3.84,0.011,7.681L1920.005,3002.401z"/>
	<path fill="#FFFFFF" d="M541.521,3054.388C541.515,3050.548,541.515,3050.548,541.521,3054.388
		C537.681,3054.395,541.521,3054.388,541.521,3054.388z"/>
	<path fill="#FFFFFF" d="M1704.89,2952.804c0.006,3.84,0.011,7.68,3.857,11.515C1704.89,2952.804,1712.57,2952.792,1704.89,2952.804
		z"/>
	<path fill="#FFFFFF" d="M741.039,2946.569c0.006,3.84,3.852,7.674,3.852,7.674s0,0-0.005-3.84L741.039,2946.569z"/>
	<path fill="#FFFFFF" d="M1516.84,3026.046L1516.84,3026.046L1516.84,3026.046z"/>
	<path fill="#FFFFFF" d="M1605.165,3029.753L1605.165,3029.753C1605.165,3029.753,1605.159,3025.913,1605.165,3029.753
		L1605.165,3029.753L1605.165,3029.753z"/>
	<path fill="#FFFFFF" d="M145.875,2970.501l0.005,3.84l0,0L145.875,2970.501z"/>
	<path fill="#FFFFFF" d="M30.668,2966.834L30.668,2966.834L30.668,2966.834L30.668,2966.834z"/>
	<path fill="#FFFFFF" d="M26.835,2970.68L26.835,2970.68L26.835,2970.68z"/>
	<path fill="#FFFFFF" d="M76.754,2970.605c-3.84,0.006-7.692-7.669-11.532-7.664l0.006,3.841
		C69.063,2962.937,76.766,2978.285,76.754,2970.605z"/>
	<polygon fill="#FFFFFF" points="410.949,3046.904 418.624,3043.053 410.943,3043.064 	"/>
	<polygon fill="#FFFFFF" points="1328.714,3049.368 1332.549,3045.522 1332.549,3045.522 	"/>
	<path fill="#FFFFFF" d="M1432.262,2960.893L1432.262,2960.893C1432.262,2960.893,1432.256,2957.053,1432.262,2960.893z"/>
	<path fill="#FFFFFF" d="M1862.444,3029.367C1862.444,3029.367,1866.285,3029.361,1862.444,3029.367
		C1866.285,3029.361,1862.444,3029.367,1862.444,3029.367L1862.444,3029.367z"/>
	<path fill="#FFFFFF" d="M-0.005,2997.601L-0.005,2997.601c-0.005-3.84-0.005-3.84-0.011-7.681L-0.005,2997.601z"/>
	<path fill="#FFFFFF" d="M1378.479,2945.613L1378.479,2945.613L1378.479,2945.613z"/>
	<path fill="#FFFFFF" d="M215.109,3047.197c-0.005-3.839-0.011-7.679-3.857-11.514
		C211.264,3043.363,207.43,3047.209,215.109,3047.197z"/>
	<path fill="#FFFFFF" d="M1178.96,3053.433c-0.006-3.84-3.852-7.675-3.852-7.675s0,0,0.006,3.84L1178.96,3053.433z"/>
	<path fill="#FFFFFF" d="M403.154,2970.116L403.154,2970.116L403.154,2970.116z"/>
	<path fill="#FFFFFF" d="M314.829,2966.408C314.834,2970.248,310.995,2970.254,314.829,2966.408
		C314.834,2970.248,314.834,2970.248,314.829,2966.408C314.834,2970.248,314.834,2970.248,314.829,2966.408L314.829,2966.408z"/>
	<path fill="#FFFFFF" d="M1770.279,3025.666l-0.006-3.84l0,0L1770.279,3025.666z"/>
	<path fill="#FFFFFF" d="M1889.331,3033.167C1889.331,3033.167,1889.324,3029.327,1889.331,3033.167L1889.331,3033.167
		L1889.331,3033.167z"/>
	<path fill="#FFFFFF" d="M1893.159,3025.482L1893.159,3025.482C1889.324,3029.327,1893.164,3029.322,1893.159,3025.482z"/>
	<path fill="#FFFFFF" d="M1839.404,3029.402c3.841-0.006,7.692,7.668,11.525,3.822l-0.005-3.84
		C1850.937,3037.065,1843.233,3021.717,1839.404,3029.402z"/>
	<polygon fill="#FFFFFF" points="1509.05,2953.098 1501.376,2956.949 1505.21,2953.103 	"/>
	<polygon fill="#FFFFFF" points="591.28,2946.794 583.604,2950.646 587.444,2950.64 	"/>
</g>
</svg>
